Oceane.ufo
<glyph name="exclam" format="2">
  <advance width="226"/>
  <unicode hex="0021"/>
  <outline>
    <contour>
      <point x="134.15" y="202.32" type="line" smooth="yes"/>
      <point x="134.15" y="178.94"/>
      <point x="115.2" y="159.99"/>
      <point x="91.8203" y="159.99" type="curve"/>
      <point x="91.8203" y="597.62" type="line" smooth="yes"/>
      <point x="91.8203" y="621"/>
      <point x="110.771" y="639.94"/>
      <point x="134.15" y="639.94" type="curve"/>
    </contour>
    <contour>
      <point x="112.98" y="80" type="curve" smooth="yes"/>
      <point x="135.08" y="80"/>
      <point x="152.98" y="62.0996"/>
      <point x="152.98" y="40" type="curve" smooth="yes"/>
      <point x="152.98" y="17.9102"/>
      <point x="135.07" y="0"/>
      <point x="112.98" y="0" type="curve" smooth="yes"/>
      <point x="90.9004" y="0"/>
      <point x="73" y="17.9102"/>
      <point x="73" y="40" type="curve" smooth="yes"/>
      <point x="73" y="62.0996"/>
      <point x="90.9004" y="80"/>
    </contour>
  </outline>
</glyph>
<glyph name="quotedbl" format="2">
  <advance width="242"/>
  <unicode hex="0022"/>
  <outline>
    <contour>
      <point x="160.61" y="597.28" type="line" smooth="yes"/>
      <point x="160.61" y="620.66"/>
      <point x="179.561" y="639.61"/>
      <point x="202.94" y="639.61" type="curve"/>
      <point x="202.94" y="521.95" type="line" smooth="yes"/>
      <point x="202.94" y="498.57"/>
      <point x="183.99" y="479.62"/>
      <point x="160.61" y="479.62" type="curve"/>
    </contour>
    <contour>
      <point x="40" y="597.28" type="line" smooth="yes"/>
      <point x="40" y="620.641"/>
      <point x="58.9502" y="639.61"/>
      <point x="82.3301" y="639.61" type="curve"/>
      <point x="82.3301" y="521.95" type="line" smooth="yes"/>
      <point x="82.3301" y="498.57"/>
      <point x="63.3799" y="479.62"/>
      <point x="40" y="479.62" type="curve"/>
    </contour>
  </outline>
</glyph>
<glyph name="numbersign" format="2">
  <advance width="598"/>
  <unicode hex="0023"/>
  <outline>
    <contour>
      <point x="532.72" y="628.739" type="curve"/>
      <point x="462.004" y="416.586" type="line"/>
      <point x="514.972" y="416.586" type="line"/>
      <point x="514.972" y="393.206"/>
      <point x="496.022" y="374.257"/>
      <point x="472.643" y="374.257" type="curve" smooth="yes"/>
      <point x="447.895" y="374.257" type="line"/>
      <point x="408.698" y="256.652" type="line"/>
      <point x="474.985" y="256.652" type="line"/>
      <point x="474.985" y="233.272"/>
      <point x="456.036" y="214.323"/>
      <point x="432.656" y="214.323" type="curve" smooth="yes"/>
      <point x="394.588" y="214.323" type="line"/>
      <point x="332.802" y="28.9502" type="line" smooth="yes"/>
      <point x="325.408" y="6.78418"/>
      <point x="301.45" y="-5.20898"/>
      <point x="279.27" y="2.18457" type="curve"/>
      <point x="349.973" y="214.323" type="line"/>
      <point x="181.306" y="214.323" type="line"/>
      <point x="119.533" y="28.9502" type="line" smooth="yes"/>
      <point x="112.14" y="6.78418"/>
      <point x="88.1816" y="-5.20898"/>
      <point x="66.001" y="2.18457" type="curve"/>
      <point x="136.69" y="214.338" type="line"/>
      <point x="75.0029" y="214.338" type="line"/>
      <point x="75.0029" y="237.718"/>
      <point x="93.9521" y="256.667"/>
      <point x="117.332" y="256.667" type="curve" smooth="yes"/>
      <point x="150.8" y="256.667" type="line"/>
      <point x="189.996" y="374.271" type="line"/>
      <point x="115.003" y="374.271" type="line"/>
      <point x="115.003" y="397.651"/>
      <point x="133.952" y="416.601"/>
      <point x="157.332" y="416.601" type="curve" smooth="yes"/>
      <point x="204.105" y="416.601" type="line"/>
      <point x="265.892" y="601.974" type="line" smooth="yes"/>
      <point x="273.285" y="624.14"/>
      <point x="297.243" y="636.133"/>
      <point x="319.424" y="628.739" type="curve"/>
      <point x="248.734" y="416.601" type="line"/>
      <point x="417.401" y="416.601" type="line"/>
      <point x="479.188" y="601.974" type="line" smooth="yes"/>
      <point x="486.581" y="624.14"/>
      <point x="510.539" y="636.133"/>
    </contour>
    <contour>
      <point x="195.43" y="256.652" type="line"/>
      <point x="364.111" y="256.652" type="line"/>
      <point x="403.308" y="374.257" type="line"/>
      <point x="234.626" y="374.257" type="line"/>
    </contour>
  </outline>
</glyph>
<glyph name="dollar" format="2">
  <advance width="618"/>
  <unicode hex="0024"/>
  <outline>
    <contour>
      <point x="329.89" y="340.06" type="line"/>
      <point x="432" y="325.55"/>
      <point x="540.19" y="304.48"/>
      <point x="547.431" y="199.641" type="curve"/>
      <point x="547.471" y="198.211" type="line" smooth="yes"/>
      <point x="547.53" y="155.771"/>
      <point x="523.67" y="119.511"/>
      <point x="478.43" y="93.3604" type="curve" smooth="yes"/>
      <point x="438.689" y="70.3906"/>
      <point x="385.06" y="57.2803"/>
      <point x="329.899" y="54.0205" type="curve"/>
      <point x="329.899" y="42.4707" type="line" smooth="yes"/>
      <point x="329.899" y="19.0908"/>
      <point x="310.949" y="0.140625"/>
      <point x="287.569" y="0.140625" type="curve"/>
      <point x="287.569" y="53.5303" type="line"/>
      <point x="230.749" y="55.3799"/>
      <point x="175.629" y="67.6494"/>
      <point x="135.719" y="90.709" type="curve" smooth="yes"/>
      <point x="92.6689" y="115.599"/>
      <point x="69.9385" y="150.599"/>
      <point x="69.998" y="191.959" type="curve"/>
      <point x="74.8984" y="191.959" type="line" smooth="yes"/>
      <point x="94.0088" y="191.929"/>
      <point x="110.419" y="180.309"/>
      <point x="119.289" y="163.368" type="curve" smooth="yes"/>
      <point x="126.409" y="149.769"/>
      <point x="138.979" y="137.719"/>
      <point x="156.92" y="127.369" type="curve" smooth="yes"/>
      <point x="190.68" y="107.85"/>
      <point x="238.26" y="97.3096"/>
      <point x="287.569" y="95.5293" type="curve"/>
      <point x="287.569" y="303.229" type="line"/>
      <point x="185.81" y="317.659"/>
      <point x="77.6094" y="338.319"/>
      <point x="70.0596" y="442.22" type="curve" smooth="yes"/>
      <point x="70" y="443.72" type="line" smooth="yes"/>
      <point x="69.9199" y="485.34"/>
      <point x="93.3496" y="520.899"/>
      <point x="137.75" y="546.56" type="curve" smooth="yes"/>
      <point x="177.77" y="569.689"/>
      <point x="231.89" y="582.829"/>
      <point x="287.569" y="585.919" type="curve"/>
      <point x="287.569" y="597.569" type="line" smooth="yes"/>
      <point x="287.569" y="620.949"/>
      <point x="306.52" y="639.899"/>
      <point x="329.899" y="639.899" type="curve"/>
      <point x="329.899" y="586.27" type="line"/>
      <point x="386.829" y="584.22"/>
      <point x="442.069" y="571.75"/>
      <point x="482.159" y="548.55" type="curve" smooth="yes"/>
      <point x="524.969" y="523.79"/>
      <point x="547.559" y="489.11"/>
      <point x="547.469" y="448.25" type="curve"/>
      <point x="542.389" y="448.25" type="line" smooth="yes"/>
      <point x="523.329" y="448.29"/>
      <point x="507.06" y="459.9"/>
      <point x="498.06" y="476.71" type="curve" smooth="yes"/>
      <point x="490.96" y="489.96"/>
      <point x="478.57" y="501.72"/>
      <point x="460.95" y="511.91" type="curve" smooth="yes"/>
      <point x="426.99" y="531.55"/>
      <point x="379.3" y="542.26"/>
      <point x="329.89" y="544.22" type="curve"/>
    </contour>
    <contour>
      <point x="112.32" y="444.54" type="curve" smooth="yes"/>
      <point x="117.551" y="379.49"/>
      <point x="184.49" y="361.29"/>
      <point x="287.561" y="346.07" type="curve"/>
      <point x="287.561" y="543.74" type="line"/>
      <point x="239.391" y="540.78"/>
      <point x="192.801" y="529.511"/>
      <point x="158.931" y="509.921" type="curve" smooth="yes"/>
      <point x="128.24" y="492.19"/>
      <point x="112.57" y="470.19"/>
    </contour>
    <contour>
      <point x="457.239" y="130.03" type="curve" smooth="yes"/>
      <point x="488.779" y="148.261"/>
      <point x="504.89" y="170.951"/>
      <point x="505.13" y="197.461" type="curve" smooth="yes"/>
      <point x="500.09" y="263.381"/>
      <point x="433.109" y="281.911"/>
      <point x="329.89" y="297.221" type="curve"/>
      <point x="329.89" y="96.1807" type="line"/>
      <point x="377.529" y="99.3203"/>
      <point x="423.619" y="110.601"/>
    </contour>
  </outline>
</glyph>
<glyph name="percent" format="2">
  <advance width="771"/>
  <unicode hex="0025"/>
  <outline>
    <contour>
      <point x="669" y="628" type="line" smooth="yes"/>
      <point x="677.5" y="636.5"/>
      <point x="688.25" y="640.75"/>
      <point x="699" y="640.75" type="curve" smooth="yes"/>
      <point x="709.75" y="640.75"/>
      <point x="720.5" y="636.5"/>
      <point x="729" y="628" type="curve"/>
      <point x="119" y="17" type="line" smooth="yes"/>
      <point x="110.5" y="8.5"/>
      <point x="99.75" y="4.25"/>
      <point x="89" y="4.25" type="curve" smooth="yes"/>
      <point x="78.25" y="4.25"/>
      <point x="67.5" y="8.5"/>
      <point x="59" y="17" type="curve"/>
    </contour>
    <contour>
      <point x="629" y="42" type="curve" smooth="yes"/>
      <point x="650" y="42"/>
      <point x="667" y="59"/>
      <point x="667" y="80" type="curve" smooth="yes"/>
      <point x="667" y="100"/>
      <point x="650" y="117"/>
      <point x="629" y="117" type="curve" smooth="yes"/>
      <point x="608" y="117"/>
      <point x="591" y="100"/>
      <point x="591" y="80" type="curve" smooth="yes"/>
      <point x="591" y="59"/>
      <point x="608" y="42"/>
    </contour>
    <contour>
      <point x="629" y="160" type="curve" smooth="yes"/>
      <point x="673" y="160"/>
      <point x="709" y="124"/>
      <point x="709" y="80" type="curve" smooth="yes"/>
      <point x="709" y="35"/>
      <point x="673" y="0"/>
      <point x="629" y="0" type="curve" smooth="yes"/>
      <point x="585" y="0"/>
      <point x="549" y="35"/>
      <point x="549" y="80" type="curve" smooth="yes"/>
      <point x="549" y="124"/>
      <point x="585" y="160"/>
    </contour>
    <contour>
      <point x="154" y="597" type="curve" smooth="yes"/>
      <point x="133" y="597"/>
      <point x="116" y="580"/>
      <point x="116" y="560" type="curve" smooth="yes"/>
      <point x="116" y="539"/>
      <point x="133" y="522"/>
      <point x="154" y="522" type="curve" smooth="yes"/>
      <point x="175" y="522"/>
      <point x="192" y="539"/>
      <point x="192" y="560" type="curve" smooth="yes"/>
      <point x="192" y="580"/>
      <point x="175" y="597"/>
    </contour>
    <contour>
      <point x="154" y="480" type="curve" smooth="yes"/>
      <point x="110" y="480"/>
      <point x="74" y="515"/>
      <point x="74" y="560" type="curve" smooth="yes"/>
      <point x="74" y="604"/>
      <point x="110" y="640"/>
      <point x="154" y="640" type="curve" smooth="yes"/>
      <point x="198" y="640"/>
      <point x="234" y="604"/>
      <point x="234" y="560" type="curve" smooth="yes"/>
      <point x="234" y="515"/>
      <point x="198" y="480"/>
    </contour>
  </outline>
</glyph>
<glyph name="ampersand" format="2">
  <advance width="582"/>
  <unicode hex="0026"/>
  <outline>
    <contour>
      <point x="456.124" y="79.9512" type="curve"/>
      <point x="514.613" y="9.82715" type="line"/>
      <point x="496.666" y="-5.14355"/>
      <point x="469.971" y="-2.7168"/>
      <point x="455" y="15.2305" type="curve" smooth="yes"/>
      <point x="425.426" y="50.6885" type="line"/>
      <point x="388.162" y="21.4395"/>
      <point x="341.233" y="3.98535"/>
      <point x="290.298" y="3.98535" type="curve" smooth="yes"/>
      <point x="169.378" y="3.98535"/>
      <point x="71.0049" y="102.358"/>
      <point x="71.0049" y="223.278" type="curve" smooth="yes"/>
      <point x="71.0049" y="286.616"/>
      <point x="98.8711" y="346.864"/>
      <point x="146.336" y="388.318" type="curve"/>
      <point x="132.184" y="411.43"/>
      <point x="123.858" y="437.236"/>
      <point x="122.081" y="464.411" type="curve" smooth="yes"/>
      <point x="116.028" y="556.52"/>
      <point x="188.199" y="638.708"/>
      <point x="280.363" y="644.027" type="curve" smooth="yes"/>
      <point x="377.805" y="649.643"/>
      <point x="458.879" y="571.969"/>
      <point x="458.879" y="475.713" type="curve" smooth="yes"/>
      <point x="458.879" y="437.32"/>
      <point x="446.208" y="401.087"/>
      <point x="422.235" y="370.935" type="curve"/>
      <point x="405.205" y="384.479"/>
      <point x="398.799" y="407.676"/>
      <point x="407.109" y="427.782" type="curve" smooth="yes"/>
      <point x="412.133" y="439.931"/>
      <point x="415.194" y="452.799"/>
      <point x="416.196" y="466.104" type="curve" smooth="yes"/>
      <point x="421.402" y="535.919"/>
      <point x="366.106" y="598.65"/>
      <point x="296.179" y="601.839" type="curve" smooth="yes"/>
      <point x="223.895" y="605.141"/>
      <point x="164.041" y="547.291"/>
      <point x="164.041" y="475.727" type="curve" smooth="yes"/>
      <point x="164.041" y="447.042"/>
      <point x="173.509" y="419.938"/>
      <point x="191.428" y="397.376" type="curve" smooth="yes"/>
      <point x="428.583" y="112.995" type="line"/>
      <point x="445.515" y="134.188"/>
      <point x="457.677" y="159.331"/>
      <point x="463.462" y="186.803" type="curve" smooth="yes"/>
      <point x="467.864" y="207.741"/>
      <point x="485.459" y="223.276"/>
      <point x="506.863" y="223.276" type="curve" smooth="yes"/>
      <point x="509.572" y="223.276" type="line"/>
      <point x="509.572" y="168.531"/>
      <point x="489.409" y="118.414"/>
    </contour>
    <contour>
      <point x="275.172" y="46.9492" type="curve" smooth="yes"/>
      <point x="321.606" y="43.0693"/>
      <point x="364.74" y="57.2344"/>
      <point x="398.321" y="83.1963" type="curve"/>
      <point x="171.974" y="354.61" type="line"/>
      <point x="116.325" y="304.408"/>
      <point x="95.4854" y="221.669"/>
      <point x="130.548" y="147.339" type="curve" smooth="yes"/>
      <point x="157.159" y="90.9287"/>
      <point x="213.005" y="52.1416"/>
    </contour>
  </outline>
</glyph>
<glyph name="quotesingle" format="2">
  <advance width="120"/>
  <unicode hex="0027"/>
  <outline>
    <contour>
      <point x="39" y="597.66" type="line" smooth="yes"/>
      <point x="39" y="621.04"/>
      <point x="57.9502" y="639.99"/>
      <point x="81.3301" y="639.99" type="curve"/>
      <point x="81.3301" y="522.33" type="line" smooth="yes"/>
      <point x="81.3301" y="498.95"/>
      <point x="62.3799" y="480"/>
      <point x="39" y="480" type="curve"/>
    </contour>
  </outline>
</glyph>
<glyph name="parenleft" format="2">
  <advance width="307"/>
  <unicode hex="0028"/>
  <outline>
    <contour>
      <point x="241" y="626" type="line"/>
      <point x="157" y="541.5"/>
      <point x="115" y="431"/>
      <point x="115" y="320.625" type="curve" smooth="yes"/>
      <point x="115" y="210.25"/>
      <point x="157" y="100"/>
      <point x="241" y="16" type="curve"/>
      <point x="235" y="9" type="line" smooth="yes"/>
      <point x="228.86" y="2.86035"/>
      <point x="220.938" y="-0.15625"/>
      <point x="213.021" y="-0.15625" type="curve" smooth="yes"/>
      <point x="204.173" y="-0.15625"/>
      <point x="195.333" y="3.61133"/>
      <point x="189" y="11" type="curve" smooth="yes"/>
      <point x="111.5" y="99.5"/>
      <point x="72.75" y="210.25"/>
      <point x="72.75" y="321" type="curve" smooth="yes"/>
      <point x="72.75" y="431.75"/>
      <point x="111.5" y="542.5"/>
      <point x="189" y="631" type="curve" smooth="yes"/>
      <point x="195.333" y="638.389"/>
      <point x="204.173" y="642.156"/>
      <point x="213.021" y="642.156" type="curve" smooth="yes"/>
      <point x="220.938" y="642.156"/>
      <point x="228.86" y="639.14"/>
      <point x="235" y="633" type="curve" smooth="yes"/>
    </contour>
  </outline>
</glyph>
<glyph name="parenright" format="2">
  <advance width="306"/>
  <unicode hex="0029"/>
  <outline>
    <contour>
      <point x="116.81" y="631.32" type="curve" smooth="yes"/>
      <point x="270.97" y="453.83"/>
      <point x="270.97" y="188.021"/>
      <point x="116.81" y="10.54" type="curve" smooth="yes"/>
      <point x="104.899" y="-3.16016"/>
      <point x="83.7295" y="-3.79004"/>
      <point x="70.8896" y="9.0498" type="curve" smooth="yes"/>
      <point x="64" y="15.9297" type="line"/>
      <point x="232.46" y="184.37"/>
      <point x="232.46" y="457.49"/>
      <point x="64" y="625.931" type="curve"/>
      <point x="70.8896" y="632.82" type="line" smooth="yes"/>
      <point x="83.7295" y="645.66"/>
      <point x="104.899" y="645.03"/>
    </contour>
  </outline>
</glyph>
<glyph name="asterisk" format="2">
  <advance width="229"/>
  <unicode hex="002A"/>
  <outline>
    <contour>
      <point x="218.54" y="568.04" type="curve"/>
      <point x="148.771" y="547.521" type="line"/>
      <point x="191.03" y="488.36" type="line"/>
      <point x="172.011" y="474.771"/>
      <point x="145.581" y="479.171"/>
      <point x="131.991" y="498.19" type="curve" smooth="yes"/>
      <point x="114.261" y="523.03" type="line"/>
      <point x="96.5205" y="498.19" type="line" smooth="yes"/>
      <point x="82.9209" y="479.19"/>
      <point x="56.4912" y="474.79"/>
      <point x="37.4717" y="488.37" type="curve"/>
      <point x="79.7412" y="547.521" type="line"/>
      <point x="10.001" y="568.04" type="line"/>
      <point x="16.6006" y="590.47"/>
      <point x="40.1406" y="603.3"/>
      <point x="62.5605" y="596.71" type="curve" smooth="yes"/>
      <point x="93.1309" y="587.72" type="line"/>
      <point x="93.0908" y="619.54" type="line" smooth="yes"/>
      <point x="93.0508" y="642.92"/>
      <point x="111.971" y="661.89"/>
      <point x="135.351" y="661.939" type="curve"/>
      <point x="135.461" y="587.729" type="line"/>
      <point x="165.98" y="596.71" type="line" smooth="yes"/>
      <point x="188.421" y="603.3"/>
      <point x="211.94" y="590.47"/>
    </contour>
  </outline>
</glyph>
<glyph name="comma" format="2">
  <advance width="167"/>
  <unicode hex="002C"/>
  <outline>
    <contour>
      <point x="67" y="57" type="line" smooth="yes"/>
      <point x="74.8164" y="71.9229"/>
      <point x="89.7021" y="80.2803"/>
      <point x="105.198" y="80.2803" type="curve" smooth="yes"/>
      <point x="111.51" y="80.2803"/>
      <point x="117.923" y="78.8945"/>
      <point x="124" y="76" type="curve"/>
      <point x="63" y="-47" type="line" smooth="yes"/>
      <point x="55.1836" y="-61.9229"/>
      <point x="40.2979" y="-70.2803"/>
      <point x="24.8018" y="-70.2803" type="curve" smooth="yes"/>
      <point x="18.4902" y="-70.2803"/>
      <point x="12.0771" y="-68.8945"/>
      <point x="6" y="-66" type="curve"/>
    </contour>
  </outline>
</glyph>
<glyph name="hyphen" format="2">
  <advance width="239"/>
  <unicode hex="002D"/>
  <outline>
    <contour>
      <point x="82.3301" y="342.1" type="curve" smooth="yes"/>
      <point x="199.99" y="342.1" type="line"/>
      <point x="199.99" y="318.72"/>
      <point x="181.04" y="299.77"/>
      <point x="157.66" y="299.77" type="curve" smooth="yes"/>
      <point x="40" y="299.77" type="line"/>
      <point x="40" y="323.149"/>
      <point x="58.9502" y="342.1"/>
    </contour>
  </outline>
</glyph>
<glyph name="slash" format="2">
  <advance width="329"/>
  <unicode hex="002F"/>
  <outline>
    <contour>
      <point x="212.676" y="597.707" type="line" smooth="yes"/>
      <point x="218.362" y="620.396"/>
      <point x="241.36" y="634.166"/>
      <point x="264.034" y="628.466" type="curve"/>
      <point x="114.373" y="32.1631" type="line" smooth="yes"/>
      <point x="108.673" y="9.48926"/>
      <point x="85.6738" y="-4.28223"/>
      <point x="63" y="1.4043" type="curve"/>
    </contour>
  </outline>
</glyph>
<glyph name="zero" format="2">
  <advance width="546"/>
  <unicode hex="0030"/>
  <outline>
    <contour>
      <point x="272.977" y="42.8096" type="curve" smooth="yes"/>
      <point x="358.425" y="42.8096"/>
      <point x="430.624" y="169.952"/>
      <point x="430.624" y="320.446" type="curve" smooth="yes"/>
      <point x="430.624" y="470.94"/>
      <point x="358.425" y="598.083"/>
      <point x="272.977" y="598.083" type="curve" smooth="yes"/>
      <point x="187.528" y="598.083"/>
      <point x="115.329" y="470.94"/>
      <point x="115.329" y="320.446" type="curve" smooth="yes"/>
      <point x="115.329" y="169.952"/>
      <point x="187.515" y="42.8096"/>
    </contour>
    <contour>
      <point x="272.977" y="640.411" type="curve" smooth="yes"/>
      <point x="383.427" y="640.411"/>
      <point x="472.953" y="497.155"/>
      <point x="472.953" y="320.445" type="curve" smooth="yes"/>
      <point x="472.953" y="143.735"/>
      <point x="383.413" y="0.479492"/>
      <point x="272.977" y="0.479492" type="curve" smooth="yes"/>
      <point x="162.54" y="0.479492"/>
      <point x="73" y="143.735"/>
      <point x="73" y="320.445" type="curve" smooth="yes"/>
      <point x="73" y="497.155"/>
      <point x="162.54" y="640.411"/>
    </contour>
  </outline>
</glyph>
<glyph name="one" format="2">
  <advance width="385"/>
  <unicode hex="0031"/>
  <outline>
    <contour>
      <point x="291.56" y="639.39" type="curve" smooth="yes"/>
      <point x="299.479" y="636.109"/>
      <point x="304.608" y="628.389"/>
      <point x="304.608" y="619.829" type="curve" smooth="yes"/>
      <point x="304.608" y="0.178711" type="line"/>
      <point x="281.229" y="0.178711"/>
      <point x="262.278" y="19.1289"/>
      <point x="262.278" y="42.499" type="curve" smooth="yes"/>
      <point x="262.278" y="568.739" type="line"/>
      <point x="116.849" y="423.31" type="line" smooth="yes"/>
      <point x="100.329" y="406.77"/>
      <point x="73.5195" y="406.77"/>
      <point x="57" y="423.31" type="curve"/>
      <point x="268.49" y="634.8" type="line" smooth="yes"/>
      <point x="274.53" y="640.85"/>
      <point x="283.63" y="642.67"/>
    </contour>
  </outline>
</glyph>
<glyph name="two" format="2">
  <advance width="553"/>
  <unicode hex="0032"/>
  <outline>
    <contour>
      <point x="442.299" y="42.1104" type="line" smooth="yes"/>
      <point x="465.679" y="42.1104"/>
      <point x="484.629" y="23.1611"/>
      <point x="484.629" y="-0.21875" type="curve"/>
      <point x="86.1689" y="-0.21875" type="line" smooth="yes"/>
      <point x="77.6094" y="-0.21875"/>
      <point x="69.8896" y="4.93164"/>
      <point x="66.6201" y="12.8516" type="curve" smooth="yes"/>
      <point x="63.3301" y="20.7617"/>
      <point x="65.1504" y="29.8613"/>
      <point x="71.2002" y="35.9209" type="curve" smooth="yes"/>
      <point x="384.99" y="349.621" type="line" smooth="yes"/>
      <point x="426.2" y="390.821"/>
      <point x="438.931" y="450.731"/>
      <point x="418.2" y="505.981" type="curve" smooth="yes"/>
      <point x="398.24" y="559.191"/>
      <point x="353.17" y="593.211"/>
      <point x="297.62" y="596.961" type="curve" smooth="yes"/>
      <point x="293.59" y="597.23"/>
      <point x="289.51" y="597.37"/>
      <point x="285.399" y="597.37" type="curve" smooth="yes"/>
      <point x="216.76" y="597.37"/>
      <point x="155.439" y="558.16"/>
      <point x="125.859" y="498.57" type="curve" smooth="yes"/>
      <point x="116.109" y="478.92"/>
      <point x="93.3291" y="469.439"/>
      <point x="72.1094" y="474.97" type="curve"/>
      <point x="97.3496" y="571.96"/>
      <point x="185.069" y="639.7"/>
      <point x="285.419" y="639.7" type="curve" smooth="yes"/>
      <point x="290.469" y="639.7"/>
      <point x="295.488" y="639.53"/>
      <point x="300.469" y="639.19" type="curve" smooth="yes"/>
      <point x="371.979" y="634.351"/>
      <point x="432.269" y="589.001"/>
      <point x="457.839" y="520.841" type="curve" smooth="yes"/>
      <point x="484.459" y="449.851"/>
      <point x="468.009" y="372.771"/>
      <point x="414.909" y="319.681" type="curve" smooth="yes"/>
      <point x="137.279" y="42.1104" type="line"/>
    </contour>
  </outline>
</glyph>
<glyph name="three" format="2">
  <advance width="510"/>
  <unicode hex="0033"/>
  <outline>
    <contour>
      <point x="334.914" y="338.695" type="curve"/>
      <point x="395.685" y="309.263"/>
      <point x="437.561" y="248.816"/>
      <point x="437.561" y="179.03" type="curve" smooth="yes"/>
      <point x="437.561" y="80.46"/>
      <point x="354.215" y="0.260742"/>
      <point x="251.75" y="0.260742" type="curve" smooth="yes"/>
      <point x="155.932" y="0.260742"/>
      <point x="76.8467" y="70.4277"/>
      <point x="66.998" y="160.137" type="curve"/>
      <point x="83.8877" y="160.137" type="line" smooth="yes"/>
      <point x="97.6865" y="160.137"/>
      <point x="110.583" y="151.756"/>
      <point x="114.858" y="138.648" type="curve" smooth="yes"/>
      <point x="133.004" y="83.085"/>
      <point x="187.439" y="42.6045"/>
      <point x="251.766" y="42.6045" type="curve" smooth="yes"/>
      <point x="330.879" y="42.6045"/>
      <point x="395.247" y="103.798"/>
      <point x="395.247" y="179.045" type="curve" smooth="yes"/>
      <point x="395.247" y="246.658"/>
      <point x="343.239" y="302.801"/>
      <point x="275.287" y="313.51" type="curve" smooth="yes"/>
      <point x="267.626" y="314.724"/>
      <point x="262.081" y="321.468"/>
      <point x="262.081" y="329.229" type="curve" smooth="yes"/>
      <point x="262.081" y="344.537" type="line" smooth="yes"/>
      <point x="262.081" y="352.143"/>
      <point x="267.429" y="358.689"/>
      <point x="274.893" y="360.157" type="curve" smooth="yes"/>
      <point x="335.099" y="371.967"/>
      <point x="379.318" y="428.871"/>
      <point x="370.641" y="494.156" type="curve" smooth="yes"/>
      <point x="363.543" y="547.519"/>
      <point x="319.789" y="590.567"/>
      <point x="266.327" y="596.902" type="curve" smooth="yes"/>
      <point x="203.596" y="604.324"/>
      <point x="148.949" y="562.997"/>
      <point x="135.206" y="505.896" type="curve" smooth="yes"/>
      <point x="131.58" y="490.883"/>
      <point x="118.486" y="480.117"/>
      <point x="103.051" y="480.117" type="curve" smooth="yes"/>
      <point x="89.5615" y="480.117" type="line"/>
      <point x="90.8594" y="570.856"/>
      <point x="166.882" y="643.832"/>
      <point x="258.778" y="639.938" type="curve" smooth="yes"/>
      <point x="342.59" y="636.382"/>
      <point x="411.502" y="566.511"/>
      <point x="413.971" y="482.657" type="curve" smooth="yes"/>
      <point x="415.763" y="421.576"/>
      <point x="383.508" y="367.86"/>
    </contour>
  </outline>
</glyph>
<glyph name="four" format="2">
  <advance width="551"/>
  <unicode hex="0034"/>
  <outline>
    <contour>
      <point x="445.581" y="223.21" type="line" smooth="yes"/>
      <point x="468.961" y="223.21"/>
      <point x="487.902" y="204.27"/>
      <point x="487.902" y="180.89" type="curve"/>
      <point x="404.622" y="180.89" type="line"/>
      <point x="404.622" y="42.5" type="line" smooth="yes"/>
      <point x="404.622" y="19.1299"/>
      <point x="385.672" y="0.179688"/>
      <point x="362.292" y="0.179688" type="curve"/>
      <point x="362.292" y="180.89" type="line"/>
      <point x="80.1523" y="180.89" type="line" smooth="yes"/>
      <point x="72.2021" y="180.89"/>
      <point x="64.9219" y="185.37"/>
      <point x="61.3018" y="192.45" type="curve" smooth="yes"/>
      <point x="57.6914" y="199.53"/>
      <point x="58.3711" y="208.05"/>
      <point x="63.041" y="214.49" type="curve" smooth="yes"/>
      <point x="366.341" y="632.11" type="line" smooth="yes"/>
      <point x="371.73" y="639.53"/>
      <point x="381.311" y="642.62"/>
      <point x="390.001" y="639.8" type="curve" smooth="yes"/>
      <point x="398.741" y="636.96"/>
      <point x="404.631" y="628.83"/>
      <point x="404.631" y="619.66" type="curve" smooth="yes"/>
      <point x="404.631" y="223.21" type="line"/>
    </contour>
    <contour>
      <point x="362.312" y="223.21" type="line"/>
      <point x="362.312" y="554.49" type="line"/>
      <point x="121.713" y="223.21" type="line"/>
    </contour>
  </outline>
</glyph>
<glyph name="five" format="2">
  <advance width="518"/>
  <unicode hex="0035"/>
  <outline>
    <contour>
      <point x="230.55" y="418.68" type="curve" smooth="yes"/>
      <point x="350.26" y="418.68"/>
      <point x="447.647" y="324.657"/>
      <point x="447.647" y="209.107" type="curve" smooth="yes"/>
      <point x="447.647" y="93.5674"/>
      <point x="350.258" y="-0.442383"/>
      <point x="230.548" y="-0.442383" type="curve" smooth="yes"/>
      <point x="186.048" y="-0.442383"/>
      <point x="143.268" y="12.4775"/>
      <point x="106.838" y="36.8877" type="curve" smooth="yes"/>
      <point x="92.5781" y="46.4678"/>
      <point x="79.498" y="57.6875"/>
      <point x="67.998" y="70.2275" type="curve"/>
      <point x="84.5781" y="85.4375"/>
      <point x="109.368" y="86.707"/>
      <point x="127.818" y="73.8271" type="curve" smooth="yes"/>
      <point x="128.679" y="73.2168"/>
      <point x="129.539" y="72.6367"/>
      <point x="130.419" y="72.0469" type="curve" smooth="yes"/>
      <point x="159.849" y="52.3271"/>
      <point x="194.479" y="41.8975"/>
      <point x="230.549" y="41.8975" type="curve" smooth="yes"/>
      <point x="326.919" y="41.8975"/>
      <point x="405.319" y="116.917"/>
      <point x="405.319" y="209.127" type="curve" smooth="yes"/>
      <point x="405.319" y="301.327"/>
      <point x="326.919" y="376.357"/>
      <point x="230.549" y="376.357" type="curve" smooth="yes"/>
      <point x="193.559" y="376.357"/>
      <point x="158.198" y="365.417"/>
      <point x="128.318" y="344.747" type="curve" smooth="yes"/>
      <point x="121.838" y="340.277"/>
      <point x="113.418" y="339.758"/>
      <point x="106.448" y="343.408" type="curve" smooth="yes"/>
      <point x="99.4785" y="347.059"/>
      <point x="95.0986" y="354.289"/>
      <point x="95.0986" y="362.159" type="curve" smooth="yes"/>
      <point x="95.0986" y="617.829" type="line" smooth="yes"/>
      <point x="95.0986" y="629.509"/>
      <point x="104.579" y="638.989"/>
      <point x="116.27" y="638.989" type="curve" smooth="yes"/>
      <point x="425.779" y="638.989" type="line"/>
      <point x="425.779" y="615.609"/>
      <point x="406.829" y="596.659"/>
      <point x="383.449" y="596.659" type="curve" smooth="yes"/>
      <point x="137.43" y="596.659" type="line"/>
      <point x="137.43" y="398.489" type="line"/>
      <point x="166.33" y="411.779"/>
      <point x="197.93" y="418.68"/>
    </contour>
  </outline>
</glyph>
<glyph name="six" format="2">
  <advance width="501"/>
  <unicode hex="0036"/>
  <outline>
    <contour>
      <point x="433.548" y="202.457" type="curve" smooth="yes"/>
      <point x="445.865" y="92.8252"/>
      <point x="360.051" y="-0.368164"/>
      <point x="252.859" y="-0.368164" type="curve" smooth="yes"/>
      <point x="152.709" y="-0.368164"/>
      <point x="71.2256" y="81.0166"/>
      <point x="71.0137" y="181.11" type="curve"/>
      <point x="71" y="181.11" type="line"/>
      <point x="71" y="181.195"/>
      <point x="71" y="181.28"/>
      <point x="71" y="181.379" type="curve" smooth="yes"/>
      <point x="71" y="181.421"/>
      <point x="71" y="181.463"/>
      <point x="71" y="181.505" type="curve" smooth="yes"/>
      <point x="71" y="181.618"/>
      <point x="71.0137" y="181.717"/>
      <point x="71.0137" y="181.83" type="curve" smooth="yes"/>
      <point x="71.3662" y="496.265"/>
      <point x="301.819" y="655.845"/>
      <point x="311.64" y="662.49" type="curve"/>
      <point x="324.691" y="643.245"/>
      <point x="321.376" y="617.467"/>
      <point x="304.049" y="601.96" type="curve" smooth="yes"/>
      <point x="256.104" y="559.066"/>
      <point x="166.254" y="462.415"/>
      <point x="129.597" y="314.842" type="curve"/>
      <point x="167.975" y="350.355"/>
      <point x="221.465" y="369.771"/>
      <point x="279.385" y="361.474" type="curve" smooth="yes"/>
      <point x="360.177" y="349.903"/>
      <point x="424.433" y="283.56"/>
    </contour>
    <contour>
      <point x="242.307" y="42.3555" type="curve" smooth="yes"/>
      <point x="323.987" y="36.3164"/>
      <point x="392.391" y="101.08"/>
      <point x="392.391" y="181.505" type="curve" smooth="yes"/>
      <point x="392.391" y="279.567"/>
      <point x="290.73" y="354.32"/>
      <point x="187.278" y="305.91" type="curve" smooth="yes"/>
      <point x="142.438" y="284.943"/>
      <point x="114.613" y="238.932"/>
      <point x="113.499" y="189.449" type="curve" smooth="yes"/>
      <point x="111.82" y="114.456"/>
      <point x="167.497" y="47.8867"/>
    </contour>
  </outline>
</glyph>
<glyph name="seven" format="2">
  <advance width="541"/>
  <unicode hex="0037"/>
  <outline>
    <contour>
      <point x="479.062" y="638.61" type="curve" smooth="yes"/>
      <point x="482.999" y="632.727"/>
      <point x="483.732" y="625.249"/>
      <point x="481.009" y="618.716" type="curve" smooth="yes"/>
      <point x="223.268" y="0.0205078" type="line"/>
      <point x="201.68" y="9.00879"/>
      <point x="191.479" y="33.7998"/>
      <point x="200.467" y="55.373" type="curve" smooth="yes"/>
      <point x="429.721" y="605.679" type="line"/>
      <point x="91.3428" y="605.565" type="line" smooth="yes"/>
      <point x="67.9629" y="605.552"/>
      <point x="48.999" y="624.501"/>
      <point x="48.999" y="647.881" type="curve"/>
      <point x="461.453" y="648.021" type="line" smooth="yes"/>
      <point x="468.522" y="648.021"/>
      <point x="475.14" y="644.494"/>
    </contour>
  </outline>
</glyph>
<glyph name="eight" format="2">
  <advance width="518"/>
  <unicode hex="0038"/>
  <outline>
    <contour>
      <point x="337.05" y="340.783" type="curve"/>
      <point x="400.91" y="312.395"/>
      <point x="445.285" y="250.637"/>
      <point x="445.285" y="178.818" type="curve" smooth="yes"/>
      <point x="445.285" y="80.1494"/>
      <point x="361.728" y="0.162109"/>
      <point x="258.643" y="0.162109" type="curve" smooth="yes"/>
      <point x="155.558" y="0.162109"/>
      <point x="72" y="80.1494"/>
      <point x="72" y="178.818" type="curve" smooth="yes"/>
      <point x="72" y="250.65"/>
      <point x="116.389" y="312.408"/>
      <point x="180.235" y="340.783" type="curve"/>
      <point x="131.585" y="368.227"/>
      <point x="98.667" y="420.306"/>
      <point x="98.667" y="480.145" type="curve" smooth="yes"/>
      <point x="98.667" y="568.499"/>
      <point x="170.288" y="640.12"/>
      <point x="258.643" y="640.12" type="curve" smooth="yes"/>
      <point x="346.997" y="640.12"/>
      <point x="418.618" y="568.499"/>
      <point x="418.618" y="480.145" type="curve" smooth="yes"/>
      <point x="418.618" y="420.306"/>
      <point x="385.7" y="368.227"/>
    </contour>
    <contour>
      <point x="140.981" y="480.145" type="curve" smooth="yes"/>
      <point x="140.981" y="415.269"/>
      <point x="193.752" y="362.498"/>
      <point x="258.628" y="362.498" type="curve" smooth="yes"/>
      <point x="323.504" y="362.498"/>
      <point x="376.274" y="415.269"/>
      <point x="376.274" y="480.145" type="curve" smooth="yes"/>
      <point x="376.274" y="545.021"/>
      <point x="323.504" y="597.791"/>
      <point x="258.628" y="597.791" type="curve" smooth="yes"/>
      <point x="193.752" y="597.791"/>
      <point x="140.981" y="545.021"/>
    </contour>
    <contour>
      <point x="258.628" y="42.5049" type="curve" smooth="yes"/>
      <point x="338.206" y="42.5049"/>
      <point x="402.941" y="103.656"/>
      <point x="402.941" y="178.833" type="curve" smooth="yes"/>
      <point x="402.941" y="254.01"/>
      <point x="338.206" y="315.161"/>
      <point x="258.628" y="315.161" type="curve" smooth="yes"/>
      <point x="179.05" y="315.161"/>
      <point x="114.314" y="254.01"/>
      <point x="114.314" y="178.833" type="curve" smooth="yes"/>
      <point x="114.314" y="103.656"/>
      <point x="179.05" y="42.5049"/>
    </contour>
  </outline>
</glyph>
<glyph name="nine" format="2">
  <advance width="501"/>
  <unicode hex="0039"/>
  <outline>
    <contour>
      <point x="429.729" y="461.01" type="line"/>
      <point x="429.729" y="460.93"/>
      <point x="429.729" y="460.84"/>
      <point x="429.729" y="460.74" type="curve" smooth="yes"/>
      <point x="429.729" y="460.7"/>
      <point x="429.729" y="460.66"/>
      <point x="429.729" y="460.62" type="curve" smooth="yes"/>
      <point x="429.729" y="460.5"/>
      <point x="429.709" y="460.4"/>
      <point x="429.709" y="460.29" type="curve" smooth="yes"/>
      <point x="429.359" y="145.86"/>
      <point x="198.909" y="-13.7197"/>
      <point x="189.089" y="-20.3701" type="curve"/>
      <point x="176.039" y="-1.12012"/>
      <point x="179.349" y="24.6494"/>
      <point x="196.679" y="40.1592" type="curve" smooth="yes"/>
      <point x="244.619" y="83.0693"/>
      <point x="334.469" y="179.709"/>
      <point x="371.129" y="327.279" type="curve"/>
      <point x="332.749" y="291.76"/>
      <point x="279.259" y="272.35"/>
      <point x="221.339" y="280.649" type="curve" smooth="yes"/>
      <point x="140.549" y="292.22"/>
      <point x="76.2891" y="358.56"/>
      <point x="67.1787" y="439.659" type="curve" smooth="yes"/>
      <point x="54.8584" y="549.279"/>
      <point x="140.679" y="642.489"/>
      <point x="247.869" y="642.489" type="curve" smooth="yes"/>
      <point x="348.02" y="642.489"/>
      <point x="429.5" y="561.1"/>
      <point x="429.71" y="461.01" type="curve"/>
    </contour>
    <contour>
      <point x="313.438" y="336.21" type="curve" smooth="yes"/>
      <point x="358.259" y="357.18"/>
      <point x="386.099" y="403.188"/>
      <point x="387.198" y="452.669" type="curve" smooth="yes"/>
      <point x="388.878" y="527.659"/>
      <point x="333.198" y="594.229"/>
      <point x="258.389" y="599.76" type="curve" smooth="yes"/>
      <point x="176.709" y="605.8"/>
      <point x="108.309" y="541.04"/>
      <point x="108.309" y="460.62" type="curve" smooth="yes"/>
      <point x="108.309" y="362.55"/>
      <point x="209.979" y="287.8"/>
    </contour>
  </outline>
</glyph>
<glyph name="colon" format="2">
  <advance width="240"/>
  <unicode hex="003A"/>
  <outline>
    <contour>
      <point x="120" y="463.98" type="curve" smooth="yes"/>
      <point x="97.9102" y="463.98"/>
      <point x="80" y="481.891"/>
      <point x="80" y="503.98" type="curve" smooth="yes"/>
      <point x="80" y="526.07"/>
      <point x="97.9102" y="543.98"/>
      <point x="120" y="543.98" type="curve" smooth="yes"/>
      <point x="142.09" y="543.98"/>
      <point x="160" y="526.07"/>
      <point x="160" y="503.98" type="curve" smooth="yes"/>
      <point x="160" y="481.891"/>
      <point x="142.09" y="463.98"/>
    </contour>
    <contour>
      <point x="120" y="224" type="curve" smooth="yes"/>
      <point x="97.9102" y="224"/>
      <point x="80" y="241.91"/>
      <point x="80" y="264" type="curve" smooth="yes"/>
      <point x="80" y="286.09"/>
      <point x="97.9102" y="304"/>
      <point x="120" y="304" type="curve" smooth="yes"/>
      <point x="142.09" y="304"/>
      <point x="160" y="286.09"/>
      <point x="160" y="264" type="curve" smooth="yes"/>
      <point x="160" y="241.91"/>
      <point x="142.09" y="224"/>
    </contour>
  </outline>
</glyph>
<glyph name="semicolon" format="2">
  <advance width="206"/>
  <unicode hex="003B"/>
  <outline>
    <contour>
      <point x="112.82" y="244.97" type="curve" smooth="yes"/>
      <point x="134.92" y="244.97"/>
      <point x="152.82" y="227.069"/>
      <point x="152.82" y="204.97" type="curve" smooth="yes"/>
      <point x="152.82" y="182.88"/>
      <point x="134.9" y="164.97"/>
      <point x="112.82" y="164.97" type="curve" smooth="yes"/>
      <point x="90.7402" y="164.97"/>
      <point x="72.8398" y="182.88"/>
      <point x="72.8398" y="204.97" type="curve" smooth="yes"/>
      <point x="72.8398" y="227.069"/>
      <point x="90.7402" y="244.97"/>
    </contour>
    <contour>
      <point x="76.0703" y="56.5996" type="line" smooth="yes"/>
      <point x="86.5205" y="77.5098"/>
      <point x="111.949" y="85.9902"/>
      <point x="132.859" y="75.5303" type="curve"/>
      <point x="71.8096" y="-46.5898" type="line" smooth="yes"/>
      <point x="61.3398" y="-67.5"/>
      <point x="35.9102" y="-75.9805"/>
      <point x="15" y="-65.5205" type="curve"/>
    </contour>
  </outline>
</glyph>
<glyph name="less" format="2">
  <advance width="545"/>
  <unicode hex="003C"/>
  <outline>
    <contour>
      <point x="487.6" y="505.83" type="curve"/>
      <point x="125.398" y="324.441" type="line"/>
      <point x="487.599" y="142.922" type="line"/>
      <point x="477.129" y="122.021"/>
      <point x="451.699" y="113.571"/>
      <point x="430.81" y="124.041" type="curve" smooth="yes"/>
      <point x="68.6797" y="305.521" type="line" smooth="yes"/>
      <point x="61.5195" y="309.121"/>
      <point x="57" y="316.431"/>
      <point x="57" y="324.44" type="curve" smooth="yes"/>
      <point x="57" y="332.46"/>
      <point x="61.5303" y="339.78"/>
      <point x="68.6807" y="343.36" type="curve" smooth="yes"/>
      <point x="430.811" y="524.73" type="line" smooth="yes"/>
      <point x="451.7" y="535.2"/>
      <point x="477.13" y="526.75"/>
    </contour>
  </outline>
</glyph>
<glyph name="equal" format="2">
  <advance width="334"/>
  <unicode hex="003D"/>
  <outline>
    <contour>
      <point x="89.3301" y="379.51" type="line" smooth="yes"/>
      <point x="65.9502" y="379.51"/>
      <point x="47" y="398.46"/>
      <point x="47" y="421.84" type="curve"/>
      <point x="244.65" y="421.84" type="line" smooth="yes"/>
      <point x="268.03" y="421.84"/>
      <point x="286.98" y="402.89"/>
      <point x="286.98" y="379.51" type="curve"/>
    </contour>
    <contour>
      <point x="244.65" y="272.33" type="line" smooth="yes"/>
      <point x="268.03" y="272.33"/>
      <point x="286.98" y="253.38"/>
      <point x="286.98" y="230" type="curve"/>
      <point x="89.3301" y="230" type="line" smooth="yes"/>
      <point x="65.9502" y="230"/>
      <point x="47" y="248.95"/>
      <point x="47" y="272.33" type="curve"/>
    </contour>
  </outline>
</glyph>
<glyph name="greater" format="2">
  <advance width="545"/>
  <unicode hex="003E"/>
  <outline>
    <contour>
      <point x="475.92" y="343.25" type="line" smooth="yes"/>
      <point x="483.08" y="339.65"/>
      <point x="487.601" y="332.329"/>
      <point x="487.601" y="324.31" type="curve" smooth="yes"/>
      <point x="487.601" y="316.3"/>
      <point x="483.07" y="308.979"/>
      <point x="475.92" y="305.39" type="curve" smooth="yes"/>
      <point x="113.79" y="124.01" type="line" smooth="yes"/>
      <point x="92.9004" y="113.56"/>
      <point x="67.4707" y="122.01"/>
      <point x="57.001" y="142.92" type="curve"/>
      <point x="419.201" y="324.33" type="line"/>
      <point x="57.001" y="505.85" type="line"/>
      <point x="67.4707" y="526.75"/>
      <point x="92.9004" y="535.2"/>
      <point x="113.79" y="524.73" type="curve" smooth="yes"/>
    </contour>
  </outline>
</glyph>
<glyph name="question" format="2">
  <advance width="470"/>
  <unicode hex="003F"/>
  <outline>
    <contour>
      <point x="232.184" y="79.9951" type="curve" smooth="yes"/>
      <point x="254.279" y="79.9951"/>
      <point x="272.185" y="62.1035"/>
      <point x="272.185" y="40.0078" type="curve" smooth="yes"/>
      <point x="272.185" y="17.9121"/>
      <point x="254.279" y="0.00683594"/>
      <point x="232.184" y="0.00683594" type="curve" smooth="yes"/>
      <point x="210.088" y="0.00683594"/>
      <point x="192.183" y="17.9258"/>
      <point x="192.183" y="40.0078" type="curve" smooth="yes"/>
      <point x="192.183" y="62.0898"/>
      <point x="210.088" y="79.9951"/>
    </contour>
    <contour>
      <point x="226.596" y="640.177" type="curve" smooth="yes"/>
      <point x="307.613" y="642.448"/>
      <point x="398.212" y="597.903"/>
      <point x="406.227" y="495.749" type="curve" smooth="yes"/>
      <point x="408.851" y="436.475"/>
      <point x="368.173" y="394.146"/>
      <point x="337.033" y="367.28" type="curve" smooth="yes"/>
      <point x="251.952" y="283.088"/>
      <point x="252.771" y="245.909"/>
      <point x="253.829" y="198.867" type="curve" smooth="yes"/>
      <point x="253.829" y="198.74"/>
      <point x="253.829" y="198.613"/>
      <point x="253.829" y="198.486" type="curve" smooth="yes"/>
      <point x="254.309" y="176.94"/>
      <point x="236.064" y="159.685"/>
      <point x="214.562" y="161.279" type="curve" smooth="yes"/>
      <point x="211.091" y="161.533" type="line"/>
      <point x="212.036" y="174.246"/>
      <point x="211.768" y="186.281"/>
      <point x="211.499" y="197.922" type="curve" smooth="yes"/>
      <point x="210.313" y="250.692"/>
      <point x="209.199" y="300.527"/>
      <point x="307.783" y="397.898" type="curve"/>
      <point x="308.855" y="398.886" type="line" smooth="yes"/>
      <point x="348.362" y="432.848"/>
      <point x="365.351" y="461.928"/>
      <point x="363.968" y="493.167" type="curve" smooth="yes"/>
      <point x="358.169" y="567.102"/>
      <point x="289.06" y="599.582"/>
      <point x="227.668" y="597.86" type="curve" smooth="yes"/>
      <point x="176.352" y="596.562"/>
      <point x="124.047" y="572.703"/>
      <point x="106.452" y="522.783" type="curve" smooth="yes"/>
      <point x="99.2559" y="502.353"/>
      <point x="79.6436" y="488.963"/>
      <point x="57.999" y="489.556" type="curve"/>
      <point x="60.7646" y="590.186"/>
      <point x="147.342" y="638.173"/>
    </contour>
  </outline>
</glyph>
<glyph name="at" format="2">
  <advance width="616"/>
  <unicode hex="0040"/>
  <outline>
    <contour>
      <point x="381.05" y="311.51" type="curve"/>
      <point x="386.649" y="328.33"/>
      <point x="402.34" y="340.541"/>
      <point x="421.04" y="340.541" type="curve"/>
      <point x="421.04" y="168.071" type="line" smooth="yes"/>
      <point x="421.04" y="144.691"/>
      <point x="402.09" y="125.751"/>
      <point x="378.71" y="125.751" type="curve"/>
      <point x="378.71" y="156.811" type="line"/>
      <point x="358.96" y="137.61"/>
      <point x="332.06" y="125.75"/>
      <point x="302.35" y="125.75" type="curve" smooth="yes"/>
      <point x="241.83" y="125.75"/>
      <point x="192.76" y="174.83"/>
      <point x="192.76" y="235.35" type="curve" smooth="yes"/>
      <point x="192.76" y="295.869"/>
      <point x="241.819" y="344.939"/>
      <point x="302.35" y="344.939" type="curve" smooth="yes"/>
      <point x="333.26" y="344.939"/>
      <point x="361.13" y="332.1"/>
    </contour>
    <contour>
      <point x="302.35" y="168.07" type="curve" smooth="yes"/>
      <point x="339.43" y="168.07"/>
      <point x="369.609" y="198.271"/>
      <point x="369.609" y="235.351" type="curve" smooth="yes"/>
      <point x="369.609" y="272.431"/>
      <point x="339.43" y="302.61"/>
      <point x="302.35" y="302.61" type="curve" smooth="yes"/>
      <point x="265.27" y="302.61"/>
      <point x="235.09" y="272.44"/>
      <point x="235.09" y="235.351" type="curve" smooth="yes"/>
      <point x="235.09" y="198.261"/>
      <point x="265.26" y="168.07"/>
    </contour>
    <contour>
      <point x="280.04" y="479.551" type="curve" smooth="yes"/>
      <point x="424.93" y="495.721"/>
      <point x="548.082" y="382.251"/>
      <point x="548.102" y="240.561" type="curve" smooth="yes"/>
      <point x="548.102" y="198.301"/>
      <point x="536.981" y="156.741"/>
      <point x="515.962" y="120.361" type="curve"/>
      <point x="515.392" y="120.682" type="line" smooth="yes"/>
      <point x="495.852" y="131.972"/>
      <point x="488.031" y="155.472"/>
      <point x="495.271" y="176.852" type="curve" smooth="yes"/>
      <point x="502.182" y="197.252"/>
      <point x="505.752" y="218.802"/>
      <point x="505.752" y="240.562" type="curve" smooth="yes"/>
      <point x="505.752" y="357.312"/>
      <point x="404.282" y="450.821"/>
      <point x="284.882" y="437.501" type="curve" smooth="yes"/>
      <point x="194.202" y="427.381"/>
      <point x="120.702" y="353.9"/>
      <point x="110.582" y="263.221" type="curve" smooth="yes"/>
      <point x="97.252" y="143.82"/>
      <point x="190.771" y="42.3301"/>
      <point x="307.531" y="42.3301" type="curve" smooth="yes"/>
      <point x="316.911" y="42.3301"/>
      <point x="326.221" y="42.96"/>
      <point x="335.411" y="44.2598" type="curve" smooth="yes"/>
      <point x="358.041" y="47.4502"/>
      <point x="379.951" y="35.1807"/>
      <point x="387.541" y="13.6309" type="curve"/>
      <point x="361.891" y="4.59082"/>
      <point x="334.971" y="0.000976562"/>
      <point x="307.541" y="0.000976562" type="curve" smooth="yes"/>
      <point x="165.851" y="0.000976562"/>
      <point x="52.3701" y="123.151"/>
      <point x="68.54" y="268.041" type="curve" smooth="yes"/>
      <point x="80.8301" y="378.211"/>
      <point x="169.87" y="467.261"/>
    </contour>
  </outline>
</glyph>
<glyph name="A" format="2">
  <advance width="697"/>
  <unicode hex="0041"/>
  <outline>
    <contour>
      <point x="189.323" y="252.177" type="line"/>
      <point x="507.595" y="252.178" type="line"/>
      <point x="348.466" y="570.449" type="line"/>
    </contour>
    <contour>
      <point x="367.401" y="627.239" type="curve" smooth="yes"/>
      <point x="680.904" y="0.206055" type="line"/>
      <point x="651.895" y="0.206055"/>
      <point x="625.383" y="16.5869"/>
      <point x="612.416" y="42.5342" type="curve" smooth="yes"/>
      <point x="528.76" y="209.847" type="line"/>
      <point x="168.159" y="209.847" type="line"/>
      <point x="84.5029" y="42.5342" type="line" smooth="yes"/>
      <point x="71.5361" y="16.6006"/>
      <point x="45.0098" y="0.205078"/>
      <point x="16" y="0.205078" type="curve"/>
      <point x="329.531" y="627.239" type="line" smooth="yes"/>
      <point x="333.129" y="634.407"/>
      <point x="340.438" y="638.937"/>
      <point x="348.466" y="638.937" type="curve" smooth="yes"/>
      <point x="356.494" y="638.937"/>
      <point x="363.817" y="634.407"/>
    </contour>
  </outline>
</glyph>
<glyph name="B" format="2">
  <advance width="606"/>
  <unicode hex="0042"/>
  <outline>
    <contour>
      <point x="428.327" y="336.792" type="curve"/>
      <point x="505.38" y="320.961"/>
      <point x="563.497" y="252.628"/>
      <point x="563.497" y="170.976" type="curve" smooth="yes"/>
      <point x="563.497" y="169.479" type="line" smooth="yes"/>
      <point x="563.497" y="76.1436"/>
      <point x="487.559" y="0.205078"/>
      <point x="394.223" y="0.205078" type="curve" smooth="yes"/>
      <point x="100.163" y="0.205078" type="line" smooth="yes"/>
      <point x="88.4805" y="0.205078"/>
      <point x="78.999" y="9.67285"/>
      <point x="78.999" y="21.3701" type="curve" smooth="yes"/>
      <point x="78.999" y="616.799" type="line" smooth="yes"/>
      <point x="78.999" y="628.496"/>
      <point x="88.4805" y="637.964"/>
      <point x="100.163" y="637.964" type="curve" smooth="yes"/>
      <point x="320.528" y="637.964" type="line" smooth="yes"/>
      <point x="413.864" y="637.964"/>
      <point x="489.803" y="562.025"/>
      <point x="489.803" y="468.689" type="curve" smooth="yes"/>
      <point x="489.803" y="467.193" type="line" smooth="yes"/>
      <point x="489.803" y="414.776"/>
      <point x="465.845" y="367.861"/>
    </contour>
    <contour>
      <point x="121.328" y="595.634" type="line"/>
      <point x="121.328" y="340.249" type="line"/>
      <point x="320.528" y="340.249" type="line" smooth="yes"/>
      <point x="390.526" y="340.249"/>
      <point x="447.473" y="397.195"/>
      <point x="447.473" y="467.193" type="curve" smooth="yes"/>
      <point x="447.473" y="468.689" type="line" smooth="yes"/>
      <point x="447.473" y="538.688"/>
      <point x="390.526" y="595.634"/>
      <point x="320.528" y="595.634" type="curve" smooth="yes"/>
    </contour>
    <contour>
      <point x="521.168" y="169.479" type="curve" smooth="yes"/>
      <point x="521.168" y="170.976" type="line" smooth="yes"/>
      <point x="521.168" y="240.974"/>
      <point x="464.222" y="297.92"/>
      <point x="394.224" y="297.92" type="curve" smooth="yes"/>
      <point x="121.328" y="297.92" type="line"/>
      <point x="121.328" y="42.5352" type="line"/>
      <point x="394.224" y="42.5352" type="line" smooth="yes"/>
      <point x="464.222" y="42.5352"/>
      <point x="521.168" y="99.4814"/>
    </contour>
  </outline>
</glyph>
<glyph name="C" format="2">
  <advance width="555"/>
  <unicode hex="0043"/>
  <outline>
    <contour>
      <point x="471" y="63" type="curve" smooth="yes"/>
      <point x="476.794" y="65.4834"/>
      <point x="482.816" y="66.6719"/>
      <point x="488.752" y="66.6719" type="curve" smooth="yes"/>
      <point x="504.33" y="66.6719"/>
      <point x="519.311" y="58.4824"/>
      <point x="528" y="44" type="curve"/>
      <point x="479" y="15"/>
      <point x="423" y="0"/>
      <point x="366" y="0" type="curve" smooth="yes"/>
      <point x="190" y="0"/>
      <point x="47" y="143"/>
      <point x="47" y="319" type="curve" smooth="yes"/>
      <point x="47" y="495"/>
      <point x="190" y="638"/>
      <point x="366" y="638" type="curve" smooth="yes"/>
      <point x="423" y="638"/>
      <point x="479" y="623"/>
      <point x="528" y="594" type="curve"/>
      <point x="519.311" y="579.518"/>
      <point x="504.33" y="571.328"/>
      <point x="488.752" y="571.328" type="curve" smooth="yes"/>
      <point x="482.816" y="571.328"/>
      <point x="476.794" y="572.517"/>
      <point x="471" y="575" type="curve" smooth="yes"/>
      <point x="438" y="589"/>
      <point x="402" y="596"/>
      <point x="366" y="596" type="curve" smooth="yes"/>
      <point x="213" y="596"/>
      <point x="89" y="472"/>
      <point x="89" y="319" type="curve" smooth="yes"/>
      <point x="89" y="167"/>
      <point x="213" y="43"/>
      <point x="366" y="43" type="curve" smooth="yes"/>
      <point x="402" y="43"/>
      <point x="438" y="50"/>
    </contour>
  </outline>
</glyph>
<glyph name="D" format="2">
  <advance width="606"/>
  <unicode hex="0044"/>
  <outline>
    <contour>
      <point x="238.989" y="639.937" type="line" smooth="yes"/>
      <point x="415.699" y="639.937"/>
      <point x="558.955" y="496.682"/>
      <point x="558.955" y="319.972" type="curve" smooth="yes"/>
      <point x="558.955" y="143.262"/>
      <point x="415.699" y="0.00585938"/>
      <point x="238.989" y="0.00585938" type="curve" smooth="yes"/>
      <point x="79" y="0.00585938" type="line"/>
      <point x="79" y="639.937" type="line"/>
    </contour>
    <contour>
      <point x="238.989" y="42.3359" type="line" smooth="yes"/>
      <point x="392.079" y="42.3359"/>
      <point x="516.625" y="166.883"/>
      <point x="516.625" y="319.973" type="curve" smooth="yes"/>
      <point x="516.625" y="473.062"/>
      <point x="392.079" y="597.608"/>
      <point x="238.989" y="597.608" type="curve" smooth="yes"/>
      <point x="121.329" y="597.608" type="line"/>
      <point x="121.329" y="42.3359" type="line"/>
    </contour>
  </outline>
</glyph>
<glyph name="F" format="2">
  <advance width="433"/>
  <unicode hex="0046"/>
  <outline>
    <contour>
      <point x="256.029" y="639.937" type="curve" smooth="yes"/>
      <point x="415.13" y="639.938" type="line"/>
      <point x="415.13" y="616.558"/>
      <point x="396.181" y="597.608"/>
      <point x="372.801" y="597.608" type="curve" smooth="yes"/>
      <point x="256.029" y="597.608" type="line" smooth="yes"/>
      <point x="178.878" y="597.608"/>
      <point x="116.33" y="535.074"/>
      <point x="116.33" y="457.908" type="curve" smooth="yes"/>
      <point x="116.33" y="319.972" type="line"/>
      <point x="335.143" y="319.972" type="line"/>
      <point x="335.143" y="296.592"/>
      <point x="316.193" y="277.643"/>
      <point x="292.813" y="277.643" type="curve" smooth="yes"/>
      <point x="116.33" y="277.643" type="line"/>
      <point x="116.33" y="42.3359" type="line" smooth="yes"/>
      <point x="116.33" y="18.9561"/>
      <point x="97.3809" y="0.00683594"/>
      <point x="74.001" y="0.00683594" type="curve"/>
      <point x="74.001" y="457.908" type="line" smooth="yes"/>
      <point x="74.001" y="558.439"/>
      <point x="155.498" y="639.937"/>
    </contour>
  </outline>
</glyph>
<glyph name="G" format="2">
  <advance width="730"/>
  <unicode hex="0047"/>
  <outline>
    <contour>
      <point x="663.071" y="271.335" type="line" smooth="yes"/>
      <point x="674.769" y="271.335"/>
      <point x="684.235" y="261.883"/>
      <point x="684.235" y="250.186" type="curve" smooth="yes"/>
      <point x="684.235" y="248.492"/>
      <point x="684.038" y="246.094"/>
      <point x="683.643" y="244.457" type="curve" smooth="yes"/>
      <point x="648.538" y="100.524"/>
      <point x="519.491" y="0.00683594"/>
      <point x="369.83" y="0.00683594" type="curve" smooth="yes"/>
      <point x="191.822" y="0.00683594"/>
      <point x="47.001" y="143.46"/>
      <point x="47.001" y="319.803" type="curve" smooth="yes"/>
      <point x="47.001" y="496.146"/>
      <point x="191.822" y="639.599"/>
      <point x="369.83" y="639.599" type="curve" smooth="yes"/>
      <point x="515.498" y="639.599"/>
      <point x="643.685" y="542.383"/>
      <point x="681.541" y="403.219" type="curve"/>
      <point x="677.562" y="402.132"/>
      <point x="673.541" y="401.609"/>
      <point x="669.59" y="401.609" type="curve" smooth="yes"/>
      <point x="651.741" y="401.609"/>
      <point x="635.078" y="412.191"/>
      <point x="627.656" y="429.292" type="curve" smooth="yes"/>
      <point x="584.015" y="529.866"/>
      <point x="483.004" y="597.269"/>
      <point x="369.83" y="597.269" type="curve" smooth="yes"/>
      <point x="215.16" y="597.269"/>
      <point x="89.3301" y="472.793"/>
      <point x="89.3301" y="319.802" type="curve" smooth="yes"/>
      <point x="89.3301" y="166.811"/>
      <point x="215.16" y="42.335"/>
      <point x="369.83" y="42.335" type="curve" smooth="yes"/>
      <point x="490.877" y="42.335"/>
      <point x="596.375" y="117.864"/>
      <point x="634.993" y="229.006" type="curve"/>
      <point x="473.55" y="229.006" type="line" smooth="yes"/>
      <point x="450.17" y="229.006"/>
      <point x="431.221" y="247.955"/>
      <point x="431.221" y="271.335" type="curve"/>
    </contour>
  </outline>
</glyph>
<glyph name="H" format="2">
  <advance width="638"/>
  <unicode hex="0048"/>
  <outline>
    <contour>
      <point x="516.626" y="597.602" type="line" smooth="yes"/>
      <point x="516.626" y="620.981"/>
      <point x="535.575" y="639.931"/>
      <point x="558.955" y="639.931" type="curve"/>
      <point x="558.955" y="42.3291" type="line" smooth="yes"/>
      <point x="558.955" y="18.9492"/>
      <point x="540.006" y="0"/>
      <point x="516.626" y="0" type="curve"/>
      <point x="516.626" y="298.801" type="line"/>
      <point x="121.329" y="298.801" type="line"/>
      <point x="121.329" y="42.3291" type="line" smooth="yes"/>
      <point x="121.329" y="18.9492"/>
      <point x="102.38" y="0"/>
      <point x="79" y="0" type="curve"/>
      <point x="79" y="597.602" type="line" smooth="yes"/>
      <point x="79" y="620.981"/>
      <point x="97.9492" y="639.931"/>
      <point x="121.329" y="639.931" type="curve"/>
      <point x="121.329" y="341.13" type="line"/>
      <point x="516.626" y="341.13" type="line"/>
    </contour>
  </outline>
</glyph>
<glyph name="I" format="2">
  <advance width="201"/>
  <unicode hex="0049"/>
  <outline>
    <contour>
      <point x="79" y="597.607" type="line" smooth="yes"/>
      <point x="79" y="620.987"/>
      <point x="97.9492" y="639.937"/>
      <point x="121.329" y="639.937" type="curve"/>
      <point x="121.329" y="42.335" type="line" smooth="yes"/>
      <point x="121.329" y="18.9551"/>
      <point x="102.38" y="0.00585938"/>
      <point x="79" y="0.00585938" type="curve"/>
    </contour>
  </outline>
</glyph>
<glyph name="J" format="2">
  <advance width="440"/>
  <unicode hex="004A"/>
  <outline>
    <contour>
      <point x="195.304" y="638.965" type="curve"/>
      <point x="344.4" y="638.964" type="line" smooth="yes"/>
      <point x="356.083" y="638.964"/>
      <point x="365.564" y="629.482"/>
      <point x="365.564" y="617.8" type="curve" smooth="yes"/>
      <point x="365.564" y="175.434" type="line" smooth="yes"/>
      <point x="365.564" y="86.8105"/>
      <point x="299.926" y="9.25"/>
      <point x="211.698" y="0.939453" type="curve" smooth="yes"/>
      <point x="110.461" y="-8.58496"/>
      <point x="24.999" y="71.1484"/>
      <point x="24.999" y="170.452" type="curve"/>
      <point x="47.0664" y="170.452"/>
      <point x="66.2559" y="155.764"/>
      <point x="72.4502" y="134.585" type="curve" smooth="yes"/>
      <point x="88.7754" y="78.7812"/>
      <point x="142.166" y="38.6396"/>
      <point x="204.051" y="42.7881" type="curve" smooth="yes"/>
      <point x="271.989" y="47.3311"/>
      <point x="323.25" y="106.874"/>
      <point x="323.25" y="174.968" type="curve" smooth="yes"/>
      <point x="323.25" y="596.636" type="line"/>
      <point x="237.633" y="596.636" type="line" smooth="yes"/>
      <point x="214.253" y="596.636"/>
      <point x="195.304" y="615.585"/>
    </contour>
  </outline>
</glyph>
<glyph name="L" format="2">
  <advance width="412"/>
  <unicode hex="004C"/>
  <outline>
    <contour>
      <point x="356.65" y="42.335" type="line" smooth="yes"/>
      <point x="380.03" y="42.335"/>
      <point x="398.979" y="23.3857"/>
      <point x="398.979" y="0.00585938" type="curve"/>
      <point x="100.179" y="0.00585938" type="line" smooth="yes"/>
      <point x="88.4814" y="0.00585938"/>
      <point x="79" y="9.47363"/>
      <point x="79" y="21.1709" type="curve" smooth="yes"/>
      <point x="79" y="639.937" type="line"/>
      <point x="102.38" y="639.937"/>
      <point x="121.344" y="620.987"/>
      <point x="121.344" y="597.607" type="curve" smooth="yes"/>
      <point x="121.344" y="42.335" type="line"/>
    </contour>
  </outline>
</glyph>
<glyph name="M" format="2">
  <advance width="735"/>
  <unicode hex="004D"/>
  <outline>
    <contour>
      <point x="542.701" y="624.966" type="curve" smooth="yes"/>
      <point x="704.567" y="-0.428711" type="line"/>
      <point x="678.831" y="-0.428711"/>
      <point x="656.34" y="16.9824"/>
      <point x="649.892" y="41.9004" type="curve" smooth="yes"/>
      <point x="518.686" y="548.861" type="line"/>
      <point x="383.98" y="183.181" type="line" smooth="yes"/>
      <point x="380.904" y="174.87"/>
      <point x="372.989" y="169.339"/>
      <point x="364.114" y="169.339" type="curve" smooth="yes"/>
      <point x="355.239" y="169.339"/>
      <point x="347.31" y="174.855"/>
      <point x="344.248" y="183.18" type="curve" smooth="yes"/>
      <point x="209.994" y="547.604" type="line"/>
      <point x="85.0527" y="41.8857" type="line" smooth="yes"/>
      <point x="78.915" y="17.0244"/>
      <point x="56.6074" y="-0.443359"/>
      <point x="30.998" y="-0.443359" type="curve"/>
      <point x="185.457" y="624.742" type="line" smooth="yes"/>
      <point x="187.687" y="633.772"/>
      <point x="195.546" y="640.291"/>
      <point x="204.83" y="640.799" type="curve" smooth="yes"/>
      <point x="213.959" y="641.222"/>
      <point x="222.65" y="635.719"/>
      <point x="225.867" y="626.984" type="curve" smooth="yes"/>
      <point x="364.114" y="251.724" type="line"/>
      <point x="502.361" y="626.984" type="line" smooth="yes"/>
      <point x="505.564" y="635.662"/>
      <point x="514.228" y="641.362"/>
      <point x="523.271" y="640.798" type="curve" smooth="yes"/>
      <point x="532.514" y="640.332"/>
      <point x="540.373" y="633.926"/>
    </contour>
  </outline>
</glyph>
<glyph name="N" format="2">
  <advance width="683"/>
  <unicode hex="004E"/>
  <outline>
    <contour>
      <point x="559.94" y="597.607" type="line" smooth="yes"/>
      <point x="559.94" y="620.987"/>
      <point x="578.903" y="639.938"/>
      <point x="602.283" y="639.938" type="curve"/>
      <point x="602.283" y="20.8477" type="line" smooth="yes"/>
      <point x="602.283" y="11.874"/>
      <point x="596.625" y="3.85938"/>
      <point x="588.146" y="0.881836" type="curve" smooth="yes"/>
      <point x="585.831" y="0.0771484"/>
      <point x="583.461" y="-0.318359"/>
      <point x="581.119" y="-0.318359" type="curve" smooth="yes"/>
      <point x="574.826" y="-0.318359"/>
      <point x="568.717" y="2.48926"/>
      <point x="564.625" y="7.58301" type="curve" smooth="yes"/>
      <point x="122.329" y="557.79" type="line"/>
      <point x="122.329" y="42.335" type="line" smooth="yes"/>
      <point x="122.329" y="18.9551"/>
      <point x="103.38" y="0.00585938"/>
      <point x="80" y="0.00585938" type="curve"/>
      <point x="80" y="617.896" type="line" smooth="yes"/>
      <point x="80" y="626.87"/>
      <point x="85.6582" y="634.885"/>
      <point x="94.1377" y="637.862" type="curve" smooth="yes"/>
      <point x="102.632" y="640.84"/>
      <point x="112.043" y="638.145"/>
      <point x="117.658" y="631.16" type="curve" smooth="yes"/>
      <point x="559.94" y="80.9531" type="line"/>
    </contour>
  </outline>
</glyph>
<glyph name="O" format="2">
  <advance width="734"/>
  <unicode hex="004F"/>
  <outline>
    <contour>
      <point x="366.965" y="639.484" type="curve" smooth="yes"/>
      <point x="543.688" y="639.484"/>
      <point x="686.931" y="496.229"/>
      <point x="686.931" y="319.519" type="curve" smooth="yes"/>
      <point x="686.931" y="142.809"/>
      <point x="543.675" y="-0.447266"/>
      <point x="366.965" y="-0.447266" type="curve" smooth="yes"/>
      <point x="190.255" y="-0.447266"/>
      <point x="46.999" y="142.809"/>
      <point x="46.999" y="319.519" type="curve" smooth="yes"/>
      <point x="46.999" y="496.229"/>
      <point x="190.255" y="639.484"/>
    </contour>
    <contour>
      <point x="366.966" y="41.8828" type="curve" smooth="yes"/>
      <point x="520.056" y="41.8828"/>
      <point x="644.602" y="166.429"/>
      <point x="644.602" y="319.519" type="curve" smooth="yes"/>
      <point x="644.602" y="472.608"/>
      <point x="520.056" y="597.154"/>
      <point x="366.966" y="597.154" type="curve" smooth="yes"/>
      <point x="213.876" y="597.154"/>
      <point x="89.3301" y="472.608"/>
      <point x="89.3301" y="319.519" type="curve" smooth="yes"/>
      <point x="89.3301" y="166.429"/>
      <point x="213.876" y="41.8828"/>
    </contour>
  </outline>
</glyph>
<glyph name="P" format="2">
  <advance width="613"/>
  <unicode hex="0050"/>
  <outline>
    <contour>
      <point x="395.041" y="639.88" type="line" smooth="yes"/>
      <point x="494.909" y="639.88"/>
      <point x="576.167" y="558.638"/>
      <point x="576.167" y="458.755" type="curve" smooth="yes"/>
      <point x="576.167" y="358.872"/>
      <point x="494.909" y="277.614"/>
      <point x="395.026" y="277.614" type="curve" smooth="yes"/>
      <point x="122.329" y="277.614" type="line"/>
      <point x="122.329" y="41.8984" type="line" smooth="yes"/>
      <point x="122.329" y="18.5186"/>
      <point x="103.38" y="-0.430664"/>
      <point x="80" y="-0.430664" type="curve"/>
      <point x="80" y="615.414" type="line" smooth="yes"/>
      <point x="80" y="628.705"/>
      <point x="90.7803" y="639.484"/>
      <point x="104.071" y="639.484" type="curve" smooth="yes"/>
      <point x="109.023" y="639.484" type="line"/>
      <point x="109.023" y="639.88" type="line"/>
    </contour>
    <contour>
      <point x="395.041" y="319.93" type="line" smooth="yes"/>
      <point x="471.586" y="319.93"/>
      <point x="533.852" y="382.196"/>
      <point x="533.852" y="458.741" type="curve" smooth="yes"/>
      <point x="533.852" y="535.286"/>
      <point x="471.586" y="597.552"/>
      <point x="395.041" y="597.552" type="curve" smooth="yes"/>
      <point x="122.344" y="597.552" type="line"/>
      <point x="122.344" y="319.93" type="line"/>
    </contour>
  </outline>
</glyph>
<glyph name="Q" format="2">
  <advance width="589"/>
  <unicode hex="0051"/>
  <outline>
    <contour>
      <point x="495.256" y="45.6504" type="curve" smooth="yes"/>
      <point x="516.393" y="41.1211"/>
      <point x="531.897" y="23.1602"/>
      <point x="531.757" y="1.54395" type="curve" smooth="yes"/>
      <point x="531.743" y="0.556641"/>
      <point x="531.729" y="0.00683594"/>
      <point x="531.729" y="0.00683594" type="curve"/>
      <point x="468.236" y="0.00683594"/>
      <point x="436.292" y="21.1289"/>
      <point x="416.976" y="47.3867" type="curve"/>
      <point x="380.572" y="17.7422"/>
      <point x="337.777" y="0.641602"/>
      <point x="291.978" y="0.641602" type="curve" smooth="yes"/>
      <point x="159.445" y="0.641602"/>
      <point x="52" y="143.728"/>
      <point x="52" y="320.254" type="curve" smooth="yes"/>
      <point x="52" y="496.78"/>
      <point x="159.445" y="639.881"/>
      <point x="291.978" y="639.881" type="curve" smooth="yes"/>
      <point x="424.51" y="639.881"/>
      <point x="531.955" y="496.78"/>
      <point x="531.955" y="320.254" type="curve" smooth="yes"/>
      <point x="531.955" y="222.981"/>
      <point x="499.291" y="135.925"/>
      <point x="447.819" y="77.2988" type="curve"/>
      <point x="457.484" y="62.1729"/>
      <point x="470.79" y="50.8994"/>
    </contour>
    <contour>
      <point x="291.976" y="42.9561" type="curve" smooth="yes"/>
      <point x="330.382" y="42.9561"/>
      <point x="366.123" y="58.6328"/>
      <point x="396.487" y="85.3281" type="curve" smooth="yes"/>
      <point x="395.076" y="88.6865"/>
      <point x="393.68" y="92.0303"/>
      <point x="392.354" y="95.29" type="curve" smooth="yes"/>
      <point x="379.273" y="127.361"/>
      <point x="369.256" y="152.194"/>
      <point x="328.677" y="160.9" type="curve" smooth="yes"/>
      <point x="307.47" y="165.443"/>
      <point x="291.935" y="183.518"/>
      <point x="292.16" y="205.19" type="curve" smooth="yes"/>
      <point x="292.174" y="206.079"/>
      <point x="292.188" y="206.587"/>
      <point x="292.188" y="206.587" type="curve"/>
      <point x="386.115" y="206.587"/>
      <point x="411.062" y="160.406"/>
      <point x="428.092" y="119.7" type="curve"/>
      <point x="465.905" y="170.241"/>
      <point x="489.624" y="241.354"/>
      <point x="489.624" y="320.24" type="curve" smooth="yes"/>
      <point x="489.624" y="473.146"/>
      <point x="400.959" y="597.537"/>
      <point x="291.976" y="597.537" type="curve" smooth="yes"/>
      <point x="182.992" y="597.537"/>
      <point x="94.3271" y="473.132"/>
      <point x="94.3271" y="320.239" type="curve" smooth="yes"/>
      <point x="94.3271" y="167.347"/>
      <point x="182.992" y="42.9561"/>
    </contour>
  </outline>
</glyph>
<glyph name="S" format="2">
  <advance width="644"/>
  <unicode hex="0053"/>
  <outline>
    <contour>
      <point x="324.22" y="342.35" type="curve" smooth="yes"/>
      <point x="445.489" y="324.46"/>
      <point x="582.928" y="304.2"/>
      <point x="591.468" y="172.75" type="curve" smooth="yes"/>
      <point x="591.598" y="119.96"/>
      <point x="563.117" y="76.2598"/>
      <point x="509.167" y="45.0596" type="curve" smooth="yes"/>
      <point x="457.057" y="14.9395"/>
      <point x="385.537" y="-0.200195"/>
      <point x="314.737" y="-0.200195" type="curve" smooth="yes"/>
      <point x="246.558" y="-0.200195"/>
      <point x="179.038" y="13.8496"/>
      <point x="130.198" y="42.0801" type="curve" smooth="yes"/>
      <point x="78.9785" y="71.6904"/>
      <point x="51.9287" y="113.79"/>
      <point x="51.999" y="163.85" type="curve"/>
      <point x="54.4092" y="163.85" type="line" smooth="yes"/>
      <point x="75.1689" y="163.819"/>
      <point x="92.6885" y="150.399"/>
      <point x="100.679" y="131.26" type="curve" smooth="yes"/>
      <point x="109.159" y="110.91"/>
      <point x="126.1" y="93.3301"/>
      <point x="151.369" y="78.7305" type="curve" smooth="yes"/>
      <point x="193.819" y="54.2002"/>
      <point x="253.899" y="42.0098"/>
      <point x="314.649" y="42.0098" type="curve" smooth="yes"/>
      <point x="378.1" y="42.0098"/>
      <point x="442.3" y="55.29"/>
      <point x="487.99" y="81.7002" type="curve" smooth="yes"/>
      <point x="528.65" y="105.23"/>
      <point x="549.25" y="135.391"/>
      <point x="549.2" y="171.36" type="curve" smooth="yes"/>
      <point x="543.37" y="260.54"/>
      <point x="453.87" y="280.45"/>
      <point x="318.04" y="300.48" type="curve" smooth="yes"/>
      <point x="197.53" y="318.24"/>
      <point x="60.9199" y="338.391"/>
      <point x="52.0596" y="468.171" type="curve" smooth="yes"/>
      <point x="51.9297" y="519.991"/>
      <point x="79.8701" y="562.841"/>
      <point x="132.82" y="593.451" type="curve" smooth="yes"/>
      <point x="184.79" y="623.491"/>
      <point x="256.2" y="638.571"/>
      <point x="327.03" y="638.571" type="curve" smooth="yes"/>
      <point x="395.92" y="638.571"/>
      <point x="464.27" y="624.321"/>
      <point x="513.8" y="595.682" type="curve" smooth="yes"/>
      <point x="564.75" y="566.222"/>
      <point x="591.61" y="524.491"/>
      <point x="591.53" y="475.041" type="curve"/>
      <point x="588.521" y="475.041" type="line" smooth="yes"/>
      <point x="568.091" y="475.081"/>
      <point x="550.831" y="488.271"/>
      <point x="542.921" y="507.111" type="curve" smooth="yes"/>
      <point x="534.511" y="527.131"/>
      <point x="517.69" y="544.521"/>
      <point x="492.62" y="559.021" type="curve" smooth="yes"/>
      <point x="449.54" y="583.94"/>
      <point x="388.59" y="596.341"/>
      <point x="327.109" y="596.341" type="curve" smooth="yes"/>
      <point x="263.619" y="596.341"/>
      <point x="199.56" y="583.121"/>
      <point x="154.01" y="556.791" type="curve" smooth="yes"/>
      <point x="114.35" y="533.881"/>
      <point x="94.29" y="504.561"/>
      <point x="94.3398" y="469.641" type="curve" smooth="yes"/>
      <point x="100.38" y="381.94"/>
      <point x="189.29" y="362.25"/>
    </contour>
  </outline>
</glyph>
<glyph name="T" format="2">
  <advance width="640"/>
  <unicode hex="0054"/>
  <outline>
    <contour>
      <point x="122.329" y="640.988" type="curve" smooth="yes"/>
      <point x="559.955" y="640.988" type="line"/>
      <point x="559.955" y="617.608"/>
      <point x="541.006" y="598.659"/>
      <point x="517.626" y="598.659" type="curve" smooth="yes"/>
      <point x="341.128" y="598.659" type="line"/>
      <point x="341.128" y="42.3291" type="line" smooth="yes"/>
      <point x="341.128" y="18.9492"/>
      <point x="322.179" y="0"/>
      <point x="298.799" y="-0" type="curve"/>
      <point x="298.799" y="598.659" type="line"/>
      <point x="80" y="598.659" type="line"/>
      <point x="80" y="622.039"/>
      <point x="98.9492" y="640.988"/>
    </contour>
  </outline>
</glyph>
<glyph name="U" format="2">
  <advance width="630"/>
  <unicode hex="0055"/>
  <outline>
    <contour>
      <point x="518" y="597" type="line" smooth="yes"/>
      <point x="518" y="621"/>
      <point x="537" y="639"/>
      <point x="560" y="639" type="curve"/>
      <point x="560" y="245" type="line" smooth="yes"/>
      <point x="560" y="111"/>
      <point x="452" y="2"/>
      <point x="319" y="0" type="curve" smooth="yes"/>
      <point x="317.266" y="-0.0380859"/>
      <point x="315.536" y="-0.0566406"/>
      <point x="313.811" y="-0.0566406" type="curve" smooth="yes"/>
      <point x="178.203" y="-0.0566406"/>
      <point x="69" y="115.734"/>
      <point x="69" y="252" type="curve" smooth="yes"/>
      <point x="69" y="597" type="line" smooth="yes"/>
      <point x="69" y="621"/>
      <point x="88" y="639"/>
      <point x="111" y="639" type="curve"/>
      <point x="111" y="251" type="line" smooth="yes"/>
      <point x="111" y="142"/>
      <point x="195" y="47"/>
      <point x="304" y="42" type="curve" smooth="yes"/>
      <point x="307.553" y="41.8174"/>
      <point x="311.087" y="41.7275"/>
      <point x="314.601" y="41.7275" type="curve" smooth="yes"/>
      <point x="426.801" y="41.7275"/>
      <point x="518" y="133.492"/>
      <point x="518" y="245" type="curve" smooth="yes"/>
    </contour>
  </outline>
</glyph>
<glyph name="V" format="2">
  <advance width="664"/>
  <unicode hex="0056"/>
  <outline>
    <contour>
      <point x="579.454" y="597.593" type="line" smooth="yes"/>
      <point x="591.616" y="623.428"/>
      <point x="617.621" y="639.936"/>
      <point x="646.179" y="639.936" type="curve"/>
      <point x="350.708" y="12.1396" type="line" smooth="yes"/>
      <point x="347.223" y="4.71777"/>
      <point x="339.759" y="-0.00878906"/>
      <point x="331.562" y="-0.00878906" type="curve" smooth="yes"/>
      <point x="323.364" y="-0.00878906"/>
      <point x="315.914" y="4.71777"/>
      <point x="312.415" y="12.1396" type="curve" smooth="yes"/>
      <point x="17.001" y="639.922" type="line"/>
      <point x="45.5586" y="639.922"/>
      <point x="71.5488" y="623.441"/>
      <point x="83.7109" y="597.593" type="curve" smooth="yes"/>
      <point x="331.575" y="70.8643" type="line"/>
    </contour>
  </outline>
</glyph>
<glyph name="W" format="2">
  <advance width="815"/>
  <unicode hex="0057"/>
  <outline>
    <contour>
      <point x="679.873" y="598.659" type="line" smooth="yes"/>
      <point x="686.448" y="623.605"/>
      <point x="708.995" y="640.987"/>
      <point x="734.802" y="640.987" type="curve"/>
      <point x="570.085" y="15.7734" type="line" smooth="yes"/>
      <point x="567.63" y="6.47559"/>
      <point x="559.221" y="-0.000976562"/>
      <point x="549.612" y="-0.000976562" type="curve" smooth="yes"/>
      <point x="540.004" y="-0.000976562"/>
      <point x="531.595" y="6.47559"/>
      <point x="529.14" y="15.7734" type="curve" smooth="yes"/>
      <point x="407.401" y="477.852" type="line"/>
      <point x="285.663" y="15.7881" type="line" smooth="yes"/>
      <point x="283.208" y="6.49023"/>
      <point x="274.799" y="0.0136719"/>
      <point x="265.19" y="0.0136719" type="curve" smooth="yes"/>
      <point x="255.582" y="0.0136719"/>
      <point x="247.173" y="6.49023"/>
      <point x="244.718" y="15.7881" type="curve" smooth="yes"/>
      <point x="80.001" y="640.988" type="line"/>
      <point x="105.808" y="640.988"/>
      <point x="128.354" y="623.605"/>
      <point x="134.93" y="598.659" type="curve" smooth="yes"/>
      <point x="265.19" y="104.256" type="line"/>
      <point x="386.929" y="566.319" type="line" smooth="yes"/>
      <point x="389.384" y="575.617"/>
      <point x="397.793" y="582.094"/>
      <point x="407.401" y="582.094" type="curve" smooth="yes"/>
      <point x="417.01" y="582.094"/>
      <point x="425.419" y="575.617"/>
      <point x="427.874" y="566.319" type="curve" smooth="yes"/>
      <point x="549.612" y="104.256" type="line"/>
    </contour>
  </outline>
</glyph>
<glyph name="Y" format="2">
  <advance width="543"/>
  <unicode hex="0059"/>
  <outline>
    <contour>
      <point x="530.869" y="639.937" type="curve"/>
      <point x="292.6" y="313.071" type="line"/>
      <point x="292.6" y="42.335" type="line" smooth="yes"/>
      <point x="292.6" y="18.9551"/>
      <point x="273.65" y="0.00585938"/>
      <point x="250.271" y="0.00585938" type="curve"/>
      <point x="250.271" y="313.071" type="line"/>
      <point x="12" y="639.937" type="line"/>
      <point x="44.918" y="639.937"/>
      <point x="75.8467" y="624.204"/>
      <point x="95.2334" y="597.607" type="curve" smooth="yes"/>
      <point x="271.435" y="355.895" type="line"/>
      <point x="447.636" y="597.607" type="line" smooth="yes"/>
      <point x="467.022" y="624.204"/>
      <point x="497.951" y="639.937"/>
    </contour>
  </outline>
</glyph>
<glyph name="Z" format="2">
  <advance width="666"/>
  <unicode hex="005A"/>
  <outline>
    <contour>
      <point x="543" y="44" type="line" smooth="yes"/>
      <point x="567" y="44"/>
      <point x="586" y="24"/>
      <point x="586" y="0" type="curve"/>
      <point x="101" y="0" type="line" smooth="yes"/>
      <point x="93" y="0"/>
      <point x="86" y="5"/>
      <point x="82" y="12" type="curve" smooth="yes"/>
      <point x="79" y="19"/>
      <point x="79" y="28"/>
      <point x="84" y="34" type="curve" smooth="yes"/>
      <point x="522" y="598" type="line"/>
      <point x="106" y="598" type="line"/>
      <point x="106" y="622"/>
      <point x="125" y="641"/>
      <point x="148" y="641" type="curve" smooth="yes"/>
      <point x="565" y="641" type="line" smooth="yes"/>
      <point x="573" y="641"/>
      <point x="580" y="636"/>
      <point x="584" y="629" type="curve" smooth="yes"/>
      <point x="587" y="622"/>
      <point x="586" y="613"/>
      <point x="581" y="607" type="curve" smooth="yes"/>
      <point x="144" y="42" type="line"/>
    </contour>
  </outline>
</glyph>
<glyph name="bracketleft" format="2">
  <advance width="246"/>
  <unicode hex="005B"/>
  <outline>
    <contour>
      <point x="157.591" y="594.537" type="curve" smooth="yes"/>
      <point x="136.525" y="587.355"/>
      <point x="121.329" y="567.345"/>
      <point x="121.329" y="543.866" type="curve" smooth="yes"/>
      <point x="121.329" y="95.9824" type="line" smooth="yes"/>
      <point x="121.329" y="72.5039"/>
      <point x="136.539" y="52.5107"/>
      <point x="157.604" y="45.3291" type="curve" smooth="yes"/>
      <point x="167.665" y="41.8867"/>
      <point x="174.818" y="32.9697"/>
      <point x="174.818" y="22.3311" type="curve" smooth="yes"/>
      <point x="174.818" y="0.249023" type="line" smooth="yes"/>
      <point x="174.818" y="0.192383"/>
      <point x="174.776" y="0.150391"/>
      <point x="174.72" y="0.150391" type="curve" smooth="yes"/>
      <point x="121.936" y="0.207031"/>
      <point x="79" y="43.1855"/>
      <point x="79" y="95.9844" type="curve" smooth="yes"/>
      <point x="79" y="543.868" type="line" smooth="yes"/>
      <point x="79" y="596.681"/>
      <point x="121.936" y="639.645"/>
      <point x="174.72" y="639.701" type="curve" smooth="yes"/>
      <point x="174.776" y="639.701"/>
      <point x="174.818" y="639.603"/>
      <point x="174.818" y="639.603" type="curve"/>
      <point x="174.818" y="617.535" type="line" smooth="yes"/>
      <point x="174.818" y="606.896"/>
      <point x="167.665" y="597.979"/>
    </contour>
  </outline>
</glyph>
<glyph name="backslash" format="2">
  <advance width="329"/>
  <unicode hex="005C"/>
  <outline>
    <contour>
      <point x="115" y="598" type="curve" smooth="yes"/>
      <point x="265" y="1" type="line"/>
      <point x="261.7" y="0.282227"/>
      <point x="258.4" y="-0.0644531"/>
      <point x="255.154" y="-0.0644531" type="curve" smooth="yes"/>
      <point x="235.771" y="-0.0644531"/>
      <point x="218.282" y="12.2998"/>
      <point x="214" y="32" type="curve" smooth="yes"/>
      <point x="64" y="628" type="line"/>
      <point x="67.6211" y="628.944"/>
      <point x="71.2422" y="629.394"/>
      <point x="74.793" y="629.394" type="curve" smooth="yes"/>
      <point x="93.7959" y="629.394"/>
      <point x="110.787" y="616.536"/>
    </contour>
  </outline>
</glyph>
<glyph name="asciicircum" format="2">
  <advance width="378"/>
  <unicode hex="005E"/>
  <outline>
    <contour>
      <point x="207.86" y="544.66" type="curve" smooth="yes"/>
      <point x="327.84" y="304.521" type="line"/>
      <point x="306.93" y="294.08"/>
      <point x="281.51" y="302.561"/>
      <point x="271.069" y="323.471" type="curve" smooth="yes"/>
      <point x="188.919" y="487.851" type="line"/>
      <point x="106.789" y="323.471" type="line" smooth="yes"/>
      <point x="96.3291" y="302.561"/>
      <point x="70.9092" y="294.08"/>
      <point x="49.999" y="304.521" type="curve"/>
      <point x="169.989" y="544.66" type="line" smooth="yes"/>
      <point x="173.569" y="551.84"/>
      <point x="180.89" y="556.37"/>
      <point x="188.92" y="556.37" type="curve" smooth="yes"/>
      <point x="196.95" y="556.37"/>
      <point x="204.271" y="551.82"/>
    </contour>
  </outline>
</glyph>
<glyph name="underscore" format="2">
  <advance width="559"/>
  <unicode hex="005F"/>
  <outline>
    <contour>
      <point x="82.3291" y="42.3291" type="curve" smooth="yes"/>
      <point x="519.955" y="42.3291" type="line"/>
      <point x="519.955" y="18.9492"/>
      <point x="501.006" y="0"/>
      <point x="477.626" y="0" type="curve" smooth="yes"/>
      <point x="40" y="0" type="line"/>
      <point x="40" y="23.3799"/>
      <point x="58.9492" y="42.3291"/>
    </contour>
  </outline>
</glyph>
<glyph name="grave" format="2">
  <advance width="141"/>
  <unicode hex="0060"/>
  <outline>
    <contour>
      <point x="80.8096" y="526.33" type="curve" smooth="yes"/>
      <point x="101.87" y="484.21" type="line"/>
      <point x="80.9502" y="473.75"/>
      <point x="55.5205" y="482.23"/>
      <point x="45.0703" y="503.141" type="curve" smooth="yes"/>
      <point x="24" y="545.261" type="line"/>
      <point x="44.9199" y="555.721"/>
      <point x="70.3496" y="547.24"/>
    </contour>
  </outline>
</glyph>
<glyph name="a" format="2">
  <advance width="599"/>
  <unicode hex="0061"/>
  <outline>
    <contour>
      <point x="484.626" y="438.008" type="line" smooth="yes"/>
      <point x="484.626" y="461.388"/>
      <point x="503.575" y="480.339"/>
      <point x="526.955" y="480.339" type="curve"/>
      <point x="526.955" y="42.7129" type="line" smooth="yes"/>
      <point x="526.955" y="19.333"/>
      <point x="508.006" y="0.383789"/>
      <point x="484.626" y="0.383789" type="curve"/>
      <point x="484.626" y="104.386" type="line"/>
      <point x="441.338" y="41.5977"/>
      <point x="368.998" y="0.382812"/>
      <point x="286.979" y="0.382812" type="curve" smooth="yes"/>
      <point x="154.433" y="0.382812"/>
      <point x="47.002" y="107.828"/>
      <point x="47.002" y="240.36" type="curve" smooth="yes"/>
      <point x="47.002" y="372.893"/>
      <point x="154.433" y="480.323"/>
      <point x="286.979" y="480.337" type="curve" smooth="yes"/>
      <point x="369.012" y="480.337"/>
      <point x="441.352" y="439.122"/>
      <point x="484.626" y="376.334" type="curve"/>
    </contour>
    <contour>
      <point x="286.978" y="42.7129" type="curve" smooth="yes"/>
      <point x="395.961" y="42.7129"/>
      <point x="484.626" y="131.378"/>
      <point x="484.626" y="240.361" type="curve" smooth="yes"/>
      <point x="484.626" y="349.345"/>
      <point x="395.961" y="438.01"/>
      <point x="286.978" y="438.01" type="curve" smooth="yes"/>
      <point x="177.994" y="438.01"/>
      <point x="89.3291" y="349.345"/>
      <point x="89.3291" y="240.361" type="curve" smooth="yes"/>
      <point x="89.3291" y="131.378"/>
      <point x="177.994" y="42.7129"/>
    </contour>
  </outline>
</glyph>
<glyph name="b" format="2">
  <advance width="602"/>
  <unicode hex="0062"/>
  <outline>
    <contour>
      <point x="314.263" y="46.2949" type="curve" smooth="yes"/>
      <point x="423.246" y="46.2949"/>
      <point x="511.911" y="134.96"/>
      <point x="511.911" y="243.943" type="curve" smooth="yes"/>
      <point x="511.911" y="352.927"/>
      <point x="423.246" y="441.592"/>
      <point x="314.263" y="441.592" type="curve" smooth="yes"/>
      <point x="205.279" y="441.592"/>
      <point x="116.614" y="352.927"/>
      <point x="116.614" y="243.943" type="curve" smooth="yes"/>
      <point x="116.614" y="134.96"/>
      <point x="205.279" y="46.2949"/>
    </contour>
    <contour>
      <point x="314.263" y="483.92" type="curve" smooth="yes"/>
      <point x="446.795" y="483.92"/>
      <point x="554.24" y="376.489"/>
      <point x="554.24" y="243.957" type="curve" smooth="yes"/>
      <point x="554.24" y="111.425"/>
      <point x="446.795" y="3.97949"/>
      <point x="314.263" y="3.97949" type="curve" smooth="yes"/>
      <point x="230.775" y="3.97949"/>
      <point x="157.32" y="46.6611"/>
      <point x="114.328" y="111.34" type="curve"/>
      <point x="114.328" y="42.7246" type="line" smooth="yes"/>
      <point x="114.328" y="19.3447"/>
      <point x="95.3789" y="0.395508"/>
      <point x="71.999" y="0.395508" type="curve"/>
      <point x="71.999" y="597.997" type="line" smooth="yes"/>
      <point x="71.999" y="621.377"/>
      <point x="90.9482" y="640.326"/>
      <point x="114.328" y="640.326" type="curve"/>
      <point x="114.328" y="376.56" type="line"/>
      <point x="157.307" y="441.238"/>
      <point x="230.775" y="483.92"/>
    </contour>
  </outline>
</glyph>
<glyph name="c" format="2">
  <advance width="502"/>
  <unicode hex="0063"/>
  <outline>
    <contour>
      <point x="405.005" y="81.3691" type="curve" smooth="yes"/>
      <point x="423.234" y="95.0273"/>
      <point x="448.291" y="94.6445"/>
      <point x="465.251" y="79.4629" type="curve"/>
      <point x="419.817" y="28.71"/>
      <point x="354.729" y="-0.398438"/>
      <point x="286.65" y="-0.398438" type="curve" smooth="yes"/>
      <point x="154.499" y="-0.398438"/>
      <point x="46.9971" y="107.089"/>
      <point x="46.9971" y="239.24" type="curve" smooth="yes"/>
      <point x="46.9971" y="371.392"/>
      <point x="154.499" y="478.894"/>
      <point x="286.65" y="478.894" type="curve" smooth="yes"/>
      <point x="354.744" y="478.894"/>
      <point x="419.832" y="449.771"/>
      <point x="465.266" y="399.019" type="curve"/>
      <point x="448.306" y="383.822"/>
      <point x="423.232" y="383.455"/>
      <point x="405.003" y="397.1" type="curve" smooth="yes"/>
      <point x="349.129" y="438.949"/>
      <point x="272.542" y="450.054"/>
      <point x="202.967" y="418.039" type="curve" smooth="yes"/>
      <point x="143.522" y="390.694"/>
      <point x="101.18" y="334.002"/>
      <point x="91.5713" y="269.281" type="curve" smooth="yes"/>
      <point x="73.4404" y="147.219"/>
      <point x="167.976" y="41.918"/>
      <point x="286.652" y="41.918" type="curve" smooth="yes"/>
      <point x="329.603" y="41.918"/>
      <point x="371.113" y="55.9854"/>
    </contour>
  </outline>
</glyph>
<glyph name="d" format="2">
  <advance width="599"/>
  <unicode hex="0064"/>
  <outline>
    <contour>
      <point x="526.955" y="240.345" type="curve" smooth="yes"/>
      <point x="526.955" y="240.316"/>
      <point x="526.955" y="42.6973"/>
      <point x="526.955" y="42.6973" type="curve" smooth="yes"/>
      <point x="526.955" y="19.3174"/>
      <point x="508.006" y="0.368164"/>
      <point x="484.626" y="0.368164" type="curve"/>
      <point x="484.626" y="104.37" type="line"/>
      <point x="441.338" y="41.582"/>
      <point x="369.012" y="0.367188"/>
      <point x="286.979" y="0.367188" type="curve" smooth="yes"/>
      <point x="154.446" y="0.367188"/>
      <point x="47.001" y="107.812"/>
      <point x="47.001" y="240.345" type="curve" smooth="yes"/>
      <point x="47.001" y="372.877"/>
      <point x="154.446" y="480.322"/>
      <point x="286.979" y="480.322" type="curve" smooth="yes"/>
      <point x="369.012" y="480.322"/>
      <point x="441.352" y="439.107"/>
      <point x="484.626" y="376.319" type="curve"/>
      <point x="484.626" y="597.996" type="line" smooth="yes"/>
      <point x="484.626" y="621.376"/>
      <point x="503.575" y="640.325"/>
      <point x="526.955" y="640.325" type="curve"/>
      <point x="526.955" y="240.415" type="line" smooth="yes"/>
      <point x="526.955" y="240.387"/>
      <point x="526.955" y="240.345"/>
    </contour>
    <contour>
      <point x="286.978" y="42.6973" type="curve" smooth="yes"/>
      <point x="395.946" y="42.6973"/>
      <point x="484.584" y="131.32"/>
      <point x="484.626" y="240.275" type="curve" smooth="yes"/>
      <point x="484.626" y="240.416" type="line" smooth="yes"/>
      <point x="484.584" y="349.371"/>
      <point x="395.961" y="437.994"/>
      <point x="286.978" y="437.994" type="curve" smooth="yes"/>
      <point x="177.994" y="437.994"/>
      <point x="89.3291" y="349.329"/>
      <point x="89.3291" y="240.346" type="curve" smooth="yes"/>
      <point x="89.3291" y="131.362"/>
      <point x="177.994" y="42.6973"/>
    </contour>
  </outline>
</glyph>
<glyph name="e" format="2">
  <advance width="571"/>
  <unicode hex="0065"/>
  <outline>
    <contour>
      <point x="449.152" y="127.58" type="curve" smooth="yes"/>
      <point x="463.093" y="147.6"/>
      <point x="485.184" y="160.361"/>
      <point x="509.573" y="160.361" type="curve" smooth="yes"/>
      <point x="513.063" y="160.361" type="line"/>
      <point x="480.123" y="67.1309"/>
      <point x="391.473" y="0.230469"/>
      <point x="286.982" y="0.230469" type="curve" smooth="yes"/>
      <point x="145.442" y="0.230469"/>
      <point x="32.5225" y="122.74"/>
      <point x="48.5127" y="267.51" type="curve" smooth="yes"/>
      <point x="60.6426" y="377.55"/>
      <point x="149.593" y="466.49"/>
      <point x="259.633" y="478.66" type="curve" smooth="yes"/>
      <point x="404.402" y="494.66"/>
      <point x="526.942" y="381.74"/>
      <point x="526.942" y="240.2" type="curve"/>
      <point x="493.782" y="240.19" type="line"/>
      <point x="89.3125" y="240.19" type="line"/>
      <point x="89.3125" y="131.21"/>
      <point x="177.982" y="42.5596"/>
      <point x="286.963" y="42.5596" type="curve" smooth="yes"/>
      <point x="354.103" y="42.5596"/>
      <point x="413.442" y="76.25"/>
    </contour>
    <contour>
      <point x="286.963" y="437.853" type="curve" smooth="yes"/>
      <point x="192.513" y="437.853"/>
      <point x="113.434" y="371.213"/>
      <point x="93.9834" y="282.522" type="curve"/>
      <point x="479.934" y="282.522" type="line"/>
      <point x="460.483" y="371.232"/>
      <point x="381.413" y="437.853"/>
    </contour>
  </outline>
</glyph>
<glyph name="f" format="2">
  <advance width="295"/>
  <unicode hex="0066"/>
  <outline>
    <contour>
      <point x="234.92" y="597.983" type="curve" smooth="yes"/>
      <point x="180.386" y="597.983"/>
      <point x="136.165" y="553.764"/>
      <point x="136.165" y="499.229" type="curve" smooth="yes"/>
      <point x="136.165" y="480.322" type="line"/>
      <point x="274.962" y="480.322" type="line"/>
      <point x="274.962" y="456.942"/>
      <point x="256.013" y="437.993"/>
      <point x="232.633" y="437.993" type="curve" smooth="yes"/>
      <point x="136.165" y="437.993" type="line"/>
      <point x="136.165" y="42.6963" type="line" smooth="yes"/>
      <point x="136.165" y="19.3164"/>
      <point x="117.216" y="0.367188"/>
      <point x="93.8359" y="0.367188" type="curve"/>
      <point x="93.8359" y="438.007" type="line"/>
      <point x="34.999" y="438.007" type="line"/>
      <point x="34.999" y="461.387"/>
      <point x="53.9482" y="480.336"/>
      <point x="77.3281" y="480.336" type="curve" smooth="yes"/>
      <point x="93.8369" y="480.336" type="line"/>
      <point x="93.8369" y="499.243" type="line" smooth="yes"/>
      <point x="93.8369" y="577.157"/>
      <point x="157.006" y="640.326"/>
      <point x="234.92" y="640.326" type="curve" smooth="yes"/>
      <point x="274.991" y="640.326" type="line"/>
      <point x="274.991" y="638.055" type="line" smooth="yes"/>
      <point x="274.991" y="615.917"/>
      <point x="257.044" y="597.983"/>
    </contour>
  </outline>
</glyph>
<glyph name="g" format="2">
  <advance width="579"/>
  <unicode hex="0067"/>
  <outline>
    <contour>
      <point x="297.104" y="-41.8506" type="curve" smooth="yes"/>
      <point x="178.286" y="-41.8506"/>
      <point x="99.4551" y="-88.5957"/>
      <point x="99.4551" y="-119.51" type="curve" smooth="yes"/>
      <point x="99.4551" y="-150.424"/>
      <point x="178.286" y="-197.169"/>
      <point x="297.104" y="-197.169" type="curve" smooth="yes"/>
      <point x="415.921" y="-197.169"/>
      <point x="494.752" y="-150.424"/>
      <point x="494.752" y="-119.51" type="curve" smooth="yes"/>
      <point x="494.752" y="-88.5957"/>
      <point x="415.921" y="-41.8506"/>
    </contour>
    <contour>
      <point x="99.4551" y="321.389" type="curve" smooth="yes"/>
      <point x="99.4551" y="257.613"/>
      <point x="189.969" y="203.729"/>
      <point x="297.104" y="203.729" type="curve" smooth="yes"/>
      <point x="404.238" y="203.729"/>
      <point x="494.752" y="257.613"/>
      <point x="494.752" y="321.389" type="curve" smooth="yes"/>
      <point x="494.752" y="385.164"/>
      <point x="404.238" y="439.049"/>
      <point x="297.104" y="439.049" type="curve" smooth="yes"/>
      <point x="189.969" y="439.049"/>
      <point x="99.4551" y="385.164"/>
    </contour>
    <contour>
      <point x="179.161" y="160.92" type="line" smooth="yes"/>
      <point x="135.153" y="160.92"/>
      <point x="99.3428" y="125.109"/>
      <point x="99.3428" y="81.1016" type="curve" smooth="yes"/>
      <point x="99.3428" y="37.0938"/>
      <point x="135.139" y="1.29785"/>
      <point x="179.146" y="1.29785" type="curve" smooth="yes"/>
      <point x="297.075" y="1.29785" type="line"/>
      <point x="297.075" y="0.451172" type="line"/>
      <point x="429.607" y="0.451172"/>
      <point x="537.053" y="-53.2646"/>
      <point x="537.053" y="-119.538" type="curve" smooth="yes"/>
      <point x="537.053" y="-185.812"/>
      <point x="429.607" y="-239.527"/>
      <point x="297.075" y="-239.527" type="curve" smooth="yes"/>
      <point x="164.543" y="-239.527"/>
      <point x="57.0977" y="-185.812"/>
      <point x="57.0977" y="-119.538" type="curve" smooth="yes"/>
      <point x="57.0977" y="-84.9697"/>
      <point x="86.4883" y="-53.9141"/>
      <point x="133.262" y="-32.0156" type="curve"/>
      <point x="88.5908" y="-13.8281"/>
      <point x="56.999" y="29.9824"/>
      <point x="56.999" y="81.1016" type="curve" smooth="yes"/>
      <point x="56.999" y="136.299"/>
      <point x="93.8115" y="182.987"/>
      <point x="144.169" y="198.07" type="curve"/>
      <point x="90.9893" y="227.418"/>
      <point x="57.0977" y="271.751"/>
      <point x="57.0977" y="321.375" type="curve" smooth="yes"/>
      <point x="57.0977" y="409.729"/>
      <point x="164.543" y="481.364"/>
      <point x="297.075" y="481.364" type="curve" smooth="yes"/>
      <point x="297.541" y="481.364"/>
      <point x="297.992" y="481.322"/>
      <point x="298.458" y="481.322" type="curve"/>
      <point x="298.458" y="481.576" type="line"/>
      <point x="538.436" y="481.576" type="line"/>
      <point x="538.436" y="458.196"/>
      <point x="519.486" y="439.247"/>
      <point x="496.106" y="439.247" type="curve" smooth="yes"/>
      <point x="458.97" y="439.247" type="line"/>
      <point x="506.858" y="409.998"/>
      <point x="537.067" y="368.093"/>
      <point x="537.067" y="321.39" type="curve" smooth="yes"/>
      <point x="537.067" y="233.021"/>
      <point x="429.622" y="161.399"/>
      <point x="297.09" y="161.399" type="curve"/>
      <point x="297.09" y="160.92" type="line"/>
    </contour>
  </outline>
</glyph>
<glyph name="h" format="2">
  <advance width="576"/>
  <unicode hex="0068"/>
  <outline>
    <contour>
      <point x="282.051" y="480.941" type="curve" smooth="yes"/>
      <point x="409.038" y="487.22"/>
      <point x="514.354" y="385.73"/>
      <point x="514.354" y="260.098" type="curve" smooth="yes"/>
      <point x="514.354" y="43.7256" type="line" smooth="yes"/>
      <point x="514.354" y="20.3457"/>
      <point x="495.404" y="1.39648"/>
      <point x="472.024" y="1.39648" type="curve"/>
      <point x="472.024" y="254.849" type="line" smooth="yes"/>
      <point x="472.024" y="347.916"/>
      <point x="403.085" y="429.371"/>
      <point x="310.44" y="438.091" type="curve" smooth="yes"/>
      <point x="204.124" y="448.095"/>
      <point x="114.387" y="364.382"/>
      <point x="114.387" y="260.098" type="curve" smooth="yes"/>
      <point x="114.387" y="220.097" type="line"/>
      <point x="114.33" y="220.097" type="line"/>
      <point x="114.33" y="42.8223" type="line" smooth="yes"/>
      <point x="114.33" y="19.4424"/>
      <point x="95.3809" y="0.493164"/>
      <point x="72.001" y="0.493164" type="curve"/>
      <point x="72.001" y="598.997" type="line" smooth="yes"/>
      <point x="72.001" y="622.377"/>
      <point x="90.9502" y="641.326"/>
      <point x="114.33" y="641.326" type="curve"/>
      <point x="114.33" y="386.66" type="line"/>
      <point x="152.172" y="440.56"/>
      <point x="212.265" y="477.499"/>
    </contour>
  </outline>
</glyph>
<glyph name="k" format="2">
  <advance width="455"/>
  <unicode hex="006B"/>
  <outline>
    <contour>
      <point x="427.07" y="466.406" type="curve"/>
      <point x="128.566" y="205.221" type="line"/>
      <point x="424.361" y="20.3418" type="line"/>
      <point x="411.973" y="0.517578"/>
      <point x="385.855" y="-5.50684"/>
      <point x="366.031" y="6.88184" type="curve" smooth="yes"/>
      <point x="114.329" y="164.19" type="line"/>
      <point x="114.329" y="44.7236" type="line" smooth="yes"/>
      <point x="114.329" y="21.3438"/>
      <point x="95.3799" y="2.39453"/>
      <point x="72" y="2.39453" type="curve"/>
      <point x="72" y="599.996" type="line" smooth="yes"/>
      <point x="72" y="623.376"/>
      <point x="90.9492" y="642.325"/>
      <point x="114.329" y="642.325" type="curve"/>
      <point x="114.329" y="249.004" type="line"/>
      <point x="367.344" y="470.385" type="line" smooth="yes"/>
      <point x="384.938" y="485.778"/>
      <point x="411.677" y="484.001"/>
    </contour>
  </outline>
</glyph>
<glyph name="l" format="2">
  <advance width="187"/>
  <unicode hex="006C"/>
  <outline>
    <contour>
      <point x="72" y="0.381836" type="curve"/>
      <point x="72" y="597.997" type="line" smooth="yes"/>
      <point x="72" y="621.377"/>
      <point x="90.9492" y="640.326"/>
      <point x="114.329" y="640.326" type="curve"/>
      <point x="114.329" y="42.7109" type="line" smooth="yes"/>
      <point x="114.329" y="19.3311"/>
      <point x="95.3799" y="0.381836"/>
    </contour>
  </outline>
</glyph>
<glyph name="m" format="2">
  <advance width="898"/>
  <unicode hex="006D"/>
  <outline>
    <contour>
      <point x="622.969" y="480.082" type="curve" smooth="yes"/>
      <point x="738.471" y="485.782"/>
      <point x="834.266" y="393.448"/>
      <point x="834.266" y="279.174" type="curve" smooth="yes"/>
      <point x="834.266" y="42.6953" type="line" smooth="yes"/>
      <point x="834.266" y="19.3154"/>
      <point x="815.316" y="0.366211"/>
      <point x="791.937" y="0.366211" type="curve"/>
      <point x="791.937" y="274.531" type="line" smooth="yes"/>
      <point x="791.937" y="357.172"/>
      <point x="730.729" y="429.526"/>
      <point x="648.44" y="437.272" type="curve" smooth="yes"/>
      <point x="554.004" y="446.161"/>
      <point x="474.298" y="371.803"/>
      <point x="474.298" y="279.173" type="curve" smooth="yes"/>
      <point x="474.298" y="42.7656" type="line" smooth="yes"/>
      <point x="474.298" y="19.3857"/>
      <point x="455.349" y="0.436523"/>
      <point x="431.969" y="0.436523" type="curve"/>
      <point x="431.969" y="273.346" type="line" smooth="yes"/>
      <point x="431.969" y="275.307"/>
      <point x="432.194" y="277.226"/>
      <point x="432.251" y="279.173" type="curve"/>
      <point x="431.969" y="279.173" type="line"/>
      <point x="431.969" y="366.752"/>
      <point x="360.729" y="437.992"/>
      <point x="273.149" y="437.992" type="curve" smooth="yes"/>
      <point x="185.57" y="437.992"/>
      <point x="114.33" y="366.752"/>
      <point x="114.33" y="279.173" type="curve" smooth="yes"/>
      <point x="114.33" y="42.6943" type="line" smooth="yes"/>
      <point x="114.33" y="19.3145"/>
      <point x="95.3809" y="0.365234"/>
      <point x="72.001" y="0.365234" type="curve"/>
      <point x="72.001" y="437.991" type="line" smooth="yes"/>
      <point x="72.001" y="461.371"/>
      <point x="90.9502" y="480.32"/>
      <point x="114.33" y="480.32" type="curve"/>
      <point x="114.33" y="402.152" type="line"/>
      <point x="151.156" y="449.604"/>
      <point x="208.568" y="480.32"/>
      <point x="273.148" y="480.32" type="curve" smooth="yes"/>
      <point x="352.614" y="480.32"/>
      <point x="421.258" y="433.886"/>
      <point x="453.907" y="366.837" type="curve"/>
      <point x="485.456" y="430.557"/>
      <point x="548.174" y="476.399"/>
    </contour>
  </outline>
</glyph>
<glyph name="n" format="2">
  <advance width="576"/>
  <unicode hex="006E"/>
  <outline>
    <contour>
      <point x="281.994" y="480.055" type="curve" smooth="yes"/>
      <point x="408.967" y="486.334"/>
      <point x="514.297" y="384.8"/>
      <point x="514.297" y="259.167" type="curve" smooth="yes"/>
      <point x="514.297" y="42.6826" type="line" smooth="yes"/>
      <point x="514.297" y="19.3027"/>
      <point x="495.348" y="0.353516"/>
      <point x="471.968" y="0.353516" type="curve"/>
      <point x="471.968" y="253.933" type="line" smooth="yes"/>
      <point x="471.968" y="347"/>
      <point x="403.028" y="428.455"/>
      <point x="310.384" y="437.175" type="curve" smooth="yes"/>
      <point x="204.067" y="447.179"/>
      <point x="114.33" y="363.466"/>
      <point x="114.33" y="259.182" type="curve" smooth="yes"/>
      <point x="114.33" y="42.6973" type="line" smooth="yes"/>
      <point x="114.33" y="19.3174"/>
      <point x="95.3809" y="0.368164"/>
      <point x="72.001" y="0.368164" type="curve"/>
      <point x="72.001" y="437.994" type="line" smooth="yes"/>
      <point x="72.001" y="461.374"/>
      <point x="90.9502" y="480.323"/>
      <point x="114.33" y="480.323" type="curve"/>
      <point x="114.33" y="385.859" type="line"/>
      <point x="152.172" y="439.716"/>
      <point x="212.236" y="476.612"/>
    </contour>
  </outline>
</glyph>
<glyph name="o" format="2">
  <advance width="574"/>
  <unicode hex="006F"/>
  <unicode hex="00F6"/>
  <unicode hex="00F6"/>
  <outline>
    <contour>
      <point x="286.978" y="480.337" type="curve" smooth="yes"/>
      <point x="419.51" y="480.337"/>
      <point x="526.955" y="372.892"/>
      <point x="526.955" y="240.359" type="curve" smooth="yes"/>
      <point x="526.955" y="107.827"/>
      <point x="419.51" y="0.381836"/>
      <point x="286.978" y="0.381836" type="curve" smooth="yes"/>
      <point x="154.445" y="0.381836"/>
      <point x="47" y="107.827"/>
      <point x="47" y="240.359" type="curve" smooth="yes"/>
      <point x="47" y="372.892"/>
      <point x="154.445" y="480.337"/>
    </contour>
    <contour>
      <point x="286.978" y="42.7109" type="curve" smooth="yes"/>
      <point x="395.961" y="42.7109"/>
      <point x="484.626" y="131.376"/>
      <point x="484.626" y="240.359" type="curve" smooth="yes"/>
      <point x="484.626" y="349.343"/>
      <point x="395.961" y="438.008"/>
      <point x="286.978" y="438.008" type="curve" smooth="yes"/>
      <point x="177.994" y="438.008"/>
      <point x="89.3291" y="349.343"/>
      <point x="89.3291" y="240.359" type="curve" smooth="yes"/>
      <point x="89.3291" y="131.376"/>
      <point x="177.994" y="42.7109"/>
    </contour>
  </outline>
</glyph>
<glyph name="p" format="2">
  <advance width="599"/>
  <unicode hex="0070"/>
  <outline>
    <contour>
      <point x="311.978" y="42.6943" type="curve" smooth="yes"/>
      <point x="420.961" y="42.6943"/>
      <point x="509.626" y="131.359"/>
      <point x="509.626" y="240.343" type="curve" smooth="yes"/>
      <point x="509.626" y="349.326"/>
      <point x="420.961" y="437.991"/>
      <point x="311.978" y="437.991" type="curve" smooth="yes"/>
      <point x="202.994" y="437.991"/>
      <point x="114.329" y="349.326"/>
      <point x="114.329" y="240.343" type="curve" smooth="yes"/>
      <point x="114.329" y="131.359"/>
      <point x="202.994" y="42.6943"/>
    </contour>
    <contour>
      <point x="311.978" y="480.322" type="curve" smooth="yes"/>
      <point x="444.51" y="480.322"/>
      <point x="551.955" y="372.875"/>
      <point x="551.955" y="240.343" type="curve" smooth="yes"/>
      <point x="551.955" y="107.811"/>
      <point x="444.51" y="0.365234"/>
      <point x="311.978" y="0.365234" type="curve" smooth="yes"/>
      <point x="229.944" y="0.365234"/>
      <point x="157.604" y="41.5801"/>
      <point x="114.33" y="104.368" type="curve"/>
      <point x="114.33" y="-197.282" type="line" smooth="yes"/>
      <point x="114.33" y="-220.662"/>
      <point x="95.3809" y="-239.611"/>
      <point x="72.001" y="-239.611" type="curve"/>
      <point x="72.001" y="437.992" type="line" smooth="yes"/>
      <point x="72.001" y="461.372"/>
      <point x="90.9502" y="480.321"/>
      <point x="114.33" y="480.321" type="curve"/>
      <point x="114.33" y="376.319" type="line"/>
      <point x="157.618" y="439.107"/>
      <point x="229.958" y="480.322"/>
    </contour>
  </outline>
</glyph>
<glyph name="q" format="2">
  <advance width="599"/>
  <unicode hex="0071"/>
  <outline>
    <contour>
      <point x="286.978" y="42.7129" type="curve" smooth="yes"/>
      <point x="395.961" y="42.7129"/>
      <point x="484.626" y="131.378"/>
      <point x="484.626" y="240.361" type="curve" smooth="yes"/>
      <point x="484.626" y="349.345"/>
      <point x="395.961" y="438.01"/>
      <point x="286.978" y="438.01" type="curve" smooth="yes"/>
      <point x="177.994" y="438.01"/>
      <point x="89.3291" y="349.345"/>
      <point x="89.3291" y="240.361" type="curve" smooth="yes"/>
      <point x="89.3291" y="131.378"/>
      <point x="177.994" y="42.7129"/>
    </contour>
    <contour>
      <point x="484.626" y="480.337" type="line"/>
      <point x="508.006" y="480.337"/>
      <point x="526.955" y="461.39"/>
      <point x="526.955" y="438.01" type="curve" smooth="yes"/>
      <point x="526.955" y="-239.594" type="line"/>
      <point x="503.575" y="-239.594"/>
      <point x="484.626" y="-220.645"/>
      <point x="484.626" y="-197.265" type="curve" smooth="yes"/>
      <point x="484.626" y="104.386" type="line"/>
      <point x="441.338" y="41.5977"/>
      <point x="369.012" y="0.382812"/>
      <point x="286.979" y="0.382812" type="curve" smooth="yes"/>
      <point x="154.446" y="0.382812"/>
      <point x="47.001" y="107.828"/>
      <point x="47.001" y="240.36" type="curve" smooth="yes"/>
      <point x="47.001" y="372.893"/>
      <point x="154.446" y="480.338"/>
      <point x="286.979" y="480.338" type="curve" smooth="yes"/>
      <point x="369.012" y="480.338"/>
      <point x="441.352" y="439.123"/>
      <point x="484.626" y="376.335" type="curve"/>
    </contour>
  </outline>
</glyph>
<glyph name="r" format="2">
  <advance width="365"/>
  <unicode hex="0072"/>
  <outline>
    <contour>
      <point x="253" y="480" type="curve" smooth="yes"/>
      <point x="285" y="480"/>
      <point x="316" y="472"/>
      <point x="344" y="456" type="curve"/>
      <point x="335.155" y="440.722"/>
      <point x="319.197" y="431.264"/>
      <point x="302.366" y="431.264" type="curve" smooth="yes"/>
      <point x="298.266" y="431.264"/>
      <point x="294.114" y="431.824"/>
      <point x="290" y="433" type="curve" smooth="yes"/>
      <point x="277.945" y="436.444"/>
      <point x="265.415" y="438.228"/>
      <point x="252.738" y="438.228" type="curve" smooth="yes"/>
      <point x="228.608" y="438.228"/>
      <point x="203.945" y="431.767"/>
      <point x="181" y="418" type="curve" smooth="yes"/>
      <point x="139" y="393"/>
      <point x="114" y="345"/>
      <point x="114" y="295" type="curve" smooth="yes"/>
      <point x="114" y="43" type="line" smooth="yes"/>
      <point x="114" y="19"/>
      <point x="95" y="0"/>
      <point x="72" y="0" type="curve"/>
      <point x="72" y="438" type="line" smooth="yes"/>
      <point x="72" y="461"/>
      <point x="91" y="480"/>
      <point x="114" y="480" type="curve"/>
      <point x="114" y="415" type="line"/>
      <point x="148" y="455"/>
      <point x="197" y="480"/>
    </contour>
  </outline>
</glyph>
<glyph name="s" format="2">
  <advance width="533"/>
  <unicode hex="0073"/>
  <outline>
    <contour>
      <point x="268.51" y="262.95" type="curve" smooth="yes"/>
      <point x="364.91" y="249.57"/>
      <point x="474.118" y="234.448"/>
      <point x="481.099" y="133.368" type="curve"/>
      <point x="481.139" y="131.938" type="line" smooth="yes"/>
      <point x="481.219" y="93.2383"/>
      <point x="459.539" y="60.2285"/>
      <point x="418.469" y="36.4883" type="curve" smooth="yes"/>
      <point x="376.919" y="12.458"/>
      <point x="318.459" y="0.37793"/>
      <point x="260.609" y="0.37793" type="curve" smooth="yes"/>
      <point x="204.879" y="0.37793"/>
      <point x="149.719" y="11.5977"/>
      <point x="110.719" y="34.1279" type="curve" smooth="yes"/>
      <point x="71.5986" y="56.7383"/>
      <point x="50.9385" y="88.6387"/>
      <point x="50.998" y="126.369" type="curve"/>
      <point x="55.9482" y="126.369" type="line" smooth="yes"/>
      <point x="74.8779" y="126.339"/>
      <point x="91.1475" y="115.179"/>
      <point x="100.957" y="98.9688" type="curve" smooth="yes"/>
      <point x="107.337" y="88.4287"/>
      <point x="117.667" y="78.999"/>
      <point x="131.897" y="70.7686" type="curve" smooth="yes"/>
      <point x="199.077" y="31.959"/>
      <point x="328.037" y="33.0986"/>
      <point x="397.287" y="73.1289" type="curve" smooth="yes"/>
      <point x="424.607" y="88.9189"/>
      <point x="438.577" y="108.449"/>
      <point x="438.827" y="131.159" type="curve" smooth="yes"/>
      <point x="434.067" y="192.839"/>
      <point x="369.027" y="206.279"/>
      <point x="262.667" y="221.029" type="curve" smooth="yes"/>
      <point x="166.867" y="234.319"/>
      <point x="58.3076" y="249.379"/>
      <point x="51.0479" y="349.229" type="curve" smooth="yes"/>
      <point x="50.998" y="350.709" type="line" smooth="yes"/>
      <point x="50.9277" y="388.679"/>
      <point x="72.2178" y="421.079"/>
      <point x="112.538" y="444.389" type="curve" smooth="yes"/>
      <point x="194.278" y="491.639"/>
      <point x="341.698" y="492.469"/>
      <point x="421.798" y="446.148" type="curve" smooth="yes"/>
      <point x="460.708" y="423.639"/>
      <point x="481.238" y="392.039"/>
      <point x="481.168" y="354.749" type="curve"/>
      <point x="475.628" y="354.749" type="line" smooth="yes"/>
      <point x="456.998" y="354.769"/>
      <point x="440.988" y="365.749"/>
      <point x="431.298" y="381.669" type="curve" smooth="yes"/>
      <point x="424.988" y="392.019"/>
      <point x="414.738" y="401.339"/>
      <point x="400.628" y="409.489" type="curve" smooth="yes"/>
      <point x="334.048" y="447.999"/>
      <point x="201.868" y="447.109"/>
      <point x="133.738" y="407.729" type="curve" smooth="yes"/>
      <point x="107.179" y="392.38"/>
      <point x="93.6084" y="373.47"/>
      <point x="93.3486" y="351.52" type="curve" smooth="yes"/>
      <point x="98.2891" y="290.899"/>
      <point x="162.899" y="277.59"/>
    </contour>
  </outline>
</glyph>
<glyph name="t" format="2">
  <advance width="302"/>
  <unicode hex="0074"/>
  <outline>
    <contour>
      <point x="232.835" y="42.7109" type="curve" smooth="yes"/>
      <point x="255.001" y="42.7109"/>
      <point x="272.991" y="24.75"/>
      <point x="272.991" y="2.56934" type="curve" smooth="yes"/>
      <point x="272.991" y="0.396484" type="line"/>
      <point x="232.835" y="0.396484" type="line" smooth="yes"/>
      <point x="154.964" y="0.396484"/>
      <point x="91.8369" y="63.5234"/>
      <point x="91.8369" y="141.395" type="curve" smooth="yes"/>
      <point x="91.8369" y="438.008" type="line"/>
      <point x="33" y="438.008" type="line"/>
      <point x="33" y="461.388"/>
      <point x="51.9492" y="480.337"/>
      <point x="75.3291" y="480.337" type="curve" smooth="yes"/>
      <point x="91.8379" y="480.337" type="line"/>
      <point x="91.8379" y="597.997" type="line" smooth="yes"/>
      <point x="91.8379" y="621.377"/>
      <point x="110.787" y="640.326"/>
      <point x="134.167" y="640.326" type="curve"/>
      <point x="134.167" y="480.322" type="line"/>
      <point x="272.978" y="480.322" type="line"/>
      <point x="272.978" y="456.942"/>
      <point x="254.028" y="437.993"/>
      <point x="230.648" y="437.993" type="curve" smooth="yes"/>
      <point x="134.166" y="437.993" type="line"/>
      <point x="134.166" y="141.38" type="line" smooth="yes"/>
      <point x="134.166" y="86.8887"/>
      <point x="178.344" y="42.7109"/>
    </contour>
  </outline>
</glyph>
<glyph name="u" format="2">
  <advance width="548"/>
  <unicode hex="0075"/>
  <outline>
    <contour>
      <point x="433.748" y="480.322" type="line"/>
      <point x="457.128" y="480.322"/>
      <point x="476.078" y="461.374"/>
      <point x="476.078" y="437.994" type="curve" smooth="yes"/>
      <point x="476.078" y="42.6973" type="line" smooth="yes"/>
      <point x="476.078" y="19.3174"/>
      <point x="457.129" y="0.368164"/>
      <point x="433.749" y="0.368164" type="curve"/>
      <point x="433.749" y="82.4863" type="line"/>
      <point x="393.945" y="30.1533"/>
      <point x="330.028" y="-2.90527"/>
      <point x="258.605" y="0.62207" type="curve" smooth="yes"/>
      <point x="147.393" y="6.11035"/>
      <point x="62.001" y="102.07"/>
      <point x="62.001" y="213.41" type="curve" smooth="yes"/>
      <point x="62.001" y="437.994" type="line" smooth="yes"/>
      <point x="62.001" y="461.374"/>
      <point x="80.9502" y="480.323"/>
      <point x="104.33" y="480.323" type="curve"/>
      <point x="104.33" y="212.239" type="line" smooth="yes"/>
      <point x="104.33" y="126.523"/>
      <point x="167.823" y="51.502"/>
      <point x="253.158" y="43.459" type="curve" smooth="yes"/>
      <point x="351.079" y="34.2314"/>
      <point x="433.748" y="111.354"/>
      <point x="433.748" y="207.413" type="curve" smooth="yes"/>
    </contour>
  </outline>
</glyph>
<glyph name="w" format="2">
  <advance width="797"/>
  <unicode hex="0077"/>
  <outline>
    <contour>
      <point x="708.63" y="437.762" type="line" smooth="yes"/>
      <point x="719.311" y="463.399"/>
      <point x="744.331" y="480.092"/>
      <point x="772.099" y="480.092" type="curve"/>
      <point x="577.555" y="13.1465" type="line" smooth="yes"/>
      <point x="574.295" y="5.30176"/>
      <point x="566.647" y="0.179688"/>
      <point x="558.153" y="0.123047" type="curve" smooth="yes"/>
      <point x="549.193" y="0.376953"/>
      <point x="541.955" y="5.10352"/>
      <point x="538.583" y="12.9062" type="curve" smooth="yes"/>
      <point x="398.036" y="338.854" type="line"/>
      <point x="257.489" y="12.9062" type="line" smooth="yes"/>
      <point x="254.146" y="5.14551"/>
      <point x="246.512" y="0.12207"/>
      <point x="238.06" y="0.12207" type="curve" smooth="yes"/>
      <point x="237.933" y="0.12207" type="line" smooth="yes"/>
      <point x="229.438" y="0.178711"/>
      <point x="221.805" y="5.30078"/>
      <point x="218.531" y="13.1455" type="curve" smooth="yes"/>
      <point x="24.001" y="480.091" type="line"/>
      <point x="51.7686" y="480.091"/>
      <point x="76.8135" y="463.399"/>
      <point x="87.4941" y="437.762" type="curve" smooth="yes"/>
      <point x="238.411" y="75.5098" type="line"/>
      <point x="378.633" y="400.682" type="line" smooth="yes"/>
      <point x="381.977" y="408.442"/>
      <point x="389.624" y="413.466"/>
      <point x="398.062" y="413.466" type="curve" smooth="yes"/>
      <point x="406.499" y="413.466"/>
      <point x="414.146" y="408.442"/>
      <point x="417.49" y="400.682" type="curve" smooth="yes"/>
      <point x="557.698" y="75.5098" type="line"/>
    </contour>
  </outline>
</glyph>
<glyph name="y" format="2">
  <advance width="489"/>
  <unicode hex="0079"/>
  <outline>
    <contour>
      <point x="408.32" y="455.79" type="line" smooth="yes"/>
      <point x="417.521" y="477.28"/>
      <point x="442.399" y="487.24"/>
      <point x="463.89" y="478.061" type="curve"/>
      <point x="463.89" y="478.021" type="line"/>
      <point x="203.899" y="-133.39" type="line" smooth="yes"/>
      <point x="177.05" y="-197.859"/>
      <point x="114.45" y="-239.6"/>
      <point x="44.46" y="-239.6" type="curve"/>
      <point x="44.46" y="-217.939"/>
      <point x="58.4902" y="-198.319"/>
      <point x="79.3701" y="-192.55" type="curve" smooth="yes"/>
      <point x="117.39" y="-182.06"/>
      <point x="149.199" y="-154.67"/>
      <point x="164.89" y="-116.97" type="curve" smooth="yes"/>
      <point x="222.13" y="17.6504" type="line"/>
      <point x="25" y="478.04" type="line"/>
      <point x="46.4902" y="487.24"/>
      <point x="71.3799" y="477.271"/>
      <point x="80.5801" y="455.79" type="curve" smooth="yes"/>
      <point x="244.45" y="73.0703" type="line"/>
    </contour>
  </outline>
</glyph>
<glyph name="z" format="2">
  <advance width="569"/>
  <unicode hex="007A"/>
  <outline>
    <contour>
      <point x="536" y="469" type="curve" smooth="yes"/>
      <point x="539" y="461"/>
      <point x="537" y="452"/>
      <point x="531" y="446" type="curve" smooth="yes"/>
      <point x="106" y="42" type="line"/>
      <point x="521" y="43" type="line"/>
      <point x="521" y="20"/>
      <point x="502" y="1"/>
      <point x="479" y="1" type="curve" smooth="yes"/>
      <point x="53" y="0" type="line" smooth="yes"/>
      <point x="45" y="0"/>
      <point x="36.7402" y="5.00879"/>
      <point x="33.5303" y="13.0391" type="curve" smooth="yes"/>
      <point x="30.29" y="21.0791"/>
      <point x="32.2998" y="30.2793"/>
      <point x="38.5801" y="36.249" type="curve" smooth="yes"/>
      <point x="463.12" y="439.999" type="line"/>
      <point x="41.1201" y="439.999" type="line"/>
      <point x="41.1201" y="463.369"/>
      <point x="60.0703" y="482.319"/>
      <point x="83.4502" y="482.319" type="curve" smooth="yes"/>
      <point x="516.09" y="482.319" type="line" smooth="yes"/>
      <point x="524.75" y="482.319"/>
      <point x="533" y="477"/>
    </contour>
  </outline>
</glyph>
<glyph name="braceleft" format="2">
  <advance width="299"/>
  <unicode hex="007B"/>
  <outline>
    <contour>
      <point x="198.939" y="49.2139" type="curve" smooth="yes"/>
      <point x="217.691" y="39.6338"/>
      <point x="229.854" y="20.7393"/>
      <point x="229.854" y="-0.3125" type="curve"/>
      <point x="176.548" y="-0.3125"/>
      <point x="133.175" y="36.2734"/>
      <point x="133.175" y="81.2549" type="curve" smooth="yes"/>
      <point x="133.175" y="237.252" type="line" smooth="yes"/>
      <point x="133.175" y="262.607"/>
      <point x="114.521" y="285.832"/>
      <point x="84.4961" y="297.84" type="curve" smooth="yes"/>
      <point x="73.8574" y="302.101"/>
      <point x="67" y="311.949"/>
      <point x="67" y="322.927" type="curve" smooth="yes"/>
      <point x="67" y="333.876"/>
      <point x="73.8711" y="343.71"/>
      <point x="84.4814" y="347.957" type="curve" smooth="yes"/>
      <point x="114.507" y="359.965"/>
      <point x="133.174" y="383.189"/>
      <point x="133.174" y="408.545" type="curve" smooth="yes"/>
      <point x="133.174" y="564.542" type="line" smooth="yes"/>
      <point x="133.174" y="609.523"/>
      <point x="176.547" y="646.124"/>
      <point x="229.854" y="646.124" type="curve"/>
      <point x="229.854" y="625.072"/>
      <point x="217.705" y="606.165"/>
      <point x="198.953" y="596.599" type="curve" smooth="yes"/>
      <point x="184.886" y="589.417"/>
      <point x="175.503" y="577.607"/>
      <point x="175.503" y="564.542" type="curve" smooth="yes"/>
      <point x="175.503" y="408.545" type="line" smooth="yes"/>
      <point x="175.503" y="374.583"/>
      <point x="157.527" y="343.584"/>
      <point x="127.135" y="322.899" type="curve"/>
      <point x="157.541" y="302.215"/>
      <point x="175.503" y="271.216"/>
      <point x="175.503" y="237.254" type="curve" smooth="yes"/>
      <point x="175.503" y="81.2568" type="line" smooth="yes"/>
      <point x="175.503" y="68.2051"/>
      <point x="184.872" y="56.3955"/>
    </contour>
  </outline>
</glyph>
<glyph name="verticalbar" format="2">
  <advance width="203"/>
  <unicode hex="007C"/>
  <outline>
    <contour>
      <point x="80" y="640.179" type="line"/>
      <point x="103.38" y="640.179"/>
      <point x="122.329" y="621.229"/>
      <point x="122.329" y="597.85" type="curve" smooth="yes"/>
      <point x="122.329" y="0.248047" type="line"/>
      <point x="98.9492" y="0.248047"/>
      <point x="80" y="19.1973"/>
      <point x="80" y="42.5771" type="curve" smooth="yes"/>
    </contour>
  </outline>
</glyph>
<glyph name="braceright" format="2">
  <advance width="299"/>
  <unicode hex="007D"/>
  <outline>
    <contour>
      <point x="214.357" y="347.973" type="curve" smooth="yes"/>
      <point x="224.996" y="343.712"/>
      <point x="231.854" y="333.865"/>
      <point x="231.854" y="322.888" type="curve" smooth="yes"/>
      <point x="231.854" y="311.938"/>
      <point x="224.982" y="302.104"/>
      <point x="214.372" y="297.857" type="curve" smooth="yes"/>
      <point x="184.347" y="285.85"/>
      <point x="165.68" y="262.625"/>
      <point x="165.68" y="237.27" type="curve" smooth="yes"/>
      <point x="165.68" y="81.2725" type="line" smooth="yes"/>
      <point x="165.68" y="36.291"/>
      <point x="122.307" y="-0.30957"/>
      <point x="69" y="-0.30957" type="curve"/>
      <point x="69" y="20.7422"/>
      <point x="81.1621" y="39.6494"/>
      <point x="99.9141" y="49.2158" type="curve" smooth="yes"/>
      <point x="113.967" y="56.3975"/>
      <point x="123.35" y="68.207"/>
      <point x="123.35" y="81.2725" type="curve" smooth="yes"/>
      <point x="123.35" y="237.27" type="line" smooth="yes"/>
      <point x="123.35" y="271.231"/>
      <point x="141.325" y="302.23"/>
      <point x="171.718" y="322.915" type="curve"/>
      <point x="141.312" y="343.6"/>
      <point x="123.35" y="374.599"/>
      <point x="123.35" y="408.561" type="curve" smooth="yes"/>
      <point x="123.35" y="564.558" type="line" smooth="yes"/>
      <point x="123.35" y="577.609"/>
      <point x="113.98" y="589.419"/>
      <point x="99.9131" y="596.601" type="curve" smooth="yes"/>
      <point x="81.1611" y="606.181"/>
      <point x="68.999" y="625.073"/>
      <point x="68.999" y="646.125" type="curve"/>
      <point x="122.306" y="646.125"/>
      <point x="165.679" y="609.539"/>
      <point x="165.679" y="564.558" type="curve" smooth="yes"/>
      <point x="165.679" y="408.561" type="line" smooth="yes"/>
      <point x="165.679" y="383.205"/>
      <point x="184.332" y="359.98"/>
    </contour>
  </outline>
</glyph>
<glyph name="asciitilde" format="2">
  <advance width="607"/>
  <unicode hex="007E"/>
  <outline>
    <contour>
      <point x="497.17" y="302.06" type="curve" smooth="yes"/>
      <point x="515.95" y="314.3"/>
      <point x="540.629" y="312.23"/>
      <point x="556.499" y="296.4" type="curve"/>
      <point x="515.189" y="254.99"/>
      <point x="475.399" y="240.13"/>
      <point x="437.3" y="240.13" type="curve" smooth="yes"/>
      <point x="385.59" y="240.13"/>
      <point x="336.99" y="267.5"/>
      <point x="291.86" y="292.91" type="curve" smooth="yes"/>
      <point x="227.12" y="329.37"/>
      <point x="170.05" y="361.53"/>
      <point x="107.33" y="320.67" type="curve" smooth="yes"/>
      <point x="88.5498" y="308.439"/>
      <point x="63.8701" y="310.479"/>
      <point x="48" y="326.31" type="curve"/>
      <point x="145.41" y="423.979"/>
      <point x="234.25" y="373.949"/>
      <point x="312.63" y="329.81" type="curve" smooth="yes"/>
      <point x="377.36" y="293.35"/>
      <point x="434.45" y="261.199"/>
    </contour>
  </outline>
</glyph>
<glyph name="exclamdown" format="2">
  <advance width="227"/>
  <unicode hex="00A1"/>
  <outline>
    <contour>
      <point x="113" y="642.029" type="curve" smooth="yes"/>
      <point x="135.08" y="642.029"/>
      <point x="152.979" y="624.129"/>
      <point x="152.979" y="602.029" type="curve" smooth="yes"/>
      <point x="152.979" y="579.939"/>
      <point x="135.09" y="562.029"/>
      <point x="113" y="562.029" type="curve" smooth="yes"/>
      <point x="90.9004" y="562.029"/>
      <point x="73" y="579.939"/>
      <point x="73" y="602.029" type="curve" smooth="yes"/>
      <point x="73" y="624.129"/>
      <point x="90.9004" y="642.029"/>
    </contour>
    <contour>
      <point x="94.4697" y="437.51" type="line" smooth="yes"/>
      <point x="94.4697" y="460.89"/>
      <point x="113.42" y="479.84"/>
      <point x="136.8" y="479.84" type="curve"/>
      <point x="136.8" y="42.2197" type="line" smooth="yes"/>
      <point x="136.8" y="18.8398"/>
      <point x="117.85" y="-0.110352"/>
      <point x="94.4697" y="-0.110352" type="curve"/>
    </contour>
  </outline>
</glyph>
<glyph name="cent" format="2">
  <advance width="450"/>
  <unicode hex="00A2"/>
  <outline>
    <contour>
      <point x="327.64" y="155.21" type="curve" smooth="yes"/>
      <point x="348.909" y="162.33"/>
      <point x="372.3" y="155.18"/>
      <point x="384.22" y="136.189" type="curve" smooth="yes"/>
      <point x="384.569" y="135.619" type="line"/>
      <point x="352.43" y="115.449"/>
      <point x="315.59" y="104.779"/>
      <point x="278.03" y="104.779" type="curve" smooth="yes"/>
      <point x="250.011" y="104.779"/>
      <point x="223.301" y="110.749"/>
      <point x="198.851" y="121.369" type="curve"/>
      <point x="166.45" y="0.449219" type="line"/>
      <point x="143.88" y="6.50879"/>
      <point x="130.47" y="29.7188"/>
      <point x="136.529" y="52.2891" type="curve" smooth="yes"/>
      <point x="160.81" y="142.949" type="line"/>
      <point x="105.439" y="182.779"/>
      <point x="68.999" y="249.93"/>
      <point x="68.999" y="325.93" type="curve" smooth="yes"/>
      <point x="68.999" y="444.64"/>
      <point x="157.919" y="541.52"/>
      <point x="268.959" y="546.6" type="curve"/>
      <point x="297.039" y="651.399" type="line"/>
      <point x="319.609" y="645.35"/>
      <point x="333.02" y="622.14"/>
      <point x="326.96" y="599.56" type="curve" smooth="yes"/>
      <point x="312.08" y="544.01" type="line"/>
      <point x="337.62" y="539.569"/>
      <point x="362.24" y="530.26"/>
      <point x="384.57" y="516.25" type="curve"/>
      <point x="384.21" y="515.67" type="line" smooth="yes"/>
      <point x="372.28" y="496.68"/>
      <point x="348.92" y="489.58"/>
      <point x="327.64" y="496.68" type="curve" smooth="yes"/>
      <point x="318.979" y="499.55"/>
      <point x="310.09" y="501.63"/>
      <point x="301.07" y="502.97" type="curve"/>
      <point x="209.95" y="162.87" type="line"/>
      <point x="230.76" y="152.84"/>
      <point x="253.76" y="147.12"/>
      <point x="278.02" y="147.12" type="curve" smooth="yes"/>
      <point x="294.939" y="147.12"/>
      <point x="311.67" y="149.87"/>
    </contour>
    <contour>
      <point x="111.311" y="325.949" type="curve" smooth="yes"/>
      <point x="111.311" y="270.159"/>
      <point x="135.27" y="220.301"/>
      <point x="172.72" y="187.48" type="curve"/>
      <point x="257.33" y="503.24" type="line"/>
      <point x="175.16" y="492.26"/>
      <point x="111.311" y="417.029"/>
    </contour>
  </outline>
</glyph>
<glyph name="sterling" format="2">
  <advance width="627"/>
  <unicode hex="00A3"/>
  <outline>
    <contour>
      <point x="372.379" y="602.04" type="curve" smooth="yes"/>
      <point x="297.999" y="619.55"/>
      <point x="204.917" y="597.781"/>
      <point x="163.747" y="509.921" type="curve"/>
      <point x="143.487" y="433.821"/>
      <point x="162.527" y="392.291"/>
      <point x="182.667" y="348.351" type="curve" smooth="yes"/>
      <point x="191.047" y="330.061"/>
      <point x="199.217" y="311.961"/>
      <point x="204.797" y="292.291" type="curve"/>
      <point x="389.537" y="292.291" type="line"/>
      <point x="389.537" y="268.911"/>
      <point x="370.587" y="249.961"/>
      <point x="347.207" y="249.961" type="curve" smooth="yes"/>
      <point x="211.527" y="249.961" type="line"/>
      <point x="213.008" y="207.73"/>
      <point x="199.277" y="155.65"/>
      <point x="153.367" y="81.46" type="curve"/>
      <point x="211.438" y="98.5596"/>
      <point x="265.027" y="80.8096"/>
      <point x="314.258" y="64.5195" type="curve" smooth="yes"/>
      <point x="376.357" y="43.9697"/>
      <point x="431.067" y="25.8594"/>
      <point x="493.978" y="69.8193" type="curve" smooth="yes"/>
      <point x="512.128" y="82.5195"/>
      <point x="536.998" y="79.5898"/>
      <point x="552.448" y="63.71" type="curve"/>
      <point x="458.458" y="-27.7998"/>
      <point x="374.778" y="-0.0996094"/>
      <point x="300.958" y="24.3301" type="curve" smooth="yes"/>
      <point x="234.298" y="46.4004"/>
      <point x="176.128" y="65.6602"/>
      <point x="107.228" y="8.2998" type="curve" smooth="yes"/>
      <point x="98.3477" y="0.910156"/>
      <point x="85.418" y="0.94043"/>
      <point x="76.7881" y="8.62012" type="curve" smooth="yes"/>
      <point x="67.8184" y="16.5898"/>
      <point x="66.3984" y="30.1602"/>
      <point x="73.5586" y="39.7803" type="curve" smooth="yes"/>
      <point x="149.799" y="142.19"/>
      <point x="170.539" y="203.29"/>
      <point x="168.479" y="249.95" type="curve"/>
      <point x="77.5293" y="249.95" type="line"/>
      <point x="77.5293" y="273.33"/>
      <point x="96.4795" y="292.28"/>
      <point x="119.859" y="292.28" type="curve" smooth="yes"/>
      <point x="160.209" y="292.28" type="line"/>
      <point x="155.779" y="305.37"/>
      <point x="150.079" y="317.87"/>
      <point x="144.199" y="330.7" type="curve" smooth="yes"/>
      <point x="122.709" y="377.58"/>
      <point x="98.3389" y="430.72"/>
      <point x="123.369" y="522.72" type="curve"/>
      <point x="124.539" y="525.96" type="line"/>
      <point x="175.309" y="636.91"/>
      <point x="290.438" y="664.83"/>
      <point x="382.089" y="643.24" type="curve" smooth="yes"/>
      <point x="473.009" y="621.84"/>
      <point x="562.929" y="545.45"/>
      <point x="558.839" y="423.061" type="curve"/>
      <point x="556.688" y="423.131" type="line" smooth="yes"/>
      <point x="535.009" y="423.851"/>
      <point x="517.759" y="440.24"/>
      <point x="514.169" y="461.63" type="curve" smooth="yes"/>
      <point x="500.449" y="543.08"/>
      <point x="432.489" y="587.89"/>
    </contour>
  </outline>
</glyph>
<glyph name="currency" format="2">
  <advance width="485"/>
  <unicode hex="00A4"/>
  <outline>
    <contour>
      <point x="364.919" y="309.889" type="curve"/>
      <point x="422.388" y="252.392" type="line"/>
      <point x="405.865" y="235.869"/>
      <point x="379.057" y="235.869"/>
      <point x="362.534" y="252.392" type="curve" smooth="yes"/>
      <point x="334.978" y="279.948" type="line"/>
      <point x="308.042" y="259.334"/>
      <point x="274.475" y="246.945"/>
      <point x="237.931" y="246.945" type="curve" smooth="yes"/>
      <point x="201.387" y="246.945"/>
      <point x="167.819" y="259.334"/>
      <point x="140.884" y="279.948" type="curve"/>
      <point x="122.852" y="261.916" type="line" smooth="yes"/>
      <point x="106.329" y="245.394"/>
      <point x="79.5352" y="245.394"/>
      <point x="62.999" y="261.916" type="curve"/>
      <point x="110.986" y="309.875" type="line"/>
      <point x="90.3584" y="336.811"/>
      <point x="77.9697" y="370.392"/>
      <point x="77.9697" y="406.936" type="curve" smooth="yes"/>
      <point x="77.9697" y="443.479"/>
      <point x="90.3584" y="477.047"/>
      <point x="110.973" y="503.982" type="curve"/>
      <point x="63" y="551.955" type="line"/>
      <point x="79.5361" y="568.491"/>
      <point x="106.33" y="568.491"/>
      <point x="122.853" y="551.955" type="curve" smooth="yes"/>
      <point x="140.898" y="533.909" type="line"/>
      <point x="167.834" y="554.523"/>
      <point x="201.415" y="566.912"/>
      <point x="237.945" y="566.912" type="curve" smooth="yes"/>
      <point x="274.476" y="566.912"/>
      <point x="308.057" y="554.523"/>
      <point x="334.992" y="533.909" type="curve"/>
      <point x="353.038" y="551.955" type="line" smooth="yes"/>
      <point x="369.561" y="568.478"/>
      <point x="396.369" y="568.491"/>
      <point x="412.892" y="551.955" type="curve"/>
      <point x="364.919" y="503.982" type="line"/>
      <point x="385.533" y="477.047"/>
      <point x="397.922" y="443.479"/>
      <point x="397.922" y="406.936" type="curve" smooth="yes"/>
      <point x="397.922" y="370.392"/>
      <point x="385.533" y="336.824"/>
    </contour>
    <contour>
      <point x="334.683" y="340.14" type="curve" smooth="yes"/>
      <point x="347.847" y="359.131"/>
      <point x="355.621" y="382.145"/>
      <point x="355.621" y="406.949" type="curve" smooth="yes"/>
      <point x="355.621" y="431.754"/>
      <point x="347.86" y="454.753"/>
      <point x="334.696" y="473.744" type="curve" smooth="yes"/>
      <point x="326.598" y="485.427"/>
      <point x="316.453" y="495.571"/>
      <point x="304.771" y="503.67" type="curve" smooth="yes"/>
      <point x="285.779" y="516.834"/>
      <point x="262.767" y="524.595"/>
      <point x="237.962" y="524.595" type="curve" smooth="yes"/>
      <point x="213.157" y="524.595"/>
      <point x="190.145" y="516.834"/>
      <point x="171.153" y="503.67" type="curve" smooth="yes"/>
      <point x="159.471" y="495.571"/>
      <point x="149.326" y="485.427"/>
      <point x="141.228" y="473.744" type="curve" smooth="yes"/>
      <point x="128.063" y="454.738"/>
      <point x="120.303" y="431.739"/>
      <point x="120.303" y="406.935" type="curve" smooth="yes"/>
      <point x="120.303" y="382.13"/>
      <point x="128.063" y="359.117"/>
      <point x="141.228" y="340.126" type="curve" smooth="yes"/>
      <point x="149.326" y="328.443"/>
      <point x="159.471" y="318.299"/>
      <point x="171.153" y="310.2" type="curve" smooth="yes"/>
      <point x="190.145" y="297.05"/>
      <point x="213.144" y="289.289"/>
      <point x="237.948" y="289.289" type="curve" smooth="yes"/>
      <point x="262.753" y="289.289"/>
      <point x="285.766" y="297.05"/>
      <point x="304.757" y="310.214" type="curve" smooth="yes"/>
      <point x="316.439" y="318.312"/>
      <point x="326.584" y="328.457"/>
    </contour>
  </outline>
</glyph>
<glyph name="yen" format="2">
  <advance width="625"/>
  <unicode hex="00A5"/>
  <outline>
    <contour>
      <point x="430.096" y="298.771" type="curve" smooth="yes"/>
      <point x="333.585" y="298.771" type="line"/>
      <point x="333.585" y="261.111" type="line"/>
      <point x="472.41" y="261.111" type="line"/>
      <point x="472.41" y="237.731"/>
      <point x="453.461" y="218.782"/>
      <point x="430.081" y="218.782" type="curve" smooth="yes"/>
      <point x="333.585" y="218.782" type="line"/>
      <point x="333.585" y="42.2988" type="line" smooth="yes"/>
      <point x="333.585" y="18.9189"/>
      <point x="314.636" y="-0.0302734"/>
      <point x="291.256" y="-0.0302734" type="curve"/>
      <point x="291.256" y="218.782" type="line"/>
      <point x="152.445" y="218.782" type="line"/>
      <point x="152.445" y="242.162"/>
      <point x="171.395" y="261.111"/>
      <point x="194.774" y="261.111" type="curve" smooth="yes"/>
      <point x="291.257" y="261.111" type="line"/>
      <point x="291.257" y="298.771" type="line"/>
      <point x="152.446" y="298.771" type="line"/>
      <point x="152.446" y="322.15"/>
      <point x="171.396" y="341.1"/>
      <point x="194.775" y="341.1" type="curve" smooth="yes"/>
      <point x="270.812" y="341.1" type="line"/>
      <point x="53.001" y="639.9" type="line"/>
      <point x="85.9189" y="639.9"/>
      <point x="116.848" y="624.168"/>
      <point x="136.234" y="597.571" type="curve" smooth="yes"/>
      <point x="312.436" y="355.858" type="line"/>
      <point x="488.637" y="597.571" type="line" smooth="yes"/>
      <point x="508.023" y="624.168"/>
      <point x="538.952" y="639.9"/>
      <point x="571.87" y="639.9" type="curve"/>
      <point x="354.059" y="341.1" type="line"/>
      <point x="472.425" y="341.1" type="line"/>
      <point x="472.425" y="317.72"/>
      <point x="453.476" y="298.771"/>
    </contour>
  </outline>
</glyph>
<glyph name="section" format="2">
  <advance width="602"/>
  <unicode hex="00A7"/>
  <outline>
    <contour>
      <point x="522.282" y="320.691" type="curve" smooth="yes"/>
      <point x="522.282" y="270.645"/>
      <point x="484.453" y="227.398"/>
      <point x="425.884" y="201.931" type="curve"/>
      <point x="484.862" y="182.586"/>
      <point x="522.281" y="149.344"/>
      <point x="522.281" y="110.006" type="curve" smooth="yes"/>
      <point x="522.281" y="47.3027"/>
      <point x="427.21" y="0.00683594"/>
      <point x="301.14" y="0.00683594" type="curve" smooth="yes"/>
      <point x="175.069" y="0.00683594"/>
      <point x="79.998" y="47.2881"/>
      <point x="79.998" y="110.006" type="curve"/>
      <point x="82.1006" y="110.006" type="line" smooth="yes"/>
      <point x="101.967" y="110.006"/>
      <point x="120.253" y="101.173"/>
      <point x="134.688" y="87.5146" type="curve" smooth="yes"/>
      <point x="159.013" y="64.502"/>
      <point x="218.048" y="42.3359"/>
      <point x="301.14" y="42.3359" type="curve" smooth="yes"/>
      <point x="411.929" y="42.3359"/>
      <point x="479.951" y="81.7441"/>
      <point x="479.951" y="110.006" type="curve" smooth="yes"/>
      <point x="479.951" y="138.268"/>
      <point x="411.929" y="177.69"/>
      <point x="301.14" y="177.69" type="curve" smooth="yes"/>
      <point x="177.13" y="177.69"/>
      <point x="79.999" y="240.507"/>
      <point x="79.999" y="320.706" type="curve" smooth="yes"/>
      <point x="79.999" y="370.739"/>
      <point x="117.827" y="414"/>
      <point x="176.396" y="439.468" type="curve"/>
      <point x="117.404" y="458.812"/>
      <point x="80" y="492.055"/>
      <point x="80" y="531.393" type="curve" smooth="yes"/>
      <point x="80" y="594.096"/>
      <point x="175.071" y="641.392"/>
      <point x="301.142" y="641.392" type="curve" smooth="yes"/>
      <point x="427.212" y="641.392"/>
      <point x="522.283" y="594.11"/>
      <point x="522.283" y="531.393" type="curve"/>
      <point x="520.181" y="531.393" type="line" smooth="yes"/>
      <point x="500.314" y="531.393"/>
      <point x="482.028" y="540.226"/>
      <point x="467.594" y="553.884" type="curve" smooth="yes"/>
      <point x="443.269" y="576.896"/>
      <point x="384.233" y="599.062"/>
      <point x="301.142" y="599.062" type="curve" smooth="yes"/>
      <point x="190.353" y="599.062"/>
      <point x="122.33" y="559.64"/>
      <point x="122.33" y="531.378" type="curve" smooth="yes"/>
      <point x="122.33" y="503.116"/>
      <point x="190.353" y="463.693"/>
      <point x="301.142" y="463.693" type="curve" smooth="yes"/>
      <point x="425.151" y="463.693"/>
      <point x="522.282" y="400.877"/>
    </contour>
    <contour>
      <point x="301.141" y="220.005" type="curve" smooth="yes"/>
      <point x="398.074" y="220.005"/>
      <point x="479.953" y="266.129"/>
      <point x="479.953" y="320.691" type="curve" smooth="yes"/>
      <point x="479.953" y="375.254"/>
      <point x="398.074" y="421.364"/>
      <point x="301.141" y="421.364" type="curve" smooth="yes"/>
      <point x="204.207" y="421.364"/>
      <point x="122.328" y="375.268"/>
      <point x="122.328" y="320.691" type="curve" smooth="yes"/>
      <point x="122.328" y="266.115"/>
      <point x="204.207" y="220.005"/>
    </contour>
  </outline>
</glyph>
<glyph name="copyright" format="2">
  <advance width="614"/>
  <unicode hex="00A9"/>
  <outline>
    <contour>
      <point x="374" y="347" type="curve" smooth="yes"/>
      <point x="384.332" y="356.687"/>
      <point x="398" y="362.202"/>
      <point x="411.503" y="362.202" type="curve" smooth="yes"/>
      <point x="418.911" y="362.202"/>
      <point x="426.27" y="360.543"/>
      <point x="433" y="357" type="curve"/>
      <point x="409" y="309"/>
      <point x="361" y="279"/>
      <point x="307" y="279" type="curve" smooth="yes"/>
      <point x="229.346" y="279"/>
      <point x="165.825" y="342.129"/>
      <point x="165.825" y="420.827" type="curve" smooth="yes"/>
      <point x="165.825" y="423.204"/>
      <point x="165.883" y="425.596"/>
      <point x="166" y="428" type="curve" smooth="yes"/>
      <point x="169" y="488"/>
      <point x="212" y="541"/>
      <point x="271" y="556" type="curve" smooth="yes"/>
      <point x="283.344" y="559.278"/>
      <point x="295.688" y="560.847"/>
      <point x="307.794" y="560.847" type="curve" smooth="yes"/>
      <point x="358.46" y="560.847"/>
      <point x="404.979" y="533.393"/>
      <point x="430" y="489" type="curve"/>
      <point x="422.546" y="484.685"/>
      <point x="414.322" y="482.678"/>
      <point x="406.054" y="482.678" type="curve" smooth="yes"/>
      <point x="393.246" y="482.678"/>
      <point x="380.331" y="487.492"/>
      <point x="370" y="496" type="curve" smooth="yes"/>
      <point x="352.949" y="510.524"/>
      <point x="330.714" y="518.669"/>
      <point x="307.324" y="518.669" type="curve" smooth="yes"/>
      <point x="293.676" y="518.669"/>
      <point x="279.634" y="515.896"/>
      <point x="266" y="510" type="curve" smooth="yes"/>
      <point x="238" y="498"/>
      <point x="217" y="472"/>
      <point x="211" y="442" type="curve" smooth="yes"/>
      <point x="209.344" y="434.428"/>
      <point x="208.555" y="426.953"/>
      <point x="208.555" y="419.659" type="curve" smooth="yes"/>
      <point x="208.555" y="365.31"/>
      <point x="252.336" y="321"/>
      <point x="307" y="321" type="curve" smooth="yes"/>
      <point x="332" y="321"/>
      <point x="356" y="331"/>
    </contour>
    <contour>
      <point x="307" y="222" type="curve" smooth="yes"/>
      <point x="416" y="222"/>
      <point x="505" y="311"/>
      <point x="505" y="420" type="curve" smooth="yes"/>
      <point x="505" y="529"/>
      <point x="416" y="618"/>
      <point x="307" y="618" type="curve" smooth="yes"/>
      <point x="198" y="618"/>
      <point x="109" y="529"/>
      <point x="109" y="420" type="curve" smooth="yes"/>
      <point x="109" y="311"/>
      <point x="198" y="222"/>
    </contour>
    <contour>
      <point x="307" y="660" type="curve" smooth="yes"/>
      <point x="440" y="660"/>
      <point x="547" y="552"/>
      <point x="547" y="420" type="curve" smooth="yes"/>
      <point x="547" y="287"/>
      <point x="440" y="180"/>
      <point x="307" y="180" type="curve" smooth="yes"/>
      <point x="174" y="180"/>
      <point x="67" y="287"/>
      <point x="67" y="420" type="curve" smooth="yes"/>
      <point x="67" y="552"/>
      <point x="174" y="660"/>
    </contour>
  </outline>
</glyph>
<glyph name="guillemotleft" format="2">
  <advance width="471"/>
  <unicode hex="00AB"/>
  <outline>
    <contour>
      <point x="253.053" y="542.87" type="curve"/>
      <point x="108.032" y="397.85" type="line"/>
      <point x="253.052" y="252.83" type="line"/>
      <point x="236.532" y="236.311"/>
      <point x="209.723" y="236.311"/>
      <point x="193.203" y="252.83" type="curve" smooth="yes"/>
      <point x="64.9531" y="381.08" type="line" smooth="yes"/>
      <point x="55.6836" y="390.33"/>
      <point x="55.6836" y="405.36"/>
      <point x="64.9531" y="414.63" type="curve" smooth="yes"/>
      <point x="193.203" y="542.87" type="line" smooth="yes"/>
      <point x="209.723" y="559.41"/>
      <point x="236.513" y="559.41"/>
    </contour>
    <contour>
      <point x="413.042" y="542.869" type="curve"/>
      <point x="268.022" y="397.849" type="line"/>
      <point x="413.042" y="252.829" type="line"/>
      <point x="396.522" y="236.31"/>
      <point x="369.713" y="236.31"/>
      <point x="353.193" y="252.829" type="curve" smooth="yes"/>
      <point x="224.943" y="381.079" type="line" smooth="yes"/>
      <point x="215.674" y="390.329"/>
      <point x="215.674" y="405.359"/>
      <point x="224.943" y="414.629" type="curve" smooth="yes"/>
      <point x="353.193" y="542.869" type="line" smooth="yes"/>
      <point x="369.713" y="559.409"/>
      <point x="396.522" y="559.409"/>
    </contour>
  </outline>
</glyph>
<glyph name="registered" format="2">
  <advance width="614"/>
  <unicode hex="00AE"/>
  <outline>
    <contour>
      <point x="235.98" y="508.192" type="line"/>
      <point x="235.981" y="431.191" type="line"/>
      <point x="340.501" y="431.191" type="line" smooth="yes"/>
      <point x="360.761" y="431.191"/>
      <point x="377.261" y="447.672"/>
      <point x="377.261" y="467.952" type="curve" smooth="yes"/>
      <point x="377.261" y="471.433" type="line" smooth="yes"/>
      <point x="377.261" y="491.692"/>
      <point x="360.78" y="508.192"/>
      <point x="340.5" y="508.192" type="curve" smooth="yes"/>
    </contour>
    <contour>
      <point x="340.5" y="550.52" type="line" smooth="yes"/>
      <point x="384.1" y="550.52"/>
      <point x="419.59" y="515.032"/>
      <point x="419.59" y="471.422" type="curve" smooth="yes"/>
      <point x="419.59" y="467.932" type="line" smooth="yes"/>
      <point x="419.59" y="445.342"/>
      <point x="410.01" y="424.972"/>
      <point x="394.75" y="410.552" type="curve"/>
      <point x="409.96" y="396.062"/>
      <point x="419.59" y="375.231"/>
      <point x="419.59" y="352.021" type="curve" smooth="yes"/>
      <point x="419.59" y="289.392" type="line"/>
      <point x="396.21" y="289.392"/>
      <point x="377.26" y="308.342"/>
      <point x="377.26" y="331.722" type="curve" smooth="yes"/>
      <point x="377.26" y="352.021" type="line" smooth="yes"/>
      <point x="377.26" y="372.331"/>
      <point x="362.399" y="388.851"/>
      <point x="344.14" y="388.851" type="curve"/>
      <point x="344.14" y="389.03" type="line"/>
      <point x="342.93" y="388.98"/>
      <point x="341.729" y="388.851"/>
      <point x="340.499" y="388.851" type="curve" smooth="yes"/>
      <point x="235.979" y="388.851" type="line"/>
      <point x="235.979" y="331.7" type="line" smooth="yes"/>
      <point x="235.979" y="308.32"/>
      <point x="217.029" y="289.38"/>
      <point x="193.649" y="289.38" type="curve"/>
      <point x="193.649" y="529.35" type="line" smooth="yes"/>
      <point x="193.649" y="541.05"/>
      <point x="203.119" y="550.52"/>
      <point x="214.81" y="550.52" type="curve" smooth="yes"/>
    </contour>
    <contour>
      <point x="306.61" y="222.649" type="curve" smooth="yes"/>
      <point x="415.4" y="222.649"/>
      <point x="503.91" y="311.159"/>
      <point x="503.91" y="419.949" type="curve" smooth="yes"/>
      <point x="503.91" y="528.729"/>
      <point x="415.4" y="617.229"/>
      <point x="306.61" y="617.229" type="curve" smooth="yes"/>
      <point x="197.82" y="617.229"/>
      <point x="109.33" y="528.729"/>
      <point x="109.33" y="419.949" type="curve" smooth="yes"/>
      <point x="109.33" y="311.159"/>
      <point x="197.82" y="222.649"/>
    </contour>
    <contour>
      <point x="306.61" y="659.56" type="curve" smooth="yes"/>
      <point x="438.96" y="659.56"/>
      <point x="546.24" y="552.279"/>
      <point x="546.24" y="419.949" type="curve" smooth="yes"/>
      <point x="546.24" y="287.609"/>
      <point x="438.95" y="180.319"/>
      <point x="306.61" y="180.319" type="curve" smooth="yes"/>
      <point x="174.28" y="180.319"/>
      <point x="67" y="287.609"/>
      <point x="67" y="419.949" type="curve" smooth="yes"/>
      <point x="67" y="552.279"/>
      <point x="174.28" y="659.56"/>
    </contour>
  </outline>
</glyph>
<glyph name="degree" format="2">
  <advance width="270"/>
  <unicode hex="00B0"/>
  <outline>
    <contour>
      <point x="134.987" y="639.82" type="curve" smooth="yes"/>
      <point x="179.165" y="639.82"/>
      <point x="214.976" y="604.01"/>
      <point x="214.976" y="559.832" type="curve" smooth="yes"/>
      <point x="214.976" y="515.654"/>
      <point x="179.165" y="479.844"/>
      <point x="134.987" y="479.844" type="curve" smooth="yes"/>
      <point x="90.8096" y="479.844"/>
      <point x="54.999" y="515.654"/>
      <point x="54.999" y="559.832" type="curve" smooth="yes"/>
      <point x="54.999" y="604.01"/>
      <point x="90.8096" y="639.82"/>
    </contour>
    <contour>
      <point x="134.987" y="522.16" type="curve" smooth="yes"/>
      <point x="155.742" y="522.16"/>
      <point x="172.645" y="539.063"/>
      <point x="172.645" y="559.818" type="curve" smooth="yes"/>
      <point x="172.645" y="580.573"/>
      <point x="155.741" y="597.477"/>
      <point x="134.986" y="597.477" type="curve" smooth="yes"/>
      <point x="114.231" y="597.477"/>
      <point x="97.3281" y="580.573"/>
      <point x="97.3281" y="559.818" type="curve" smooth="yes"/>
      <point x="97.3281" y="539.063"/>
      <point x="114.218" y="522.16"/>
    </contour>
  </outline>
</glyph>
<glyph name="plusminus" format="2">
  <advance width="356"/>
  <unicode hex="00B1"/>
  <outline>
    <contour>
      <point x="58" y="239.713" type="line"/>
      <point x="58" y="263.093"/>
      <point x="76.9492" y="282.042"/>
      <point x="100.329" y="282.042" type="curve" smooth="yes"/>
      <point x="297.978" y="282.042" type="line"/>
      <point x="297.978" y="258.662"/>
      <point x="279.028" y="239.713"/>
      <point x="255.648" y="239.713" type="curve" smooth="yes"/>
    </contour>
    <contour>
      <point x="156.824" y="340.865" type="curve"/>
      <point x="156.824" y="439.689" type="line"/>
      <point x="58" y="439.689" type="line"/>
      <point x="58" y="463.069"/>
      <point x="76.9492" y="482.019"/>
      <point x="100.329" y="482.019" type="curve" smooth="yes"/>
      <point x="156.824" y="482.019" type="line"/>
      <point x="156.824" y="538.514" type="line" smooth="yes"/>
      <point x="156.824" y="561.894"/>
      <point x="175.773" y="580.843"/>
      <point x="199.153" y="580.843" type="curve"/>
      <point x="199.153" y="482.019" type="line"/>
      <point x="297.978" y="482.019" type="line"/>
      <point x="297.978" y="458.639"/>
      <point x="279.028" y="439.689"/>
      <point x="255.648" y="439.689" type="curve" smooth="yes"/>
      <point x="199.153" y="439.689" type="line"/>
      <point x="199.153" y="383.194" type="line" smooth="yes"/>
      <point x="199.153" y="359.814"/>
      <point x="180.204" y="340.865"/>
    </contour>
  </outline>
</glyph>
<glyph name="twosuperior" format="2">
  <advance width="324"/>
  <unicode hex="00B2"/>
  <outline>
    <contour>
      <point x="152.265" y="522.329" type="line"/>
      <point x="199.66" y="522.329" type="line" smooth="yes"/>
      <point x="223.04" y="522.329"/>
      <point x="241.989" y="503.38"/>
      <point x="241.989" y="480" type="curve"/>
      <point x="101.175" y="480" type="line" smooth="yes"/>
      <point x="92.6104" y="480"/>
      <point x="84.8926" y="485.15"/>
      <point x="81.6191" y="493.066" type="curve" smooth="yes"/>
      <point x="78.332" y="500.981"/>
      <point x="80.1523" y="510.082"/>
      <point x="86.2051" y="516.135" type="curve" smooth="yes"/>
      <point x="191.28" y="621.195" type="line" smooth="yes"/>
      <point x="203.033" y="632.963"/>
      <point x="203.062" y="648.258"/>
      <point x="199.167" y="658.656" type="curve" smooth="yes"/>
      <point x="194.482" y="671.172"/>
      <point x="183.957" y="679.172"/>
      <point x="171.019" y="680.047" type="curve" smooth="yes"/>
      <point x="170.045" y="680.104"/>
      <point x="168.973" y="680.146"/>
      <point x="167.886" y="680.146" type="curve" smooth="yes"/>
      <point x="157.317" y="680.146"/>
      <point x="147.44" y="676.52"/>
      <point x="139.596" y="670.312" type="curve" smooth="yes"/>
      <point x="123.397" y="657.485"/>
      <point x="102.825" y="651.56"/>
      <point x="82.832" y="656.766" type="curve"/>
      <point x="92.9062" y="695.44"/>
      <point x="127.884" y="722.461"/>
      <point x="167.898" y="722.461" type="curve" smooth="yes"/>
      <point x="169.888" y="722.461"/>
      <point x="171.849" y="722.391"/>
      <point x="173.81" y="722.264" type="curve" smooth="yes"/>
      <point x="203.412" y="720.26"/>
      <point x="228.287" y="701.578"/>
      <point x="238.812" y="673.5" type="curve" smooth="yes"/>
      <point x="249.691" y="644.49"/>
      <point x="242.947" y="612.983"/>
      <point x="221.204" y="591.255" type="curve" smooth="yes"/>
    </contour>
  </outline>
</glyph>
<glyph name="threesuperior" format="2">
  <advance width="313"/>
  <unicode hex="00B3"/>
  <outline>
    <contour>
      <point x="207.65" y="609.287" type="curve"/>
      <point x="223.241" y="595.699"/>
      <point x="233.116" y="576.072"/>
      <point x="233.116" y="554.202" type="curve" smooth="yes"/>
      <point x="233.116" y="513.284"/>
      <point x="198.773" y="479.999"/>
      <point x="156.558" y="479.999" type="curve" smooth="yes"/>
      <point x="114.342" y="479.999"/>
      <point x="79.999" y="513.284"/>
      <point x="79.999" y="554.188" type="curve"/>
      <point x="106.638" y="554.188" type="line" smooth="yes"/>
      <point x="114.482" y="554.188"/>
      <point x="121.664" y="549.646"/>
      <point x="124.754" y="542.436" type="curve" smooth="yes"/>
      <point x="129.791" y="530.668"/>
      <point x="142.151" y="522.329"/>
      <point x="156.571" y="522.329" type="curve" smooth="yes"/>
      <point x="175.45" y="522.329"/>
      <point x="190.802" y="536.637"/>
      <point x="190.802" y="554.203" type="curve" smooth="yes"/>
      <point x="190.802" y="568.765"/>
      <point x="180.233" y="581.082"/>
      <point x="165.87" y="584.863" type="curve" smooth="yes"/>
      <point x="160.494" y="586.274"/>
      <point x="156.571" y="590.86"/>
      <point x="156.571" y="596.42" type="curve" smooth="yes"/>
      <point x="156.571" y="619.108" type="line" smooth="yes"/>
      <point x="156.571" y="624.132"/>
      <point x="160.113" y="628.125"/>
      <point x="164.883" y="629.72" type="curve" smooth="yes"/>
      <point x="175.338" y="633.205"/>
      <point x="182.9" y="643.082"/>
      <point x="182.9" y="654.694" type="curve" smooth="yes"/>
      <point x="182.9" y="669.213"/>
      <point x="171.091" y="681.022"/>
      <point x="156.572" y="681.022" type="curve" smooth="yes"/>
      <point x="146.413" y="681.022"/>
      <point x="137.58" y="675.237"/>
      <point x="133.192" y="666.785" type="curve" smooth="yes"/>
      <point x="129.523" y="659.716"/>
      <point x="122.906" y="654.692"/>
      <point x="114.948" y="654.692" type="curve" smooth="yes"/>
      <point x="87.9141" y="654.692" type="line"/>
      <point x="87.9141" y="697.219"/>
      <point x="126.772" y="730.828"/>
      <point x="170.823" y="721.911" type="curve" smooth="yes"/>
      <point x="197.477" y="716.507"/>
      <point x="218.74" y="694.679"/>
      <point x="223.919" y="667.983" type="curve" smooth="yes"/>
      <point x="228.321" y="645.281"/>
      <point x="221.125" y="624.427"/>
    </contour>
  </outline>
</glyph>
<glyph name="acute" format="2">
  <advance width="141"/>
  <unicode hex="00B4"/>
  <outline>
    <contour>
      <point x="60" y="526" type="line" smooth="yes"/>
      <point x="67.7873" y="540.867"/>
      <point x="82.5912" y="549.719"/>
      <point x="98.0251" y="549.719" type="curve" smooth="yes"/>
      <point x="104.392" y="549.719"/>
      <point x="110.867" y="548.213"/>
      <point x="117" y="545" type="curve"/>
      <point x="96" y="503" type="line" smooth="yes"/>
      <point x="88.1835" y="488.078"/>
      <point x="73.2979" y="479.719"/>
      <point x="57.8017" y="479.719" type="curve" smooth="yes"/>
      <point x="51.4903" y="479.719"/>
      <point x="45.0776" y="481.106"/>
      <point x="39" y="484" type="curve"/>
    </contour>
  </outline>
</glyph>
<glyph name="paragraph" format="2">
  <advance width="532"/>
  <unicode hex="00B6"/>
  <outline>
    <contour>
      <point x="464.96" y="597.48" type="curve"/>
      <point x="406.13" y="597.479" type="line"/>
      <point x="406.13" y="42.21" type="line" smooth="yes"/>
      <point x="406.13" y="18.8301"/>
      <point x="387.18" y="-0.120117"/>
      <point x="363.8" y="-0.120117" type="curve"/>
      <point x="363.8" y="597.479" type="line"/>
      <point x="246.18" y="597.479" type="line"/>
      <point x="246.18" y="41.46" type="line" smooth="yes"/>
      <point x="246.18" y="18.4902"/>
      <point x="227.229" y="-0.120117"/>
      <point x="203.85" y="-0.120117" type="curve"/>
      <point x="203.85" y="321.39" type="line"/>
      <point x="125.5" y="331.75"/>
      <point x="65" y="398.65"/>
      <point x="65" y="479.82" type="curve" smooth="yes"/>
      <point x="65" y="568.19"/>
      <point x="136.63" y="639.811"/>
      <point x="224.99" y="639.811" type="curve"/>
      <point x="224.99" y="628.41" type="line"/>
      <point x="225.01" y="628.41" type="line"/>
      <point x="225.01" y="639.811" type="line"/>
      <point x="422.64" y="639.811" type="line" smooth="yes"/>
      <point x="446.01" y="639.811"/>
      <point x="464.96" y="620.86"/>
    </contour>
  </outline>
</glyph>
<glyph name="cedilla" format="2">
  <advance width="107"/>
  <unicode hex="00B8"/>
  <outline>
    <contour>
      <point x="89" y="-49" type="line" smooth="yes"/>
      <point x="124.776" y="-49"/>
      <point x="154.349" y="-78.251"/>
      <point x="154.349" y="-114.221" type="curve" smooth="yes"/>
      <point x="154.349" y="-116.457"/>
      <point x="154.234" y="-118.718"/>
      <point x="154" y="-121" type="curve" smooth="yes"/>
      <point x="151" y="-155"/>
      <point x="120" y="-180"/>
      <point x="86" y="-180" type="curve" smooth="yes"/>
      <point x="-28" y="-180" type="line"/>
      <point x="-28" y="-157"/>
      <point x="-9" y="-138"/>
      <point x="15" y="-138" type="curve" smooth="yes"/>
      <point x="87" y="-138" type="line" smooth="yes"/>
      <point x="99" y="-138"/>
      <point x="110" y="-130"/>
      <point x="112" y="-119" type="curve" smooth="yes"/>
      <point x="112.158" y="-117.81"/>
      <point x="112.235" y="-116.639"/>
      <point x="112.235" y="-115.49" type="curve" smooth="yes"/>
      <point x="112.235" y="-102.171"/>
      <point x="101.89" y="-92"/>
      <point x="89" y="-92" type="curve" smooth="yes"/>
      <point x="-7" y="-92" type="line" smooth="yes"/>
      <point x="-15" y="-92"/>
      <point x="-23" y="-87"/>
      <point x="-26" y="-79" type="curve" smooth="yes"/>
      <point x="-30" y="-71"/>
      <point x="-28" y="-62"/>
      <point x="-22" y="-56" type="curve" smooth="yes"/>
      <point x="53" y="20" type="line"/>
      <point x="83" y="-9" type="line"/>
      <point x="44" y="-49" type="line"/>
    </contour>
  </outline>
</glyph>
<glyph name="onesuperior" format="2">
  <advance width="269"/>
  <unicode hex="00B9"/>
  <outline>
    <contour>
      <point x="176" y="719" type="curve" smooth="yes"/>
      <point x="184" y="716"/>
      <point x="189" y="708"/>
      <point x="189" y="699" type="curve" smooth="yes"/>
      <point x="189" y="522" type="line" smooth="yes"/>
      <point x="189" y="499"/>
      <point x="170" y="480"/>
      <point x="147" y="480" type="curve"/>
      <point x="147" y="648" type="line"/>
      <point x="140" y="641" type="line" smooth="yes"/>
      <point x="131.5" y="633"/>
      <point x="120.75" y="629"/>
      <point x="110" y="629" type="curve" smooth="yes"/>
      <point x="99.25" y="629"/>
      <point x="88.5" y="633"/>
      <point x="80" y="641" type="curve"/>
      <point x="153" y="714" type="line" smooth="yes"/>
      <point x="159" y="720"/>
      <point x="168" y="722"/>
    </contour>
  </outline>
</glyph>
<glyph name="guillemotright" format="2">
  <advance width="471"/>
  <unicode hex="00BB"/>
  <outline>
    <contour>
      <point x="405.086" y="414.629" type="line" smooth="yes"/>
      <point x="414.356" y="405.358"/>
      <point x="414.355" y="390.347"/>
      <point x="405.085" y="381.076" type="curve" smooth="yes"/>
      <point x="276.842" y="252.833" type="line" smooth="yes"/>
      <point x="260.319" y="236.311"/>
      <point x="233.525" y="236.311"/>
      <point x="216.989" y="252.833" type="curve"/>
      <point x="362.009" y="397.853" type="line"/>
      <point x="216.989" y="542.872" type="line"/>
      <point x="233.512" y="559.408"/>
      <point x="260.32" y="559.408"/>
      <point x="276.843" y="542.872" type="curve" smooth="yes"/>
    </contour>
    <contour>
      <point x="245.096" y="414.63" type="line" smooth="yes"/>
      <point x="254.366" y="405.359"/>
      <point x="254.366" y="390.348"/>
      <point x="245.096" y="381.077" type="curve" smooth="yes"/>
      <point x="116.853" y="252.834" type="line" smooth="yes"/>
      <point x="100.33" y="236.312"/>
      <point x="73.5215" y="236.312"/>
      <point x="56.999" y="252.834" type="curve"/>
      <point x="202.019" y="397.854" type="line"/>
      <point x="56.999" y="542.873" type="line"/>
      <point x="73.5215" y="559.409"/>
      <point x="100.33" y="559.409"/>
      <point x="116.853" y="542.873" type="curve" smooth="yes"/>
    </contour>
  </outline>
</glyph>
<glyph name="onequarter" format="2">
  <advance width="1000"/>
  <unicode hex="00BC"/>
  <outline>
    <contour>
      <point x="89" y="-168" type="curve"/>
      <point x="543" y="740" type="line" smooth="yes"/>
      <point x="558.601" y="770.493"/>
      <point x="589.288" y="788.414"/>
      <point x="621.154" y="788.414" type="curve" smooth="yes"/>
      <point x="634.224" y="788.414"/>
      <point x="647.493" y="785.399"/>
      <point x="660" y="779" type="curve"/>
      <point x="206" y="-129" type="line" smooth="yes"/>
      <point x="191.081" y="-159.549"/>
      <point x="160.01" y="-176.975"/>
      <point x="127.848" y="-176.975" type="curve" smooth="yes"/>
      <point x="114.74" y="-176.975"/>
      <point x="101.451" y="-174.081"/>
    </contour>
    <contour>
      <point x="137" y="306" type="curve"/>
      <point x="137" y="652" type="line"/>
      <point x="123" y="637" type="line" smooth="yes"/>
      <point x="106" y="620"/>
      <point x="83.75" y="611.5"/>
      <point x="61.5" y="611.5" type="curve" smooth="yes"/>
      <point x="39.25" y="611.5"/>
      <point x="17" y="620"/>
      <point x="0" y="637" type="curve"/>
      <point x="150" y="787" type="line" smooth="yes"/>
      <point x="158.744" y="795.744"/>
      <point x="169.75" y="799.964"/>
      <point x="181.193" y="799.964" type="curve" smooth="yes"/>
      <point x="186.762" y="799.964"/>
      <point x="192.435" y="798.964"/>
      <point x="198" y="797" type="curve" smooth="yes"/>
      <point x="214" y="790"/>
      <point x="224" y="774"/>
      <point x="224" y="757" type="curve" smooth="yes"/>
      <point x="224" y="393" type="line" smooth="yes"/>
      <point x="224" y="345"/>
      <point x="185" y="306"/>
    </contour>
    <contour>
      <point x="578" y="-6" type="line"/>
      <point x="668" y="-6" type="line"/>
      <point x="668" y="119" type="line"/>
    </contour>
    <contour>
      <point x="668" y="-200" type="curve" smooth="yes"/>
      <point x="668" y="-92" type="line"/>
      <point x="492" y="-92" type="line" smooth="yes"/>
      <point x="476" y="-92"/>
      <point x="461" y="-83"/>
      <point x="454" y="-69" type="curve" smooth="yes"/>
      <point x="450.581" y="-62.589"/>
      <point x="448.988" y="-55.8126"/>
      <point x="448.988" y="-49.0613" type="curve" smooth="yes"/>
      <point x="448.988" y="-40.0164"/>
      <point x="451.847" y="-31.0164"/>
      <point x="457" y="-23" type="curve" smooth="yes"/>
      <point x="677" y="278" type="line" smooth="yes"/>
      <point x="685.19" y="289.913"/>
      <point x="697.815" y="296.282"/>
      <point x="711.161" y="296.282" type="curve" smooth="yes"/>
      <point x="715.739" y="296.282"/>
      <point x="720.402" y="295.533"/>
      <point x="725" y="294" type="curve" smooth="yes"/>
      <point x="743" y="288"/>
      <point x="755" y="272"/>
      <point x="755" y="253" type="curve" smooth="yes"/>
      <point x="755" y="-6" type="line"/>
      <point x="787" y="-6"/>
      <point x="813" y="-31"/>
      <point x="813" y="-63" type="curve" smooth="yes"/>
      <point x="813" y="-93" type="line"/>
      <point x="755" y="-93" type="line"/>
      <point x="755" y="-113" type="line" smooth="yes"/>
      <point x="755" y="-158.491"/>
      <point x="682.247" y="-200.389"/>
      <point x="669.534" y="-200.389" type="curve" smooth="yes"/>
      <point x="668.832" y="-200.389"/>
      <point x="668.314" y="-200.261"/>
    </contour>
  </outline>
</glyph>
<glyph name="questiondown" format="2">
  <advance width="470"/>
  <unicode hex="00BF"/>
  <outline>
    <contour>
      <point x="237.16" y="560.75" type="curve" smooth="yes"/>
      <point x="215.07" y="560.75"/>
      <point x="197.16" y="578.65"/>
      <point x="197.16" y="600.75" type="curve" smooth="yes"/>
      <point x="197.16" y="622.85"/>
      <point x="215.08" y="640.75"/>
      <point x="237.16" y="640.75" type="curve" smooth="yes"/>
      <point x="259.25" y="640.75"/>
      <point x="277.15" y="622.85"/>
      <point x="277.15" y="600.75" type="curve" smooth="yes"/>
      <point x="277.15" y="578.65"/>
      <point x="259.25" y="560.75"/>
    </contour>
    <contour>
      <point x="362.9" y="117.96" type="curve" smooth="yes"/>
      <point x="370.091" y="138.39"/>
      <point x="389.684" y="151.79"/>
      <point x="411.323" y="151.2" type="curve"/>
      <point x="408.554" y="50.5703"/>
      <point x="321.994" y="2.58008"/>
      <point x="242.725" y="0.580078" type="curve" smooth="yes"/>
      <point x="161.725" y="-1.68945"/>
      <point x="71.1143" y="42.8506"/>
      <point x="63.124" y="144.99" type="curve" smooth="yes"/>
      <point x="60.5039" y="204.271"/>
      <point x="101.184" y="246.601"/>
      <point x="132.323" y="273.461" type="curve" smooth="yes"/>
      <point x="217.403" y="357.651"/>
      <point x="216.583" y="394.831"/>
      <point x="215.523" y="441.871" type="curve" smooth="yes"/>
      <point x="215.523" y="442.001"/>
      <point x="215.523" y="442.131"/>
      <point x="215.523" y="442.261" type="curve" smooth="yes"/>
      <point x="215.033" y="463.801"/>
      <point x="233.283" y="481.061"/>
      <point x="254.793" y="479.461" type="curve" smooth="yes"/>
      <point x="258.263" y="479.211" type="line"/>
      <point x="257.312" y="466.501"/>
      <point x="257.582" y="454.461"/>
      <point x="257.852" y="442.821" type="curve" smooth="yes"/>
      <point x="259.031" y="390.052"/>
      <point x="260.151" y="340.212"/>
      <point x="161.562" y="242.842" type="curve"/>
      <point x="160.491" y="241.861" type="line" smooth="yes"/>
      <point x="120.991" y="207.892"/>
      <point x="104.001" y="178.812"/>
      <point x="105.381" y="147.581" type="curve" smooth="yes"/>
      <point x="111.181" y="73.6406"/>
      <point x="180.291" y="41.1602"/>
      <point x="241.681" y="42.8799" type="curve" smooth="yes"/>
      <point x="293.001" y="44.1797"/>
      <point x="345.311" y="68.04"/>
    </contour>
  </outline>
</glyph>
<glyph name="Agrave" format="2">
  <advance width="699"/>
  <unicode hex="00C0"/>
  <outline>
    <contour>
      <point x="399.542" y="688.221" type="line"/>
      <point x="383.02" y="671.685"/>
      <point x="356.212" y="671.685"/>
      <point x="339.689" y="688.221" type="curve" smooth="yes"/>
      <point x="289.628" y="738.282" type="line"/>
      <point x="306.15" y="754.805"/>
      <point x="332.944" y="754.805"/>
      <point x="349.48" y="738.282" type="curve" smooth="yes"/>
    </contour>
    <contour>
      <point x="368.403" y="627.365" type="curve" smooth="yes"/>
      <point x="681.906" y="0.332031" type="line"/>
      <point x="652.896" y="0.332031"/>
      <point x="626.385" y="16.7129"/>
      <point x="613.418" y="42.6602" type="curve" smooth="yes"/>
      <point x="529.762" y="209.973" type="line"/>
      <point x="169.161" y="209.973" type="line"/>
      <point x="85.5049" y="42.6602" type="line" smooth="yes"/>
      <point x="72.5381" y="16.7266"/>
      <point x="46.0117" y="0.331055"/>
      <point x="17.002" y="0.331055" type="curve"/>
      <point x="330.533" y="627.365" type="line" smooth="yes"/>
      <point x="334.131" y="634.533"/>
      <point x="341.439" y="639.062"/>
      <point x="349.468" y="639.062" type="curve" smooth="yes"/>
      <point x="357.496" y="639.062"/>
      <point x="364.819" y="634.533"/>
    </contour>
    <contour>
      <point x="190.325" y="252.303" type="line"/>
      <point x="508.597" y="252.303" type="line"/>
      <point x="349.468" y="570.574" type="line"/>
    </contour>
  </outline>
</glyph>
<glyph name="Aacute" format="2">
  <advance width="699"/>
  <unicode hex="00C1"/>
  <outline>
    <contour>
      <point x="354.36" y="688.22" type="line" smooth="yes"/>
      <point x="337.841" y="671.68"/>
      <point x="311.031" y="671.68"/>
      <point x="294.512" y="688.22" type="curve"/>
      <point x="344.571" y="738.279" type="line" smooth="yes"/>
      <point x="361.091" y="754.799"/>
      <point x="387.9" y="754.799"/>
      <point x="404.42" y="738.279" type="curve"/>
    </contour>
    <contour>
      <point x="368.4" y="627.37" type="curve" smooth="yes"/>
      <point x="681.869" y="0.330078" type="line"/>
      <point x="652.879" y="0.330078"/>
      <point x="626.349" y="16.71"/>
      <point x="613.379" y="42.6602" type="curve" smooth="yes"/>
      <point x="529.739" y="209.97" type="line"/>
      <point x="169.14" y="209.97" type="line"/>
      <point x="85.4893" y="42.6602" type="line" smooth="yes"/>
      <point x="72.5195" y="16.7305"/>
      <point x="46.0098" y="0.330078"/>
      <point x="17" y="0.330078" type="curve"/>
      <point x="330.53" y="627.37" type="line" smooth="yes"/>
      <point x="334.13" y="634.53"/>
      <point x="341.43" y="639.061"/>
      <point x="349.46" y="639.061" type="curve" smooth="yes"/>
      <point x="357.49" y="639.061"/>
      <point x="364.811" y="634.53"/>
    </contour>
    <contour>
      <point x="190.319" y="252.3" type="line"/>
      <point x="508.589" y="252.3" type="line"/>
      <point x="349.459" y="570.569" type="line"/>
    </contour>
  </outline>
</glyph>
<glyph name="Acircumflex" format="2">
  <advance width="699"/>
  <unicode hex="00C2"/>
  <outline>
    <contour>
      <point x="190" y="252" type="line"/>
      <point x="509" y="252" type="line"/>
      <point x="349" y="571" type="line"/>
    </contour>
    <contour>
      <point x="368" y="627" type="curve" smooth="yes"/>
      <point x="682" y="0" type="line"/>
      <point x="653" y="0"/>
      <point x="626" y="17"/>
      <point x="613" y="43" type="curve" smooth="yes"/>
      <point x="530" y="210" type="line"/>
      <point x="169" y="210" type="line"/>
      <point x="86" y="43" type="line" smooth="yes"/>
      <point x="73" y="17"/>
      <point x="46" y="0"/>
      <point x="17" y="0" type="curve"/>
      <point x="331" y="627" type="line" smooth="yes"/>
      <point x="334" y="635"/>
      <point x="341" y="639"/>
      <point x="349" y="639" type="curve" smooth="yes"/>
      <point x="357" y="639"/>
      <point x="365" y="635"/>
    </contour>
    <contour>
      <point x="330" y="688" type="line" smooth="yes"/>
      <point x="321.5" y="680"/>
      <point x="310.5" y="676"/>
      <point x="299.625" y="676" type="curve" smooth="yes"/>
      <point x="288.75" y="676"/>
      <point x="278" y="680"/>
      <point x="270" y="688" type="curve"/>
      <point x="320" y="738" type="line" smooth="yes"/>
      <point x="328" y="747"/>
      <point x="339" y="751"/>
      <point x="350" y="751" type="curve" smooth="yes"/>
      <point x="361" y="751"/>
      <point x="372" y="747"/>
      <point x="380" y="738" type="curve" smooth="yes"/>
      <point x="430" y="688" type="line"/>
      <point x="421.5" y="680"/>
      <point x="410.75" y="676"/>
      <point x="400" y="676" type="curve" smooth="yes"/>
      <point x="389.25" y="676"/>
      <point x="378.5" y="680"/>
      <point x="370" y="688" type="curve" smooth="yes"/>
      <point x="350" y="708" type="line"/>
    </contour>
  </outline>
</glyph>
<glyph name="Atilde" format="2">
  <advance width="699"/>
  <unicode hex="00C3"/>
  <outline>
    <contour>
      <point x="190" y="252" type="line"/>
      <point x="509" y="252" type="line"/>
      <point x="349" y="571" type="line"/>
    </contour>
    <contour>
      <point x="368" y="627" type="curve" smooth="yes"/>
      <point x="682" y="0" type="line"/>
      <point x="653" y="0"/>
      <point x="626" y="17"/>
      <point x="613" y="43" type="curve" smooth="yes"/>
      <point x="530" y="210" type="line"/>
      <point x="169" y="210" type="line"/>
      <point x="86" y="43" type="line" smooth="yes"/>
      <point x="73" y="17"/>
      <point x="46" y="0"/>
      <point x="17" y="0" type="curve"/>
      <point x="331" y="627" type="line" smooth="yes"/>
      <point x="334" y="635"/>
      <point x="341" y="639"/>
      <point x="349" y="639" type="curve" smooth="yes"/>
      <point x="357" y="639"/>
      <point x="365" y="635"/>
    </contour>
    <contour>
      <point x="238" y="724" type="curve" smooth="yes"/>
      <point x="230.19" y="720.095"/>
      <point x="221.923" y="718.173"/>
      <point x="213.854" y="718.173" type="curve" smooth="yes"/>
      <point x="201.258" y="718.173"/>
      <point x="189.143" y="722.857"/>
      <point x="180" y="732" type="curve" smooth="yes"/>
      <point x="179" y="733" type="line"/>
      <point x="208.021" y="762.021"/>
      <point x="236.335" y="772.291"/>
      <point x="263.272" y="772.291" type="curve" smooth="yes"/>
      <point x="300.378" y="772.291"/>
      <point x="334.871" y="752.803"/>
      <point x="365" y="736" type="curve" smooth="yes"/>
      <point x="396.429" y="718.143"/>
      <point x="420.714" y="705.388"/>
      <point x="443.688" y="705.388" type="curve" smooth="yes"/>
      <point x="452.878" y="705.388"/>
      <point x="461.857" y="707.429"/>
      <point x="471" y="712" type="curve" smooth="yes"/>
      <point x="478.5" y="715.375"/>
      <point x="486.422" y="717.062"/>
      <point x="494.186" y="717.062" type="curve" smooth="yes"/>
      <point x="507.125" y="717.062"/>
      <point x="519.625" y="712.375"/>
      <point x="529" y="703" type="curve"/>
      <point x="500" y="673"/>
      <point x="472" y="663"/>
      <point x="445" y="663" type="curve" smooth="yes"/>
      <point x="408" y="663"/>
      <point x="374" y="682"/>
      <point x="344" y="699" type="curve" smooth="yes"/>
      <point x="312.111" y="717.119"/>
      <point x="287.576" y="729.985"/>
      <point x="264.304" y="729.985" type="curve" smooth="yes"/>
      <point x="255.465" y="729.985"/>
      <point x="246.808" y="728.129"/>
    </contour>
  </outline>
</glyph>
<glyph name="Adieresis" format="2">
  <advance width="699"/>
  <unicode hex="00C4"/>
  <outline>
    <contour>
      <point x="410.899" y="677.641" type="curve" smooth="yes"/>
      <point x="388.817" y="677.641"/>
      <point x="370.913" y="695.546"/>
      <point x="370.913" y="717.642" type="curve" smooth="yes"/>
      <point x="370.913" y="739.737"/>
      <point x="388.804" y="757.643"/>
      <point x="410.899" y="757.643" type="curve" smooth="yes"/>
      <point x="432.995" y="757.643"/>
      <point x="450.9" y="739.737"/>
      <point x="450.9" y="717.642" type="curve" smooth="yes"/>
      <point x="450.9" y="695.546"/>
      <point x="432.995" y="677.641"/>
    </contour>
    <contour>
      <point x="290.91" y="677.641" type="curve" smooth="yes"/>
      <point x="268.828" y="677.641"/>
      <point x="250.924" y="695.546"/>
      <point x="250.924" y="717.642" type="curve" smooth="yes"/>
      <point x="250.924" y="739.737"/>
      <point x="268.814" y="757.643"/>
      <point x="290.91" y="757.643" type="curve" smooth="yes"/>
      <point x="313.006" y="757.643"/>
      <point x="330.911" y="739.737"/>
      <point x="330.911" y="717.642" type="curve" smooth="yes"/>
      <point x="330.911" y="695.546"/>
      <point x="312.992" y="677.641"/>
    </contour>
    <contour>
      <point x="190.322" y="252.304" type="line"/>
      <point x="508.594" y="252.305" type="line"/>
      <point x="349.465" y="570.576" type="line"/>
    </contour>
    <contour>
      <point x="368.401" y="627.366" type="curve" smooth="yes"/>
      <point x="681.89" y="0.333008" type="line"/>
      <point x="652.895" y="0.333008"/>
      <point x="626.368" y="16.7139"/>
      <point x="613.401" y="42.6611" type="curve" smooth="yes"/>
      <point x="529.759" y="209.974" type="line"/>
      <point x="169.158" y="209.974" type="line"/>
      <point x="85.502" y="42.6611" type="line" smooth="yes"/>
      <point x="72.5215" y="16.7275"/>
      <point x="46.0098" y="0.332031"/>
      <point x="17" y="0.332031" type="curve"/>
      <point x="330.531" y="627.366" type="line" smooth="yes"/>
      <point x="334.129" y="634.534"/>
      <point x="341.438" y="639.063"/>
      <point x="349.466" y="639.063" type="curve" smooth="yes"/>
      <point x="357.494" y="639.063"/>
      <point x="364.817" y="634.534"/>
    </contour>
  </outline>
</glyph>
<glyph name="Aring" format="2">
  <advance width="699"/>
  <unicode hex="00C5"/>
  <outline>
    <contour>
      <point x="368.388" y="627.366" type="curve" smooth="yes"/>
      <point x="681.889" y="0.320312" type="line"/>
      <point x="652.894" y="0.320312"/>
      <point x="626.367" y="16.7012"/>
      <point x="613.4" y="42.6484" type="curve" smooth="yes"/>
      <point x="529.758" y="209.961" type="line"/>
      <point x="169.157" y="209.961" type="line"/>
      <point x="85.501" y="42.6484" type="line" smooth="yes"/>
      <point x="72.5205" y="16.7148"/>
      <point x="46.0088" y="0.319336"/>
      <point x="16.999" y="0.319336" type="curve"/>
      <point x="330.53" y="627.354" type="line" smooth="yes"/>
      <point x="330.799" y="627.903"/>
      <point x="331.236" y="628.326"/>
      <point x="331.547" y="628.834" type="curve"/>
      <point x="294.622" y="635.932"/>
      <point x="266.713" y="668.355"/>
      <point x="266.713" y="707.354" type="curve" smooth="yes"/>
      <point x="266.713" y="751.532"/>
      <point x="302.523" y="787.343"/>
      <point x="346.701" y="787.343" type="curve" smooth="yes"/>
      <point x="390.879" y="787.343"/>
      <point x="426.689" y="751.532"/>
      <point x="426.689" y="707.354" type="curve" smooth="yes"/>
      <point x="426.689" y="670.062"/>
      <point x="401.123" y="638.823"/>
      <point x="366.597" y="629.962" type="curve"/>
      <point x="367.203" y="629.102"/>
      <point x="367.908" y="628.325"/>
    </contour>
    <contour>
      <point x="309.026" y="707.356" type="curve" smooth="yes"/>
      <point x="309.026" y="686.602"/>
      <point x="325.93" y="669.699"/>
      <point x="346.685" y="669.699" type="curve" smooth="yes"/>
      <point x="367.439" y="669.699"/>
      <point x="384.343" y="686.603"/>
      <point x="384.343" y="707.357" type="curve" smooth="yes"/>
      <point x="384.343" y="728.112"/>
      <point x="367.439" y="745.016"/>
      <point x="346.685" y="745.016" type="curve" smooth="yes"/>
      <point x="325.93" y="745.016"/>
      <point x="309.026" y="728.126"/>
    </contour>
    <contour>
      <point x="190.293" y="252.307" type="line"/>
      <point x="508.564" y="252.307" type="line"/>
      <point x="349.436" y="570.578" type="line"/>
    </contour>
  </outline>
</glyph>
<glyph name="AE" format="2">
  <advance width="702"/>
  <unicode hex="00C6"/>
  <outline>
    <contour>
      <point x="629.9" y="42.5596" type="line" smooth="yes"/>
      <point x="653.28" y="42.5596"/>
      <point x="672.224" y="23.6113"/>
      <point x="672.224" y="0.231445" type="curve"/>
      <point x="302.214" y="0.231445" type="line" smooth="yes"/>
      <point x="290.523" y="0.231445"/>
      <point x="281.054" y="9.71191"/>
      <point x="281.054" y="21.4023" type="curve" smooth="yes"/>
      <point x="281.054" y="239.312" type="line"/>
      <point x="164.563" y="239.312" type="line"/>
      <point x="76.0332" y="29.4521" type="line" smooth="yes"/>
      <point x="67.0732" y="8.22168"/>
      <point x="42.5928" y="-1.72852"/>
      <point x="21.3623" y="7.23145" type="curve" smooth="yes"/>
      <point x="21.0527" y="7.36133"/>
      <point x="20.9229" y="7.71094"/>
      <point x="21.0527" y="8.01074" type="curve" smooth="yes"/>
      <point x="281.152" y="624.57" type="line" smooth="yes"/>
      <point x="282.292" y="627.301"/>
      <point x="283.932" y="629.641"/>
      <point x="285.832" y="631.681" type="curve" smooth="yes"/>
      <point x="289.712" y="636.48"/>
      <point x="295.572" y="639.601"/>
      <point x="302.212" y="639.601" type="curve" smooth="yes"/>
      <point x="303.102" y="639.601" type="line" smooth="yes"/>
      <point x="303.621" y="639.61"/>
      <point x="304.131" y="639.61"/>
      <point x="304.65" y="639.601" type="curve" smooth="yes"/>
      <point x="672.221" y="639.601" type="line"/>
      <point x="672.221" y="616.221"/>
      <point x="653.28" y="597.271"/>
      <point x="629.9" y="597.271" type="curve" smooth="yes"/>
      <point x="323.381" y="597.271" type="line"/>
      <point x="323.381" y="341.08" type="line"/>
      <point x="601.001" y="341.08" type="line"/>
      <point x="601.001" y="317.7"/>
      <point x="582.051" y="298.75"/>
      <point x="558.671" y="298.75" type="curve" smooth="yes"/>
      <point x="323.381" y="298.75" type="line"/>
      <point x="323.381" y="42.5596" type="line"/>
    </contour>
    <contour>
      <point x="182.413" y="281.642" type="line"/>
      <point x="281.053" y="281.642" type="line"/>
      <point x="281.053" y="515.462" type="line"/>
    </contour>
  </outline>
</glyph>
<glyph name="Ccedilla" format="2">
  <advance width="554"/>
  <unicode hex="00C7"/>
  <outline>
    <contour>
      <point x="387.65" y="-29.4004" type="line" smooth="yes"/>
      <point x="421.79" y="-29.4004"/>
      <point x="452.351" y="-54.3018"/>
      <point x="455.671" y="-88.292" type="curve" smooth="yes"/>
      <point x="459.48" y="-127.292"/>
      <point x="428.79" y="-160.252"/>
      <point x="390.57" y="-160.252" type="curve" smooth="yes"/>
      <point x="273.73" y="-159.812" type="line"/>
      <point x="273.73" y="-136.462"/>
      <point x="292.7" y="-117.552"/>
      <point x="316.05" y="-117.642" type="curve" smooth="yes"/>
      <point x="390.569" y="-117.922" type="line" smooth="yes"/>
      <point x="404.579" y="-117.922"/>
      <point x="415.729" y="-105.362"/>
      <point x="413.34" y="-90.9219" type="curve" smooth="yes"/>
      <point x="411.46" y="-79.5615"/>
      <point x="400.77" y="-71.7314"/>
      <point x="389.26" y="-71.7314" type="curve" smooth="yes"/>
      <point x="294.95" y="-71.7314" type="line" smooth="yes"/>
      <point x="286.41" y="-71.7314"/>
      <point x="278.71" y="-66.6016"/>
      <point x="275.42" y="-58.7314" type="curve" smooth="yes"/>
      <point x="272.12" y="-50.8613"/>
      <point x="273.88" y="-41.791"/>
      <point x="279.86" y="-35.7012" type="curve" smooth="yes"/>
      <point x="319.511" y="4.51855" type="line"/>
      <point x="165.591" y="27.0381"/>
      <point x="47.001" y="159.908"/>
      <point x="47.001" y="319.998" type="curve" smooth="yes"/>
      <point x="47.001" y="495.838"/>
      <point x="190.041" y="638.878"/>
      <point x="365.861" y="638.878" type="curve" smooth="yes"/>
      <point x="422.852" y="638.878"/>
      <point x="478.781" y="623.658"/>
      <point x="527.611" y="594.858" type="curve"/>
      <point x="516.121" y="575.358"/>
      <point x="492.071" y="567.168"/>
      <point x="471.131" y="575.778" type="curve" smooth="yes"/>
      <point x="437.921" y="589.429"/>
      <point x="402.141" y="596.539"/>
      <point x="365.86" y="596.539" type="curve" smooth="yes"/>
      <point x="213.38" y="596.539"/>
      <point x="89.3301" y="472.479"/>
      <point x="89.3301" y="319.989" type="curve" smooth="yes"/>
      <point x="89.3301" y="167.489"/>
      <point x="213.38" y="43.4395"/>
      <point x="365.86" y="43.4395" type="curve" smooth="yes"/>
      <point x="402.141" y="43.4395"/>
      <point x="437.921" y="50.5293"/>
      <point x="471.121" y="64.1895" type="curve" smooth="yes"/>
      <point x="492.062" y="72.7998"/>
      <point x="516.121" y="64.6299"/>
      <point x="527.611" y="45.1299" type="curve"/>
      <point x="481.671" y="18.04"/>
      <point x="429.431" y="3.13965"/>
      <point x="375.94" y="1.44922" type="curve"/>
      <point x="345.53" y="-29.4004" type="line"/>
    </contour>
  </outline>
</glyph>
<glyph name="Egrave" format="2">
  <advance width="500"/>
  <unicode hex="00C8"/>
  <outline>
    <contour>
      <point x="329.546" y="688.221" type="line"/>
      <point x="313.023" y="671.685"/>
      <point x="286.215" y="671.685"/>
      <point x="269.692" y="688.221" type="curve" smooth="yes"/>
      <point x="219.631" y="738.282" type="line"/>
      <point x="236.153" y="754.805"/>
      <point x="262.962" y="754.805"/>
      <point x="279.484" y="738.282" type="curve" smooth="yes"/>
    </contour>
    <contour>
      <point x="427.848" y="42.5615" type="line" smooth="yes"/>
      <point x="451.228" y="42.5615"/>
      <point x="470.177" y="23.6133"/>
      <point x="470.177" y="0.233398" type="curve"/>
      <point x="100.165" y="0.233398" type="line" smooth="yes"/>
      <point x="88.4678" y="0.233398"/>
      <point x="79" y="9.71484"/>
      <point x="79" y="21.3975" type="curve" smooth="yes"/>
      <point x="79" y="618.435" type="line" smooth="yes"/>
      <point x="79" y="630.117"/>
      <point x="88.4678" y="639.599"/>
      <point x="100.165" y="639.599" type="curve" smooth="yes"/>
      <point x="470.177" y="639.599" type="line"/>
      <point x="470.177" y="616.219"/>
      <point x="451.228" y="597.27"/>
      <point x="427.848" y="597.27" type="curve" smooth="yes"/>
      <point x="121.329" y="597.27" type="line"/>
      <point x="121.329" y="341.08" type="line"/>
      <point x="398.951" y="341.08" type="line"/>
      <point x="398.951" y="317.7"/>
      <point x="380.002" y="298.751"/>
      <point x="356.622" y="298.751" type="curve" smooth="yes"/>
      <point x="121.329" y="298.751" type="line"/>
      <point x="121.329" y="42.5615" type="line"/>
    </contour>
  </outline>
</glyph>
<glyph name="Eacute" format="2">
  <advance width="500"/>
  <unicode hex="00C9"/>
  <outline>
    <contour>
      <point x="279.471" y="688.221" type="line" smooth="yes"/>
      <point x="262.948" y="671.685"/>
      <point x="236.14" y="671.685"/>
      <point x="219.617" y="688.221" type="curve"/>
      <point x="269.679" y="738.282" type="line" smooth="yes"/>
      <point x="286.201" y="754.805"/>
      <point x="313.01" y="754.805"/>
      <point x="329.532" y="738.282" type="curve"/>
    </contour>
    <contour>
      <point x="427.848" y="42.6328" type="line" smooth="yes"/>
      <point x="451.228" y="42.6328"/>
      <point x="470.177" y="23.6846"/>
      <point x="470.177" y="0.304688" type="curve"/>
      <point x="100.165" y="0.304688" type="line" smooth="yes"/>
      <point x="88.4678" y="0.304688"/>
      <point x="79" y="9.78613"/>
      <point x="79" y="21.4688" type="curve" smooth="yes"/>
      <point x="79" y="618.506" type="line" smooth="yes"/>
      <point x="79" y="630.188"/>
      <point x="88.4678" y="639.67"/>
      <point x="100.165" y="639.67" type="curve" smooth="yes"/>
      <point x="470.177" y="639.67" type="line"/>
      <point x="470.177" y="616.29"/>
      <point x="451.228" y="597.341"/>
      <point x="427.848" y="597.341" type="curve" smooth="yes"/>
      <point x="121.329" y="597.341" type="line"/>
      <point x="121.329" y="341.151" type="line"/>
      <point x="398.951" y="341.151" type="line"/>
      <point x="398.951" y="317.771"/>
      <point x="380.002" y="298.822"/>
      <point x="356.622" y="298.822" type="curve" smooth="yes"/>
      <point x="121.329" y="298.822" type="line"/>
      <point x="121.329" y="42.6328" type="line"/>
    </contour>
  </outline>
</glyph>
<glyph name="Ecircumflex" format="2">
  <advance width="500"/>
  <unicode hex="00CA"/>
  <outline>
    <contour>
      <point x="254.426" y="692.595" type="line" smooth="yes"/>
      <point x="237.903" y="676.072"/>
      <point x="211.094" y="676.072"/>
      <point x="194.571" y="692.595" type="curve"/>
      <point x="244.633" y="742.656" type="line" smooth="yes"/>
      <point x="252.915" y="750.925"/>
      <point x="263.751" y="755.045"/>
      <point x="274.602" y="755.045" type="curve" smooth="yes"/>
      <point x="285.452" y="755.059"/>
      <point x="296.303" y="750.925"/>
      <point x="304.571" y="742.656" type="curve" smooth="yes"/>
      <point x="354.633" y="692.595" type="line"/>
      <point x="338.11" y="676.072"/>
      <point x="311.302" y="676.072"/>
      <point x="294.779" y="692.595" type="curve" smooth="yes"/>
      <point x="274.603" y="712.771" type="line"/>
    </contour>
    <contour>
      <point x="427.847" y="42.5615" type="line" smooth="yes"/>
      <point x="451.227" y="42.5615"/>
      <point x="470.176" y="23.5986"/>
      <point x="470.176" y="0.21875" type="curve"/>
      <point x="100.164" y="0.21875" type="line" smooth="yes"/>
      <point x="88.4814" y="0.21875"/>
      <point x="79" y="9.7002"/>
      <point x="79" y="21.3828" type="curve" smooth="yes"/>
      <point x="79" y="618.42" type="line" smooth="yes"/>
      <point x="79" y="630.117"/>
      <point x="88.4814" y="639.585"/>
      <point x="100.164" y="639.585" type="curve" smooth="yes"/>
      <point x="470.176" y="639.585" type="line"/>
      <point x="470.176" y="616.205"/>
      <point x="451.227" y="597.256"/>
      <point x="427.847" y="597.256" type="curve" smooth="yes"/>
      <point x="121.328" y="597.256" type="line"/>
      <point x="121.328" y="341.08" type="line"/>
      <point x="398.964" y="341.08" type="line"/>
      <point x="398.964" y="317.7"/>
      <point x="380.015" y="298.751"/>
      <point x="356.635" y="298.751" type="curve" smooth="yes"/>
      <point x="121.328" y="298.751" type="line"/>
      <point x="121.328" y="42.5615" type="line"/>
    </contour>
  </outline>
</glyph>
<glyph name="Edieresis" format="2">
  <advance width="500"/>
  <unicode hex="00CB"/>
  <outline>
    <contour>
      <point x="334.582" y="677.64" type="curve" smooth="yes"/>
      <point x="312.486" y="677.64"/>
      <point x="294.581" y="695.545"/>
      <point x="294.581" y="717.641" type="curve" smooth="yes"/>
      <point x="294.581" y="739.736"/>
      <point x="312.486" y="757.642"/>
      <point x="334.582" y="757.642" type="curve" smooth="yes"/>
      <point x="356.678" y="757.642"/>
      <point x="374.583" y="739.736"/>
      <point x="374.583" y="717.641" type="curve" smooth="yes"/>
      <point x="374.583" y="695.545"/>
      <point x="356.664" y="677.64"/>
    </contour>
    <contour>
      <point x="214.594" y="677.64" type="curve" smooth="yes"/>
      <point x="192.498" y="677.64"/>
      <point x="174.593" y="695.545"/>
      <point x="174.593" y="717.641" type="curve" smooth="yes"/>
      <point x="174.593" y="739.736"/>
      <point x="192.512" y="757.642"/>
      <point x="214.594" y="757.642" type="curve" smooth="yes"/>
      <point x="236.676" y="757.642"/>
      <point x="254.581" y="739.736"/>
      <point x="254.581" y="717.641" type="curve" smooth="yes"/>
      <point x="254.581" y="695.545"/>
      <point x="236.676" y="677.64"/>
    </contour>
    <contour>
      <point x="427.848" y="42.6328" type="line" smooth="yes"/>
      <point x="451.228" y="42.6328"/>
      <point x="470.177" y="23.6846"/>
      <point x="470.177" y="0.304688" type="curve"/>
      <point x="100.165" y="0.304688" type="line" smooth="yes"/>
      <point x="88.4824" y="0.304688"/>
      <point x="79.001" y="9.78613"/>
      <point x="79.001" y="21.4688" type="curve" smooth="yes"/>
      <point x="79.001" y="618.506" type="line" smooth="yes"/>
      <point x="79.001" y="630.188"/>
      <point x="88.4824" y="639.67"/>
      <point x="100.165" y="639.67" type="curve" smooth="yes"/>
      <point x="470.177" y="639.67" type="line"/>
      <point x="470.177" y="616.29"/>
      <point x="451.228" y="597.341"/>
      <point x="427.848" y="597.341" type="curve" smooth="yes"/>
      <point x="121.329" y="597.341" type="line"/>
      <point x="121.329" y="341.151" type="line"/>
      <point x="398.965" y="341.151" type="line"/>
      <point x="398.965" y="317.771"/>
      <point x="380.016" y="298.822"/>
      <point x="356.636" y="298.822" type="curve" smooth="yes"/>
      <point x="121.329" y="298.822" type="line"/>
      <point x="121.329" y="42.6328" type="line"/>
    </contour>
  </outline>
</glyph>
<glyph name="Igrave" format="2">
  <advance width="200"/>
  <unicode hex="00CC"/>
  <outline>
    <contour>
      <point x="104.854" y="744.829" type="curve" smooth="yes"/>
      <point x="154.916" y="694.768" type="line"/>
      <point x="138.394" y="678.231"/>
      <point x="111.585" y="678.231"/>
      <point x="95.0625" y="694.768" type="curve" smooth="yes"/>
      <point x="45.001" y="744.829" type="line"/>
      <point x="61.5234" y="761.365"/>
      <point x="88.3174" y="761.365"/>
    </contour>
    <contour>
      <point x="78.7939" y="597.622" type="line" smooth="yes"/>
      <point x="78.7939" y="621.002"/>
      <point x="97.7432" y="639.951"/>
      <point x="121.123" y="639.951" type="curve"/>
      <point x="121.123" y="42.3496" type="line" smooth="yes"/>
      <point x="121.123" y="18.9697"/>
      <point x="102.174" y="0.0205078"/>
      <point x="78.7939" y="0.0205078" type="curve"/>
    </contour>
  </outline>
</glyph>
